  0
SECTION
  2
HEADER
  9
$ACADVER
  1
AC1009
  9
$INSBASE
 10
0.0
 20
0.0
 30
0.0
  9
$EXTMIN
 10
0.0
 20
0.0
 30
0.0
  9
$EXTMAX
 10
0.0
 20
0.0
 30
0.0
  0
ENDSEC
  0
SECTION
  2
TABLES
  0
TABLE
  2
VPORT
 70
0
  0
ENDTAB
  0
TABLE
  2
LTYPE
 70
1
  0
LTYPE
  2
CONTINUOUS
 70
0
  3
Solid line
 72
65
 73
0
 40
0.0
  0
ENDTAB
  0
TABLE
  2
LAYER
 70
1
  0
LAYER
  2
0
 70
64
 62
7
  6
continuous
  0
ENDTAB
  0
TABLE
  2
STYLE
 70
1
  0
STYLE
  2
STANDARD
 70
0
 40
0
 41
1.0
 50
0.0
 71
0
 42
1
 3
ARIAL.TTF
 4

  0
ENDTAB
  0
TABLE
  2
VIEW
 70
0
  0
ENDTAB
  0
ENDSEC
  0
SECTION
  2
BLOCKS
  0
BLOCK
  8
0
  2
SHAPE
 70
0
 10
0.0
 20
0.0
 30
0.0
  3
SHAPE
  0
LINE
  8
0
 62
0
 10
-171.45
 20
-61.9125
 30
0.0
 11
-171.45
 21
61.9125
 31
0.0
  0
LINE
  8
0
 62
0
 10
-171.45
 20
-61.9125
 30
0.0
 11
171.45
 21
-61.9125
 31
0.0
  0
LINE
  8
0
 62
0
 10
-171.45
 20
61.9125
 30
0.0
 11
171.45
 21
61.9125
 31
0.0
  0
LINE
  8
0
 62
0
 10
171.45
 20
-61.9125
 30
0.0
 11
171.45
 21
61.9125
 31
0.0
  0
LINE
  8
0
 62
0
 10
168.925
 20
45.3875
 30
0.0
 11
168.925
 21
59.3875
 31
0.0
  0
LINE
  8
0
 62
0
 10
154.925
 20
45.3875
 30
0.0
 11
168.925
 21
45.3875
 31
0.0
  0
LINE
  8
0
 62
0
 10
168.925
 20
59.3875
 30
0.0
 11
154.925
 21
59.3875
 31
0.0
  0
LINE
  8
0
 62
0
 10
154.925
 20
59.3875
 30
0.0
 11
154.925
 21
45.3875
 31
0.0
  0
LINE
  8
0
 62
0
 10
-97.775
 20
11.7625
 30
0.0
 11
-111.775
 21
11.7625
 31
0.0
  0
LINE
  8
0
 62
0
 10
-97.775
 20
-2.2375
 30
0.0
 11
-97.775
 21
11.7625
 31
0.0
  0
LINE
  8
0
 62
0
 10
-111.775
 20
11.7625
 30
0.0
 11
-111.775
 21
-2.2375
 31
0.0
  0
LINE
  8
0
 62
0
 10
-111.775
 20
-2.2375
 30
0.0
 11
-97.775
 21
-2.2375
 31
0.0
  0
LINE
  8
0
 62
0
 10
97.4875
 20
-21.2875
 30
0.0
 11
97.4875
 21
-7.2875
 31
0.0
  0
LINE
  8
0
 62
0
 10
83.4875
 20
-21.2875
 30
0.0
 11
97.4875
 21
-21.2875
 31
0.0
  0
LINE
  8
0
 62
0
 10
97.4875
 20
-7.2875
 30
0.0
 11
83.4875
 21
-7.2875
 31
0.0
  0
LINE
  8
0
 62
0
 10
83.4875
 20
-7.2875
 30
0.0
 11
83.4875
 21
-21.2875
 31
0.0
  0
LINE
  8
0
 62
0
 10
-154.925
 20
-7.2875
 30
0.0
 11
-168.925
 21
-7.2875
 31
0.0
  0
LINE
  8
0
 62
0
 10
-154.925
 20
-21.2875
 30
0.0
 11
-154.925
 21
-7.2875
 31
0.0
  0
LINE
  8
0
 62
0
 10
-168.925
 20
-7.2875
 30
0.0
 11
-168.925
 21
-21.2875
 31
0.0
  0
LINE
  8
0
 62
0
 10
-168.925
 20
-21.2875
 30
0.0
 11
-154.925
 21
-21.2875
 31
0.0
  0
LINE
  8
0
 62
0
 10
140.35
 20
16.8125
 30
0.0
 11
140.35
 21
30.8125
 31
0.0
  0
LINE
  8
0
 62
0
 10
126.35
 20
16.8125
 30
0.0
 11
140.35
 21
16.8125
 31
0.0
  0
LINE
  8
0
 62
0
 10
140.35
 20
30.8125
 30
0.0
 11
126.35
 21
30.8125
 31
0.0
  0
LINE
  8
0
 62
0
 10
126.35
 20
30.8125
 30
0.0
 11
126.35
 21
16.8125
 31
0.0
  0
LINE
  8
0
 62
0
 10
88.25
 20
30.8125
 30
0.0
 11
88.25
 21
16.8125
 31
0.0
  0
LINE
  8
0
 62
0
 10
102.25
 20
30.8125
 30
0.0
 11
88.25
 21
30.8125
 31
0.0
  0
LINE
  8
0
 62
0
 10
88.25
 20
16.8125
 30
0.0
 11
102.25
 21
16.8125
 31
0.0
  0
LINE
  8
0
 62
0
 10
102.25
 20
16.8125
 30
0.0
 11
102.25
 21
30.8125
 31
0.0
  0
LINE
  8
0
 62
0
 10
49.8625
 20
-40.3375
 30
0.0
 11
49.8625
 21
-26.3375
 31
0.0
  0
LINE
  8
0
 62
0
 10
35.8625
 20
-40.3375
 30
0.0
 11
49.8625
 21
-40.3375
 31
0.0
  0
LINE
  8
0
 62
0
 10
49.8625
 20
-26.3375
 30
0.0
 11
35.8625
 21
-26.3375
 31
0.0
  0
LINE
  8
0
 62
0
 10
35.8625
 20
-26.3375
 30
0.0
 11
35.8625
 21
-40.3375
 31
0.0
  0
LINE
  8
0
 62
0
 10
-114.44375
 20
-40.3375
 30
0.0
 11
-114.44375
 21
-26.3375
 31
0.0
  0
LINE
  8
0
 62
0
 10
-128.44375
 20
-40.3375
 30
0.0
 11
-114.44375
 21
-40.3375
 31
0.0
  0
LINE
  8
0
 62
0
 10
-114.44375
 20
-26.3375
 30
0.0
 11
-128.44375
 21
-26.3375
 31
0.0
  0
LINE
  8
0
 62
0
 10
-128.44375
 20
-26.3375
 30
0.0
 11
-128.44375
 21
-40.3375
 31
0.0
  0
LINE
  8
0
 62
0
 10
-168.925
 20
-59.3875
 30
0.0
 11
-154.925
 21
-59.3875
 31
0.0
  0
LINE
  8
0
 62
0
 10
-168.925
 20
-45.3875
 30
0.0
 11
-168.925
 21
-59.3875
 31
0.0
  0
LINE
  8
0
 62
0
 10
-154.925
 20
-59.3875
 30
0.0
 11
-154.925
 21
-45.3875
 31
0.0
  0
LINE
  8
0
 62
0
 10
-154.925
 20
-45.3875
 30
0.0
 11
-168.925
 21
-45.3875
 31
0.0
  0
LINE
  8
0
 62
0
 10
26.3375
 20
-7.2875
 30
0.0
 11
26.3375
 21
-21.2875
 31
0.0
  0
LINE
  8
0
 62
0
 10
40.3375
 20
-7.2875
 30
0.0
 11
26.3375
 21
-7.2875
 31
0.0
  0
LINE
  8
0
 62
0
 10
26.3375
 20
-21.2875
 30
0.0
 11
40.3375
 21
-21.2875
 31
0.0
  0
LINE
  8
0
 62
0
 10
40.3375
 20
-21.2875
 30
0.0
 11
40.3375
 21
-7.2875
 31
0.0
  0
LINE
  8
0
 62
0
 10
78.4375
 20
-7.2875
 30
0.0
 11
64.4375
 21
-7.2875
 31
0.0
  0
LINE
  8
0
 62
0
 10
78.4375
 20
-21.2875
 30
0.0
 11
78.4375
 21
-7.2875
 31
0.0
  0
LINE
  8
0
 62
0
 10
64.4375
 20
-7.2875
 30
0.0
 11
64.4375
 21
-21.2875
 31
0.0
  0
LINE
  8
0
 62
0
 10
64.4375
 20
-21.2875
 30
0.0
 11
78.4375
 21
-21.2875
 31
0.0
  0
LINE
  8
0
 62
0
 10
-88.25
 20
30.8125
 30
0.0
 11
-102.25
 21
30.8125
 31
0.0
  0
LINE
  8
0
 62
0
 10
-88.25
 20
16.8125
 30
0.0
 11
-88.25
 21
30.8125
 31
0.0
  0
LINE
  8
0
 62
0
 10
-102.25
 20
30.8125
 30
0.0
 11
-102.25
 21
16.8125
 31
0.0
  0
LINE
  8
0
 62
0
 10
-102.25
 20
16.8125
 30
0.0
 11
-88.25
 21
16.8125
 31
0.0
  0
LINE
  8
0
 62
0
 10
-35.8625
 20
-7.2875
 30
0.0
 11
-49.8625
 21
-7.2875
 31
0.0
  0
LINE
  8
0
 62
0
 10
-35.8625
 20
-21.2875
 30
0.0
 11
-35.8625
 21
-7.2875
 31
0.0
  0
LINE
  8
0
 62
0
 10
-49.8625
 20
-7.2875
 30
0.0
 11
-49.8625
 21
-21.2875
 31
0.0
  0
LINE
  8
0
 62
0
 10
-49.8625
 20
-21.2875
 30
0.0
 11
-35.8625
 21
-21.2875
 31
0.0
  0
LINE
  8
0
 62
0
 10
-2.525
 20
59.3875
 30
0.0
 11
-16.525
 21
59.3875
 31
0.0
  0
LINE
  8
0
 62
0
 10
-2.525
 20
45.3875
 30
0.0
 11
-2.525
 21
59.3875
 31
0.0
  0
LINE
  8
0
 62
0
 10
-16.525
 20
59.3875
 30
0.0
 11
-16.525
 21
45.3875
 31
0.0
  0
LINE
  8
0
 62
0
 10
-16.525
 20
45.3875
 30
0.0
 11
-2.525
 21
45.3875
 31
0.0
  0
LINE
  8
0
 62
0
 10
35.575
 20
59.3875
 30
0.0
 11
21.575
 21
59.3875
 31
0.0
  0
LINE
  8
0
 62
0
 10
35.575
 20
45.3875
 30
0.0
 11
35.575
 21
59.3875
 31
0.0
  0
LINE
  8
0
 62
0
 10
21.575
 20
59.3875
 30
0.0
 11
21.575
 21
45.3875
 31
0.0
  0
LINE
  8
0
 62
0
 10
21.575
 20
45.3875
 30
0.0
 11
35.575
 21
45.3875
 31
0.0
  0
LINE
  8
0
 62
0
 10
-59.675
 20
11.7625
 30
0.0
 11
-73.675
 21
11.7625
 31
0.0
  0
LINE
  8
0
 62
0
 10
-59.675
 20
-2.2375
 30
0.0
 11
-59.675
 21
11.7625
 31
0.0
  0
LINE
  8
0
 62
0
 10
-73.675
 20
11.7625
 30
0.0
 11
-73.675
 21
-2.2375
 31
0.0
  0
LINE
  8
0
 62
0
 10
-73.675
 20
-2.2375
 30
0.0
 11
-59.675
 21
-2.2375
 31
0.0
  0
LINE
  8
0
 62
0
 10
-69.2
 20
45.3875
 30
0.0
 11
-69.2
 21
59.3875
 31
0.0
  0
LINE
  8
0
 62
0
 10
-83.2
 20
45.3875
 30
0.0
 11
-69.2
 21
45.3875
 31
0.0
  0
LINE
  8
0
 62
0
 10
-69.2
 20
59.3875
 30
0.0
 11
-83.2
 21
59.3875
 31
0.0
  0
LINE
  8
0
 62
0
 10
-83.2
 20
59.3875
 30
0.0
 11
-83.2
 21
45.3875
 31
0.0
  0
LINE
  8
0
 62
0
 10
-11.7625
 20
-21.2875
 30
0.0
 11
2.2375
 21
-21.2875
 31
0.0
  0
LINE
  8
0
 62
0
 10
-11.7625
 20
-7.2875
 30
0.0
 11
-11.7625
 21
-21.2875
 31
0.0
  0
LINE
  8
0
 62
0
 10
2.2375
 20
-21.2875
 30
0.0
 11
2.2375
 21
-7.2875
 31
0.0
  0
LINE
  8
0
 62
0
 10
2.2375
 20
-7.2875
 30
0.0
 11
-11.7625
 21
-7.2875
 31
0.0
  0
LINE
  8
0
 62
0
 10
-40.625
 20
-2.2375
 30
0.0
 11
-40.625
 21
11.7625
 31
0.0
  0
LINE
  8
0
 62
0
 10
-54.625
 20
-2.2375
 30
0.0
 11
-40.625
 21
-2.2375
 31
0.0
  0
LINE
  8
0
 62
0
 10
-40.625
 20
11.7625
 30
0.0
 11
-54.625
 21
11.7625
 31
0.0
  0
LINE
  8
0
 62
0
 10
-54.625
 20
11.7625
 30
0.0
 11
-54.625
 21
-2.2375
 31
0.0
  0
LINE
  8
0
 62
0
 10
39.74375
 20
-45.9875
 30
0.0
 11
36.44375
 21
-45.9875
 31
0.0
  0
LINE
  8
0
 62
0
 10
39.74375
 20
-60.1375
 30
0.0
 11
39.74375
 21
-45.9875
 31
0.0
  0
LINE
  8
0
 62
0
 10
36.44375
 20
-45.9875
 30
0.0
 11
36.44375
 21
-60.1375
 31
0.0
  0
LINE
  8
0
 62
0
 10
36.44375
 20
-60.1375
 30
0.0
 11
39.74375
 21
-60.1375
 31
0.0
  0
LINE
  8
0
 62
0
 10
109.68125
 20
-26.3375
 30
0.0
 11
109.68125
 21
-40.3375
 31
0.0
  0
LINE
  8
0
 62
0
 10
123.68125
 20
-26.3375
 30
0.0
 11
109.68125
 21
-26.3375
 31
0.0
  0
LINE
  8
0
 62
0
 10
109.68125
 20
-40.3375
 30
0.0
 11
123.68125
 21
-40.3375
 31
0.0
  0
LINE
  8
0
 62
0
 10
123.68125
 20
-40.3375
 30
0.0
 11
123.68125
 21
-26.3375
 31
0.0
  0
LINE
  8
0
 62
0
 10
-45.1
 20
16.8125
 30
0.0
 11
-31.1
 21
16.8125
 31
0.0
  0
LINE
  8
0
 62
0
 10
-45.1
 20
30.8125
 30
0.0
 11
-45.1
 21
16.8125
 31
0.0
  0
LINE
  8
0
 62
0
 10
-31.1
 20
16.8125
 30
0.0
 11
-31.1
 21
30.8125
 31
0.0
  0
LINE
  8
0
 62
0
 10
-31.1
 20
30.8125
 30
0.0
 11
-45.1
 21
30.8125
 31
0.0
  0
LINE
  8
0
 62
0
 10
-90.34375
 20
-45.3875
 30
0.0
 11
-90.34375
 21
-59.3875
 31
0.0
  0
LINE
  8
0
 62
0
 10
-76.34375
 20
-45.3875
 30
0.0
 11
-90.34375
 21
-45.3875
 31
0.0
  0
LINE
  8
0
 62
0
 10
-90.34375
 20
-59.3875
 30
0.0
 11
-76.34375
 21
-59.3875
 31
0.0
  0
LINE
  8
0
 62
0
 10
-76.34375
 20
-59.3875
 30
0.0
 11
-76.34375
 21
-45.3875
 31
0.0
  0
LINE
  8
0
 62
0
 10
73.675
 20
11.7625
 30
0.0
 11
59.675
 21
11.7625
 31
0.0
  0
LINE
  8
0
 62
0
 10
73.675
 20
-2.2375
 30
0.0
 11
73.675
 21
11.7625
 31
0.0
  0
LINE
  8
0
 62
0
 10
59.675
 20
11.7625
 30
0.0
 11
59.675
 21
-2.2375
 31
0.0
  0
LINE
  8
0
 62
0
 10
59.675
 20
-2.2375
 30
0.0
 11
73.675
 21
-2.2375
 31
0.0
  0
LINE
  8
0
 62
0
 10
-87.9625
 20
-7.2875
 30
0.0
 11
-87.9625
 21
-21.2875
 31
0.0
  0
LINE
  8
0
 62
0
 10
-73.9625
 20
-7.2875
 30
0.0
 11
-87.9625
 21
-7.2875
 31
0.0
  0
LINE
  8
0
 62
0
 10
-87.9625
 20
-21.2875
 30
0.0
 11
-73.9625
 21
-21.2875
 31
0.0
  0
LINE
  8
0
 62
0
 10
-73.9625
 20
-21.2875
 30
0.0
 11
-73.9625
 21
-7.2875
 31
0.0
  0
LINE
  8
0
 62
0
 10
21.2875
 20
-21.2875
 30
0.0
 11
21.2875
 21
-7.2875
 31
0.0
  0
LINE
  8
0
 62
0
 10
7.2875
 20
-21.2875
 30
0.0
 11
21.2875
 21
-21.2875
 31
0.0
  0
LINE
  8
0
 62
0
 10
21.2875
 20
-7.2875
 30
0.0
 11
7.2875
 21
-7.2875
 31
0.0
  0
LINE
  8
0
 62
0
 10
7.2875
 20
-7.2875
 30
0.0
 11
7.2875
 21
-21.2875
 31
0.0
  0
LINE
  8
0
 62
0
 10
168.925
 20
16.8125
 30
0.0
 11
168.925
 21
30.8125
 31
0.0
  0
LINE
  8
0
 62
0
 10
154.925
 20
16.8125
 30
0.0
 11
168.925
 21
16.8125
 31
0.0
  0
LINE
  8
0
 62
0
 10
168.925
 20
30.8125
 30
0.0
 11
154.925
 21
30.8125
 31
0.0
  0
LINE
  8
0
 62
0
 10
154.925
 20
30.8125
 30
0.0
 11
154.925
 21
16.8125
 31
0.0
  0
LINE
  8
0
 62
0
 10
2.525
 20
45.3875
 30
0.0
 11
16.525
 21
45.3875
 31
0.0
  0
LINE
  8
0
 62
0
 10
2.525
 20
59.3875
 30
0.0
 11
2.525
 21
45.3875
 31
0.0
  0
LINE
  8
0
 62
0
 10
16.525
 20
45.3875
 30
0.0
 11
16.525
 21
59.3875
 31
0.0
  0
LINE
  8
0
 62
0
 10
16.525
 20
59.3875
 30
0.0
 11
2.525
 21
59.3875
 31
0.0
  0
LINE
  8
0
 62
0
 10
-83.2
 20
16.8125
 30
0.0
 11
-69.2
 21
16.8125
 31
0.0
  0
LINE
  8
0
 62
0
 10
-83.2
 20
30.8125
 30
0.0
 11
-83.2
 21
16.8125
 31
0.0
  0
LINE
  8
0
 62
0
 10
-69.2
 20
16.8125
 30
0.0
 11
-69.2
 21
30.8125
 31
0.0
  0
LINE
  8
0
 62
0
 10
-69.2
 20
30.8125
 30
0.0
 11
-83.2
 21
30.8125
 31
0.0
  0
LINE
  8
0
 62
0
 10
-92.725
 20
-2.2375
 30
0.0
 11
-78.725
 21
-2.2375
 31
0.0
  0
LINE
  8
0
 62
0
 10
-92.725
 20
11.7625
 30
0.0
 11
-92.725
 21
-2.2375
 31
0.0
  0
LINE
  8
0
 62
0
 10
-78.725
 20
-2.2375
 30
0.0
 11
-78.725
 21
11.7625
 31
0.0
  0
LINE
  8
0
 62
0
 10
-78.725
 20
11.7625
 30
0.0
 11
-92.725
 21
11.7625
 31
0.0
  0
LINE
  8
0
 62
0
 10
16.525
 20
11.7625
 30
0.0
 11
2.525
 21
11.7625
 31
0.0
  0
LINE
  8
0
 62
0
 10
16.525
 20
-2.2375
 30
0.0
 11
16.525
 21
11.7625
 31
0.0
  0
LINE
  8
0
 62
0
 10
2.525
 20
11.7625
 30
0.0
 11
2.525
 21
-2.2375
 31
0.0
  0
LINE
  8
0
 62
0
 10
2.525
 20
-2.2375
 30
0.0
 11
16.525
 21
-2.2375
 31
0.0
  0
LINE
  8
0
 62
0
 10
50.15
 20
30.8125
 30
0.0
 11
50.15
 21
16.8125
 31
0.0
  0
LINE
  8
0
 62
0
 10
64.15
 20
30.8125
 30
0.0
 11
50.15
 21
30.8125
 31
0.0
  0
LINE
  8
0
 62
0
 10
50.15
 20
16.8125
 30
0.0
 11
64.15
 21
16.8125
 31
0.0
  0
LINE
  8
0
 62
0
 10
64.15
 20
16.8125
 30
0.0
 11
64.15
 21
30.8125
 31
0.0
  0
LINE
  8
0
 62
0
 10
-59.3875
 20
-40.3375
 30
0.0
 11
-45.3875
 21
-40.3375
 31
0.0
  0
LINE
  8
0
 62
0
 10
-59.3875
 20
-26.3375
 30
0.0
 11
-59.3875
 21
-40.3375
 31
0.0
  0
LINE
  8
0
 62
0
 10
-45.3875
 20
-40.3375
 30
0.0
 11
-45.3875
 21
-26.3375
 31
0.0
  0
LINE
  8
0
 62
0
 10
-45.3875
 20
-26.3375
 30
0.0
 11
-59.3875
 21
-26.3375
 31
0.0
  0
LINE
  8
0
 62
0
 10
137.96875
 20
-45.3875
 30
0.0
 11
123.96875
 21
-45.3875
 31
0.0
  0
LINE
  8
0
 62
0
 10
137.96875
 20
-59.3875
 30
0.0
 11
137.96875
 21
-45.3875
 31
0.0
  0
LINE
  8
0
 62
0
 10
123.96875
 20
-45.3875
 30
0.0
 11
123.96875
 21
-59.3875
 31
0.0
  0
LINE
  8
0
 62
0
 10
123.96875
 20
-59.3875
 30
0.0
 11
137.96875
 21
-59.3875
 31
0.0
  0
LINE
  8
0
 62
0
 10
-2.525
 20
-2.2375
 30
0.0
 11
-2.525
 21
11.7625
 31
0.0
  0
LINE
  8
0
 62
0
 10
-16.525
 20
-2.2375
 30
0.0
 11
-2.525
 21
-2.2375
 31
0.0
  0
LINE
  8
0
 62
0
 10
-2.525
 20
11.7625
 30
0.0
 11
-16.525
 21
11.7625
 31
0.0
  0
LINE
  8
0
 62
0
 10
-16.525
 20
11.7625
 30
0.0
 11
-16.525
 21
-2.2375
 31
0.0
  0
LINE
  8
0
 62
0
 10
66.53125
 20
-59.3875
 30
0.0
 11
66.53125
 21
-45.3875
 31
0.0
  0
LINE
  8
0
 62
0
 10
52.53125
 20
-59.3875
 30
0.0
 11
66.53125
 21
-59.3875
 31
0.0
  0
LINE
  8
0
 62
0
 10
66.53125
 20
-45.3875
 30
0.0
 11
52.53125
 21
-45.3875
 31
0.0
  0
LINE
  8
0
 62
0
 10
52.53125
 20
-45.3875
 30
0.0
 11
52.53125
 21
-59.3875
 31
0.0
  0
LINE
  8
0
 62
0
 10
-64.15
 20
30.8125
 30
0.0
 11
-64.15
 21
16.8125
 31
0.0
  0
LINE
  8
0
 62
0
 10
-50.15
 20
30.8125
 30
0.0
 11
-64.15
 21
30.8125
 31
0.0
  0
LINE
  8
0
 62
0
 10
-64.15
 20
16.8125
 30
0.0
 11
-50.15
 21
16.8125
 31
0.0
  0
LINE
  8
0
 62
0
 10
-50.15
 20
16.8125
 30
0.0
 11
-50.15
 21
30.8125
 31
0.0
  0
LINE
  8
0
 62
0
 10
-102.25
 20
45.3875
 30
0.0
 11
-88.25
 21
45.3875
 31
0.0
  0
LINE
  8
0
 62
0
 10
-102.25
 20
59.3875
 30
0.0
 11
-102.25
 21
45.3875
 31
0.0
  0
LINE
  8
0
 62
0
 10
-88.25
 20
45.3875
 30
0.0
 11
-88.25
 21
59.3875
 31
0.0
  0
LINE
  8
0
 62
0
 10
-88.25
 20
59.3875
 30
0.0
 11
-102.25
 21
59.3875
 31
0.0
  0
LINE
  8
0
 62
0
 10
-168.925
 20
45.3875
 30
0.0
 11
-154.925
 21
45.3875
 31
0.0
  0
LINE
  8
0
 62
0
 10
-168.925
 20
59.3875
 30
0.0
 11
-168.925
 21
45.3875
 31
0.0
  0
LINE
  8
0
 62
0
 10
-154.925
 20
45.3875
 30
0.0
 11
-154.925
 21
59.3875
 31
0.0
  0
LINE
  8
0
 62
0
 10
-154.925
 20
59.3875
 30
0.0
 11
-168.925
 21
59.3875
 31
0.0
  0
LINE
  8
0
 62
0
 10
83.2
 20
16.8125
 30
0.0
 11
83.2
 21
30.8125
 31
0.0
  0
LINE
  8
0
 62
0
 10
69.2
 20
16.8125
 30
0.0
 11
83.2
 21
16.8125
 31
0.0
  0
LINE
  8
0
 62
0
 10
83.2
 20
30.8125
 30
0.0
 11
69.2
 21
30.8125
 31
0.0
  0
LINE
  8
0
 62
0
 10
69.2
 20
30.8125
 30
0.0
 11
69.2
 21
16.8125
 31
0.0
  0
LINE
  8
0
 62
0
 10
-7.0
 20
30.8125
 30
0.0
 11
-7.0
 21
16.8125
 31
0.0
  0
LINE
  8
0
 62
0
 10
7.0
 20
30.8125
 30
0.0
 11
-7.0
 21
30.8125
 31
0.0
  0
LINE
  8
0
 62
0
 10
-7.0
 20
16.8125
 30
0.0
 11
7.0
 21
16.8125
 31
0.0
  0
LINE
  8
0
 62
0
 10
7.0
 20
16.8125
 30
0.0
 11
7.0
 21
30.8125
 31
0.0
  0
LINE
  8
0
 62
0
 10
-168.925
 20
16.8125
 30
0.0
 11
-154.925
 21
16.8125
 31
0.0
  0
LINE
  8
0
 62
0
 10
-168.925
 20
30.8125
 30
0.0
 11
-168.925
 21
16.8125
 31
0.0
  0
LINE
  8
0
 62
0
 10
-154.925
 20
16.8125
 30
0.0
 11
-154.925
 21
30.8125
 31
0.0
  0
LINE
  8
0
 62
0
 10
-154.925
 20
30.8125
 30
0.0
 11
-168.925
 21
30.8125
 31
0.0
  0
LINE
  8
0
 62
0
 10
-78.4375
 20
-40.3375
 30
0.0
 11
-64.4375
 21
-40.3375
 31
0.0
  0
LINE
  8
0
 62
0
 10
-78.4375
 20
-26.3375
 30
0.0
 11
-78.4375
 21
-40.3375
 31
0.0
  0
LINE
  8
0
 62
0
 10
-64.4375
 20
-40.3375
 30
0.0
 11
-64.4375
 21
-26.3375
 31
0.0
  0
LINE
  8
0
 62
0
 10
-64.4375
 20
-26.3375
 30
0.0
 11
-78.4375
 21
-26.3375
 31
0.0
  0
LINE
  8
0
 62
0
 10
59.3875
 20
-21.2875
 30
0.0
 11
59.3875
 21
-7.2875
 31
0.0
  0
LINE
  8
0
 62
0
 10
45.3875
 20
-21.2875
 30
0.0
 11
59.3875
 21
-21.2875
 31
0.0
  0
LINE
  8
0
 62
0
 10
59.3875
 20
-7.2875
 30
0.0
 11
45.3875
 21
-7.2875
 31
0.0
  0
LINE
  8
0
 62
0
 10
45.3875
 20
-7.2875
 30
0.0
 11
45.3875
 21
-21.2875
 31
0.0
  0
LINE
  8
0
 62
0
 10
97.775
 20
-2.2375
 30
0.0
 11
111.775
 21
-2.2375
 31
0.0
  0
LINE
  8
0
 62
0
 10
97.775
 20
11.7625
 30
0.0
 11
97.775
 21
-2.2375
 31
0.0
  0
LINE
  8
0
 62
0
 10
111.775
 20
-2.2375
 30
0.0
 11
111.775
 21
11.7625
 31
0.0
  0
LINE
  8
0
 62
0
 10
111.775
 20
11.7625
 30
0.0
 11
97.775
 21
11.7625
 31
0.0
  0
LINE
  8
0
 62
0
 10
140.35
 20
45.3875
 30
0.0
 11
140.35
 21
59.3875
 31
0.0
  0
LINE
  8
0
 62
0
 10
126.35
 20
45.3875
 30
0.0
 11
140.35
 21
45.3875
 31
0.0
  0
LINE
  8
0
 62
0
 10
140.35
 20
59.3875
 30
0.0
 11
126.35
 21
59.3875
 31
0.0
  0
LINE
  8
0
 62
0
 10
126.35
 20
59.3875
 30
0.0
 11
126.35
 21
45.3875
 31
0.0
  0
LINE
  8
0
 62
0
 10
54.625
 20
45.3875
 30
0.0
 11
54.625
 21
59.3875
 31
0.0
  0
LINE
  8
0
 62
0
 10
40.625
 20
45.3875
 30
0.0
 11
54.625
 21
45.3875
 31
0.0
  0
LINE
  8
0
 62
0
 10
54.625
 20
59.3875
 30
0.0
 11
40.625
 21
59.3875
 31
0.0
  0
LINE
  8
0
 62
0
 10
40.625
 20
59.3875
 30
0.0
 11
40.625
 21
45.3875
 31
0.0
  0
LINE
  8
0
 62
0
 10
-21.575
 20
-2.2375
 30
0.0
 11
-21.575
 21
11.7625
 31
0.0
  0
LINE
  8
0
 62
0
 10
-35.575
 20
-2.2375
 30
0.0
 11
-21.575
 21
-2.2375
 31
0.0
  0
LINE
  8
0
 62
0
 10
-21.575
 20
11.7625
 30
0.0
 11
-35.575
 21
11.7625
 31
0.0
  0
LINE
  8
0
 62
0
 10
-35.575
 20
11.7625
 30
0.0
 11
-35.575
 21
-2.2375
 31
0.0
  0
LINE
  8
0
 62
0
 10
-154.925
 20
-2.2375
 30
0.0
 11
-154.925
 21
11.7625
 31
0.0
  0
LINE
  8
0
 62
0
 10
-168.925
 20
-2.2375
 30
0.0
 11
-154.925
 21
-2.2375
 31
0.0
  0
LINE
  8
0
 62
0
 10
-154.925
 20
11.7625
 30
0.0
 11
-168.925
 21
11.7625
 31
0.0
  0
LINE
  8
0
 62
0
 10
-168.925
 20
11.7625
 30
0.0
 11
-168.925
 21
-2.2375
 31
0.0
  0
LINE
  8
0
 62
0
 10
-133.20625
 20
-7.2875
 30
0.0
 11
-133.20625
 21
-21.2875
 31
0.0
  0
LINE
  8
0
 62
0
 10
-119.20625
 20
-7.2875
 30
0.0
 11
-133.20625
 21
-7.2875
 31
0.0
  0
LINE
  8
0
 62
0
 10
-133.20625
 20
-21.2875
 30
0.0
 11
-119.20625
 21
-21.2875
 31
0.0
  0
LINE
  8
0
 62
0
 10
-119.20625
 20
-21.2875
 30
0.0
 11
-119.20625
 21
-7.2875
 31
0.0
  0
LINE
  8
0
 62
0
 10
-68.9125
 20
-21.2875
 30
0.0
 11
-54.9125
 21
-21.2875
 31
0.0
  0
LINE
  8
0
 62
0
 10
-68.9125
 20
-7.2875
 30
0.0
 11
-68.9125
 21
-21.2875
 31
0.0
  0
LINE
  8
0
 62
0
 10
-54.9125
 20
-21.2875
 30
0.0
 11
-54.9125
 21
-7.2875
 31
0.0
  0
LINE
  8
0
 62
0
 10
-54.9125
 20
-7.2875
 30
0.0
 11
-68.9125
 21
-7.2875
 31
0.0
  0
LINE
  8
0
 62
0
 10
40.625
 20
11.7625
 30
0.0
 11
40.625
 21
-2.2375
 31
0.0
  0
LINE
  8
0
 62
0
 10
54.625
 20
11.7625
 30
0.0
 11
40.625
 21
11.7625
 31
0.0
  0
LINE
  8
0
 62
0
 10
40.625
 20
-2.2375
 30
0.0
 11
54.625
 21
-2.2375
 31
0.0
  0
LINE
  8
0
 62
0
 10
54.625
 20
-2.2375
 30
0.0
 11
54.625
 21
11.7625
 31
0.0
  0
LINE
  8
0
 62
0
 10
-140.35
 20
45.3875
 30
0.0
 11
-126.35
 21
45.3875
 31
0.0
  0
LINE
  8
0
 62
0
 10
-140.35
 20
59.3875
 30
0.0
 11
-140.35
 21
45.3875
 31
0.0
  0
LINE
  8
0
 62
0
 10
-126.35
 20
45.3875
 30
0.0
 11
-126.35
 21
59.3875
 31
0.0
  0
LINE
  8
0
 62
0
 10
-126.35
 20
59.3875
 30
0.0
 11
-140.35
 21
59.3875
 31
0.0
  0
LINE
  8
0
 62
0
 10
-63.55625
 20
-45.9875
 30
0.0
 11
-60.25625
 21
-45.9875
 31
0.0
  0
LINE
  8
0
 62
0
 10
-63.55625
 20
-60.1375
 30
0.0
 11
-63.55625
 21
-45.9875
 31
0.0
  0
LINE
  8
0
 62
0
 10
-60.25625
 20
-45.9875
 30
0.0
 11
-60.25625
 21
-60.1375
 31
0.0
  0
LINE
  8
0
 62
0
 10
-60.25625
 20
-60.1375
 30
0.0
 11
-63.55625
 21
-60.1375
 31
0.0
  0
LINE
  8
0
 62
0
 10
-126.35
 20
30.8125
 30
0.0
 11
-140.35
 21
30.8125
 31
0.0
  0
LINE
  8
0
 62
0
 10
-126.35
 20
16.8125
 30
0.0
 11
-126.35
 21
30.8125
 31
0.0
  0
LINE
  8
0
 62
0
 10
-140.35
 20
30.8125
 30
0.0
 11
-140.35
 21
16.8125
 31
0.0
  0
LINE
  8
0
 62
0
 10
-140.35
 20
16.8125
 30
0.0
 11
-126.35
 21
16.8125
 31
0.0
  0
LINE
  8
0
 62
0
 10
168.925
 20
-7.2875
 30
0.0
 11
154.925
 21
-7.2875
 31
0.0
  0
LINE
  8
0
 62
0
 10
168.925
 20
-21.2875
 30
0.0
 11
168.925
 21
-7.2875
 31
0.0
  0
LINE
  8
0
 62
0
 10
154.925
 20
-7.2875
 30
0.0
 11
154.925
 21
-21.2875
 31
0.0
  0
LINE
  8
0
 62
0
 10
154.925
 20
-21.2875
 30
0.0
 11
168.925
 21
-21.2875
 31
0.0
  0
LINE
  8
0
 62
0
 10
168.925
 20
-2.2375
 30
0.0
 11
168.925
 21
11.7625
 31
0.0
  0
LINE
  8
0
 62
0
 10
154.925
 20
-2.2375
 30
0.0
 11
168.925
 21
-2.2375
 31
0.0
  0
LINE
  8
0
 62
0
 10
168.925
 20
11.7625
 30
0.0
 11
154.925
 21
11.7625
 31
0.0
  0
LINE
  8
0
 62
0
 10
154.925
 20
11.7625
 30
0.0
 11
154.925
 21
-2.2375
 31
0.0
  0
LINE
  8
0
 62
0
 10
26.05
 20
16.8125
 30
0.0
 11
26.05
 21
30.8125
 31
0.0
  0
LINE
  8
0
 62
0
 10
12.05
 20
16.8125
 30
0.0
 11
26.05
 21
16.8125
 31
0.0
  0
LINE
  8
0
 62
0
 10
26.05
 20
30.8125
 30
0.0
 11
12.05
 21
30.8125
 31
0.0
  0
LINE
  8
0
 62
0
 10
12.05
 20
30.8125
 30
0.0
 11
12.05
 21
16.8125
 31
0.0
  0
LINE
  8
0
 62
0
 10
-83.4875
 20
-26.3375
 30
0.0
 11
-97.4875
 21
-26.3375
 31
0.0
  0
LINE
  8
0
 62
0
 10
-83.4875
 20
-40.3375
 30
0.0
 11
-83.4875
 21
-26.3375
 31
0.0
  0
LINE
  8
0
 62
0
 10
-97.4875
 20
-26.3375
 30
0.0
 11
-97.4875
 21
-40.3375
 31
0.0
  0
LINE
  8
0
 62
0
 10
-97.4875
 20
-40.3375
 30
0.0
 11
-83.4875
 21
-40.3375
 31
0.0
  0
LINE
  8
0
 62
0
 10
30.8125
 20
-26.3375
 30
0.0
 11
16.8125
 21
-26.3375
 31
0.0
  0
LINE
  8
0
 62
0
 10
30.8125
 20
-40.3375
 30
0.0
 11
30.8125
 21
-26.3375
 31
0.0
  0
LINE
  8
0
 62
0
 10
16.8125
 20
-26.3375
 30
0.0
 11
16.8125
 21
-40.3375
 31
0.0
  0
LINE
  8
0
 62
0
 10
16.8125
 20
-40.3375
 30
0.0
 11
30.8125
 21
-40.3375
 31
0.0
  0
LINE
  8
0
 62
0
 10
78.725
 20
-2.2375
 30
0.0
 11
92.725
 21
-2.2375
 31
0.0
  0
LINE
  8
0
 62
0
 10
78.725
 20
11.7625
 30
0.0
 11
78.725
 21
-2.2375
 31
0.0
  0
LINE
  8
0
 62
0
 10
92.725
 20
-2.2375
 30
0.0
 11
92.725
 21
11.7625
 31
0.0
  0
LINE
  8
0
 62
0
 10
92.725
 20
11.7625
 30
0.0
 11
78.725
 21
11.7625
 31
0.0
  0
LINE
  8
0
 62
0
 10
-31.1
 20
59.3875
 30
0.0
 11
-45.1
 21
59.3875
 31
0.0
  0
LINE
  8
0
 62
0
 10
-31.1
 20
45.3875
 30
0.0
 11
-31.1
 21
59.3875
 31
0.0
  0
LINE
  8
0
 62
0
 10
-45.1
 20
59.3875
 30
0.0
 11
-45.1
 21
45.3875
 31
0.0
  0
LINE
  8
0
 62
0
 10
-45.1
 20
45.3875
 30
0.0
 11
-31.1
 21
45.3875
 31
0.0
  0
LINE
  8
0
 62
0
 10
100.15625
 20
-45.3875
 30
0.0
 11
100.15625
 21
-59.3875
 31
0.0
  0
LINE
  8
0
 62
0
 10
114.15625
 20
-45.3875
 30
0.0
 11
100.15625
 21
-45.3875
 31
0.0
  0
LINE
  8
0
 62
0
 10
100.15625
 20
-59.3875
 30
0.0
 11
114.15625
 21
-59.3875
 31
0.0
  0
LINE
  8
0
 62
0
 10
114.15625
 20
-59.3875
 30
0.0
 11
114.15625
 21
-45.3875
 31
0.0
  0
LINE
  8
0
 62
0
 10
35.575
 20
-2.2375
 30
0.0
 11
35.575
 21
11.7625
 31
0.0
  0
LINE
  8
0
 62
0
 10
21.575
 20
-2.2375
 30
0.0
 11
35.575
 21
-2.2375
 31
0.0
  0
LINE
  8
0
 62
0
 10
35.575
 20
11.7625
 30
0.0
 11
21.575
 21
11.7625
 31
0.0
  0
LINE
  8
0
 62
0
 10
21.575
 20
11.7625
 30
0.0
 11
21.575
 21
-2.2375
 31
0.0
  0
LINE
  8
0
 62
0
 10
-30.8125
 20
-7.2875
 30
0.0
 11
-30.8125
 21
-21.2875
 31
0.0
  0
LINE
  8
0
 62
0
 10
-16.8125
 20
-7.2875
 30
0.0
 11
-30.8125
 21
-7.2875
 31
0.0
  0
LINE
  8
0
 62
0
 10
-30.8125
 20
-21.2875
 30
0.0
 11
-16.8125
 21
-21.2875
 31
0.0
  0
LINE
  8
0
 62
0
 10
-16.8125
 20
-21.2875
 30
0.0
 11
-16.8125
 21
-7.2875
 31
0.0
  0
LINE
  8
0
 62
0
 10
-21.2875
 20
-26.3375
 30
0.0
 11
-21.2875
 21
-40.3375
 31
0.0
  0
LINE
  8
0
 62
0
 10
-7.2875
 20
-26.3375
 30
0.0
 11
-21.2875
 21
-26.3375
 31
0.0
  0
LINE
  8
0
 62
0
 10
-21.2875
 20
-40.3375
 30
0.0
 11
-7.2875
 21
-40.3375
 31
0.0
  0
LINE
  8
0
 62
0
 10
-7.2875
 20
-40.3375
 30
0.0
 11
-7.2875
 21
-26.3375
 31
0.0
  0
LINE
  8
0
 62
0
 10
168.925
 20
-59.3875
 30
0.0
 11
168.925
 21
-45.3875
 31
0.0
  0
LINE
  8
0
 62
0
 10
168.925
 20
-45.3875
 30
0.0
 11
154.925
 21
-45.3875
 31
0.0
  0
LINE
  8
0
 62
0
 10
154.925
 20
-45.3875
 30
0.0
 11
154.925
 21
-59.3875
 31
0.0
  0
LINE
  8
0
 62
0
 10
154.925
 20
-59.3875
 30
0.0
 11
168.925
 21
-59.3875
 31
0.0
  0
LINE
  8
0
 62
0
 10
73.9625
 20
-40.3375
 30
0.0
 11
87.9625
 21
-40.3375
 31
0.0
  0
LINE
  8
0
 62
0
 10
73.9625
 20
-26.3375
 30
0.0
 11
73.9625
 21
-40.3375
 31
0.0
  0
LINE
  8
0
 62
0
 10
87.9625
 20
-40.3375
 30
0.0
 11
87.9625
 21
-26.3375
 31
0.0
  0
LINE
  8
0
 62
0
 10
87.9625
 20
-26.3375
 30
0.0
 11
73.9625
 21
-26.3375
 31
0.0
  0
LINE
  8
0
 62
0
 10
-135.04375
 20
-26.9375
 30
0.0
 11
-131.74375
 21
-26.9375
 31
0.0
  0
LINE
  8
0
 62
0
 10
-135.04375
 20
-41.0875
 30
0.0
 11
-135.04375
 21
-26.9375
 31
0.0
  0
LINE
  8
0
 62
0
 10
-131.74375
 20
-26.9375
 30
0.0
 11
-131.74375
 21
-41.0875
 31
0.0
  0
LINE
  8
0
 62
0
 10
-131.74375
 20
-41.0875
 30
0.0
 11
-135.04375
 21
-41.0875
 31
0.0
  0
LINE
  8
0
 62
0
 10
-50.15
 20
45.3875
 30
0.0
 11
-50.15
 21
59.3875
 31
0.0
  0
LINE
  8
0
 62
0
 10
-64.15
 20
45.3875
 30
0.0
 11
-50.15
 21
45.3875
 31
0.0
  0
LINE
  8
0
 62
0
 10
-50.15
 20
59.3875
 30
0.0
 11
-64.15
 21
59.3875
 31
0.0
  0
LINE
  8
0
 62
0
 10
-64.15
 20
59.3875
 30
0.0
 11
-64.15
 21
45.3875
 31
0.0
  0
LINE
  8
0
 62
0
 10
-100.15625
 20
-45.3875
 30
0.0
 11
-114.15625
 21
-45.3875
 31
0.0
  0
LINE
  8
0
 62
0
 10
-100.15625
 20
-59.3875
 30
0.0
 11
-100.15625
 21
-45.3875
 31
0.0
  0
LINE
  8
0
 62
0
 10
-114.15625
 20
-45.3875
 30
0.0
 11
-114.15625
 21
-59.3875
 31
0.0
  0
LINE
  8
0
 62
0
 10
-114.15625
 20
-59.3875
 30
0.0
 11
-100.15625
 21
-59.3875
 31
0.0
  0
LINE
  8
0
 62
0
 10
76.34375
 20
-59.3875
 30
0.0
 11
90.34375
 21
-59.3875
 31
0.0
  0
LINE
  8
0
 62
0
 10
76.34375
 20
-45.3875
 30
0.0
 11
76.34375
 21
-59.3875
 31
0.0
  0
LINE
  8
0
 62
0
 10
90.34375
 20
-59.3875
 30
0.0
 11
90.34375
 21
-45.3875
 31
0.0
  0
LINE
  8
0
 62
0
 10
90.34375
 20
-45.3875
 30
0.0
 11
76.34375
 21
-45.3875
 31
0.0
  0
LINE
  8
0
 62
0
 10
31.1
 20
16.8125
 30
0.0
 11
45.1
 21
16.8125
 31
0.0
  0
LINE
  8
0
 62
0
 10
31.1
 20
30.8125
 30
0.0
 11
31.1
 21
16.8125
 31
0.0
  0
LINE
  8
0
 62
0
 10
45.1
 20
16.8125
 30
0.0
 11
45.1
 21
30.8125
 31
0.0
  0
LINE
  8
0
 62
0
 10
45.1
 20
30.8125
 30
0.0
 11
31.1
 21
30.8125
 31
0.0
  0
LINE
  8
0
 62
0
 10
-137.96875
 20
-59.3875
 30
0.0
 11
-123.96875
 21
-59.3875
 31
0.0
  0
LINE
  8
0
 62
0
 10
-137.96875
 20
-45.3875
 30
0.0
 11
-137.96875
 21
-59.3875
 31
0.0
  0
LINE
  8
0
 62
0
 10
-123.96875
 20
-59.3875
 30
0.0
 11
-123.96875
 21
-45.3875
 31
0.0
  0
LINE
  8
0
 62
0
 10
-123.96875
 20
-45.3875
 30
0.0
 11
-137.96875
 21
-45.3875
 31
0.0
  0
LINE
  8
0
 62
0
 10
130.28125
 20
-26.9375
 30
0.0
 11
126.98125
 21
-26.9375
 31
0.0
  0
LINE
  8
0
 62
0
 10
130.28125
 20
-41.0875
 30
0.0
 11
130.28125
 21
-26.9375
 31
0.0
  0
LINE
  8
0
 62
0
 10
126.98125
 20
-26.9375
 30
0.0
 11
126.98125
 21
-41.0875
 31
0.0
  0
LINE
  8
0
 62
0
 10
126.98125
 20
-41.0875
 30
0.0
 11
130.28125
 21
-41.0875
 31
0.0
  0
LINE
  8
0
 62
0
 10
135.5875
 20
2.2375
 30
0.0
 11
121.5875
 21
2.2375
 31
0.0
  0
LINE
  8
0
 62
0
 10
135.5875
 20
-11.7625
 30
0.0
 11
135.5875
 21
2.2375
 31
0.0
  0
LINE
  8
0
 62
0
 10
121.5875
 20
2.2375
 30
0.0
 11
121.5875
 21
-11.7625
 31
0.0
  0
LINE
  8
0
 62
0
 10
121.5875
 20
-11.7625
 30
0.0
 11
135.5875
 21
-11.7625
 31
0.0
  0
LINE
  8
0
 62
0
 10
-18.90625
 20
-59.3875
 30
0.0
 11
-4.90625
 21
-59.3875
 31
0.0
  0
LINE
  8
0
 62
0
 10
-18.90625
 20
-45.3875
 30
0.0
 11
-18.90625
 21
-59.3875
 31
0.0
  0
LINE
  8
0
 62
0
 10
-4.90625
 20
-59.3875
 30
0.0
 11
-4.90625
 21
-45.3875
 31
0.0
  0
LINE
  8
0
 62
0
 10
-4.90625
 20
-45.3875
 30
0.0
 11
-18.90625
 21
-45.3875
 31
0.0
  0
LINE
  8
0
 62
0
 10
-107.0125
 20
-7.2875
 30
0.0
 11
-107.0125
 21
-21.2875
 31
0.0
  0
LINE
  8
0
 62
0
 10
-93.0125
 20
-7.2875
 30
0.0
 11
-107.0125
 21
-7.2875
 31
0.0
  0
LINE
  8
0
 62
0
 10
-107.0125
 20
-21.2875
 30
0.0
 11
-93.0125
 21
-21.2875
 31
0.0
  0
LINE
  8
0
 62
0
 10
-93.0125
 20
-21.2875
 30
0.0
 11
-93.0125
 21
-7.2875
 31
0.0
  0
LINE
  8
0
 62
0
 10
103.08125
 20
-41.0875
 30
0.0
 11
103.08125
 21
-26.9375
 31
0.0
  0
LINE
  8
0
 62
0
 10
106.38125
 20
-41.0875
 30
0.0
 11
103.08125
 21
-41.0875
 31
0.0
  0
LINE
  8
0
 62
0
 10
103.08125
 20
-26.9375
 30
0.0
 11
106.38125
 21
-26.9375
 31
0.0
  0
LINE
  8
0
 62
0
 10
106.38125
 20
-26.9375
 30
0.0
 11
106.38125
 21
-41.0875
 31
0.0
  0
LINE
  8
0
 62
0
 10
-107.3
 20
16.8125
 30
0.0
 11
-107.3
 21
30.8125
 31
0.0
  0
LINE
  8
0
 62
0
 10
-121.3
 20
16.8125
 30
0.0
 11
-107.3
 21
16.8125
 31
0.0
  0
LINE
  8
0
 62
0
 10
-107.3
 20
30.8125
 30
0.0
 11
-121.3
 21
30.8125
 31
0.0
  0
LINE
  8
0
 62
0
 10
-121.3
 20
30.8125
 30
0.0
 11
-121.3
 21
16.8125
 31
0.0
  0
LINE
  8
0
 62
0
 10
120.8375
 20
-18.3625
 30
0.0
 11
134.9875
 21
-18.3625
 31
0.0
  0
LINE
  8
0
 62
0
 10
120.8375
 20
-15.0625
 30
0.0
 11
120.8375
 21
-18.3625
 31
0.0
  0
LINE
  8
0
 62
0
 10
134.9875
 20
-18.3625
 30
0.0
 11
134.9875
 21
-15.0625
 31
0.0
  0
LINE
  8
0
 62
0
 10
134.9875
 20
-15.0625
 30
0.0
 11
120.8375
 21
-15.0625
 31
0.0
  0
LINE
  8
0
 62
0
 10
83.2
 20
45.3875
 30
0.0
 11
83.2
 21
59.3875
 31
0.0
  0
LINE
  8
0
 62
0
 10
69.2
 20
45.3875
 30
0.0
 11
83.2
 21
45.3875
 31
0.0
  0
LINE
  8
0
 62
0
 10
83.2
 20
59.3875
 30
0.0
 11
69.2
 21
59.3875
 31
0.0
  0
LINE
  8
0
 62
0
 10
69.2
 20
59.3875
 30
0.0
 11
69.2
 21
45.3875
 31
0.0
  0
LINE
  8
0
 62
0
 10
-26.05
 20
30.8125
 30
0.0
 11
-26.05
 21
16.8125
 31
0.0
  0
LINE
  8
0
 62
0
 10
-12.05
 20
30.8125
 30
0.0
 11
-26.05
 21
30.8125
 31
0.0
  0
LINE
  8
0
 62
0
 10
-26.05
 20
16.8125
 30
0.0
 11
-12.05
 21
16.8125
 31
0.0
  0
LINE
  8
0
 62
0
 10
-12.05
 20
16.8125
 30
0.0
 11
-12.05
 21
30.8125
 31
0.0
  0
LINE
  8
0
 62
0
 10
-40.3375
 20
-40.3375
 30
0.0
 11
-26.3375
 21
-40.3375
 31
0.0
  0
LINE
  8
0
 62
0
 10
-40.3375
 20
-26.3375
 30
0.0
 11
-40.3375
 21
-40.3375
 31
0.0
  0
LINE
  8
0
 62
0
 10
-26.3375
 20
-40.3375
 30
0.0
 11
-26.3375
 21
-26.3375
 31
0.0
  0
LINE
  8
0
 62
0
 10
-26.3375
 20
-26.3375
 30
0.0
 11
-40.3375
 21
-26.3375
 31
0.0
  0
LINE
  8
0
 62
0
 10
154.925
 20
-40.3375
 30
0.0
 11
168.925
 21
-40.3375
 31
0.0
  0
LINE
  8
0
 62
0
 10
154.925
 20
-26.3375
 30
0.0
 11
154.925
 21
-40.3375
 31
0.0
  0
LINE
  8
0
 62
0
 10
168.925
 20
-40.3375
 30
0.0
 11
168.925
 21
-26.3375
 31
0.0
  0
LINE
  8
0
 62
0
 10
168.925
 20
-26.3375
 30
0.0
 11
154.925
 21
-26.3375
 31
0.0
  0
LINE
  8
0
 62
0
 10
121.3
 20
16.8125
 30
0.0
 11
121.3
 21
30.8125
 31
0.0
  0
LINE
  8
0
 62
0
 10
107.3
 20
16.8125
 30
0.0
 11
121.3
 21
16.8125
 31
0.0
  0
LINE
  8
0
 62
0
 10
121.3
 20
30.8125
 30
0.0
 11
107.3
 21
30.8125
 31
0.0
  0
LINE
  8
0
 62
0
 10
107.3
 20
30.8125
 30
0.0
 11
107.3
 21
16.8125
 31
0.0
  0
LINE
  8
0
 62
0
 10
102.25
 20
59.3875
 30
0.0
 11
88.25
 21
59.3875
 31
0.0
  0
LINE
  8
0
 62
0
 10
102.25
 20
45.3875
 30
0.0
 11
102.25
 21
59.3875
 31
0.0
  0
LINE
  8
0
 62
0
 10
88.25
 20
59.3875
 30
0.0
 11
88.25
 21
45.3875
 31
0.0
  0
LINE
  8
0
 62
0
 10
88.25
 20
45.3875
 30
0.0
 11
102.25
 21
45.3875
 31
0.0
  0
LINE
  8
0
 62
0
 10
-168.925
 20
-26.3375
 30
0.0
 11
-168.925
 21
-40.3375
 31
0.0
  0
LINE
  8
0
 62
0
 10
-154.925
 20
-26.3375
 30
0.0
 11
-168.925
 21
-26.3375
 31
0.0
  0
LINE
  8
0
 62
0
 10
-168.925
 20
-40.3375
 30
0.0
 11
-154.925
 21
-40.3375
 31
0.0
  0
LINE
  8
0
 62
0
 10
-154.925
 20
-40.3375
 30
0.0
 11
-154.925
 21
-26.3375
 31
0.0
  0
LINE
  8
0
 62
0
 10
-107.84375
 20
-41.0875
 30
0.0
 11
-107.84375
 21
-26.9375
 31
0.0
  0
LINE
  8
0
 62
0
 10
-111.14375
 20
-41.0875
 30
0.0
 11
-107.84375
 21
-41.0875
 31
0.0
  0
LINE
  8
0
 62
0
 10
-107.84375
 20
-26.9375
 30
0.0
 11
-111.14375
 21
-26.9375
 31
0.0
  0
LINE
  8
0
 62
0
 10
-111.14375
 20
-26.9375
 30
0.0
 11
-111.14375
 21
-41.0875
 31
0.0
  0
LINE
  8
0
 62
0
 10
54.9125
 20
-26.3375
 30
0.0
 11
54.9125
 21
-40.3375
 31
0.0
  0
LINE
  8
0
 62
0
 10
68.9125
 20
-26.3375
 30
0.0
 11
54.9125
 21
-26.3375
 31
0.0
  0
LINE
  8
0
 62
0
 10
54.9125
 20
-40.3375
 30
0.0
 11
68.9125
 21
-40.3375
 31
0.0
  0
LINE
  8
0
 62
0
 10
68.9125
 20
-40.3375
 30
0.0
 11
68.9125
 21
-26.3375
 31
0.0
  0
LINE
  8
0
 62
0
 10
120.8375
 20
5.5375
 30
0.0
 11
120.8375
 21
8.8375
 31
0.0
  0
LINE
  8
0
 62
0
 10
134.9875
 20
5.5375
 30
0.0
 11
120.8375
 21
5.5375
 31
0.0
  0
LINE
  8
0
 62
0
 10
120.8375
 20
8.8375
 30
0.0
 11
134.9875
 21
8.8375
 31
0.0
  0
LINE
  8
0
 62
0
 10
134.9875
 20
8.8375
 30
0.0
 11
134.9875
 21
5.5375
 31
0.0
  0
LINE
  8
0
 62
0
 10
-121.5875
 20
11.7625
 30
0.0
 11
-135.5875
 21
11.7625
 31
0.0
  0
LINE
  8
0
 62
0
 10
-121.5875
 20
-2.2375
 30
0.0
 11
-121.5875
 21
11.7625
 31
0.0
  0
LINE
  8
0
 62
0
 10
-135.5875
 20
11.7625
 30
0.0
 11
-135.5875
 21
-2.2375
 31
0.0
  0
LINE
  8
0
 62
0
 10
-135.5875
 20
-2.2375
 30
0.0
 11
-121.5875
 21
-2.2375
 31
0.0
  0
LINE
  8
0
 62
0
 10
-2.2375
 20
-40.3375
 30
0.0
 11
11.7625
 21
-40.3375
 31
0.0
  0
LINE
  8
0
 62
0
 10
-2.2375
 20
-26.3375
 30
0.0
 11
-2.2375
 21
-40.3375
 31
0.0
  0
LINE
  8
0
 62
0
 10
11.7625
 20
-40.3375
 30
0.0
 11
11.7625
 21
-26.3375
 31
0.0
  0
LINE
  8
0
 62
0
 10
11.7625
 20
-26.3375
 30
0.0
 11
-2.2375
 21
-26.3375
 31
0.0
  0
LINE
  8
0
 62
0
 10
121.3
 20
45.3875
 30
0.0
 11
121.3
 21
59.3875
 31
0.0
  0
LINE
  8
0
 62
0
 10
107.3
 20
45.3875
 30
0.0
 11
121.3
 21
45.3875
 31
0.0
  0
LINE
  8
0
 62
0
 10
121.3
 20
59.3875
 30
0.0
 11
107.3
 21
59.3875
 31
0.0
  0
LINE
  8
0
 62
0
 10
107.3
 20
59.3875
 30
0.0
 11
107.3
 21
45.3875
 31
0.0
  0
ENDBLK
  0
ENDSEC
  0
SECTION
  2
ENTITIES
  0
INSERT
  2
SHAPE
  8
0
 10
0.0
 20
0.0
 30
0.0
  0
ENDSEC
  0
EOF
