  0
SECTION
  2
HEADER
  9
$ACADVER
  1
AC1009
  9
$INSBASE
 10
0.0
 20
0.0
 30
0.0
  9
$EXTMIN
 10
0.0
 20
0.0
 30
0.0
  9
$EXTMAX
 10
0.0
 20
0.0
 30
0.0
  0
ENDSEC
  0
SECTION
  2
TABLES
  0
TABLE
  2
VPORT
 70
0
  0
ENDTAB
  0
TABLE
  2
LTYPE
 70
1
  0
LTYPE
  2
CONTINUOUS
 70
0
  3
Solid line
 72
65
 73
0
 40
0.0
  0
ENDTAB
  0
TABLE
  2
LAYER
 70
1
  0
LAYER
  2
0
 70
64
 62
7
  6
continuous
  0
ENDTAB
  0
TABLE
  2
STYLE
 70
1
  0
STYLE
  2
STANDARD
 70
0
 40
0
 41
1.0
 50
0.0
 71
0
 42
1
 3
ARIAL.TTF
 4

  0
ENDTAB
  0
TABLE
  2
VIEW
 70
0
  0
ENDTAB
  0
ENDSEC
  0
SECTION
  2
BLOCKS
  0
BLOCK
  8
0
  2
SHAPE
 70
0
 10
0.0
 20
0.0
 30
0.0
  3
SHAPE
  0
LINE
  8
0
 62
0
 10
-171.45
 20
-61.9125
 30
0.0
 11
-171.45
 21
61.9125
 31
0.0
  0
LINE
  8
0
 62
0
 10
-171.45
 20
-61.9125
 30
0.0
 11
171.45
 21
-61.9125
 31
0.0
  0
LINE
  8
0
 62
0
 10
-171.45
 20
61.9125
 30
0.0
 11
171.45
 21
61.9125
 31
0.0
  0
LINE
  8
0
 62
0
 10
171.45
 20
-61.9125
 30
0.0
 11
171.45
 21
61.9125
 31
0.0
  0
LINE
  8
0
 62
0
 10
-12.5625
 20
-20.6875
 30
0.0
 11
-11.7625
 21
-20.6875
 31
0.0
  0
LINE
  8
0
 62
0
 10
-12.5625
 20
-7.8875
 30
0.0
 11
-12.5625
 21
-20.6875
 31
0.0
  0
LINE
  8
0
 62
0
 10
-11.7625
 20
-20.6875
 30
0.0
 11
-11.7625
 21
-21.2875
 31
0.0
  0
LINE
  8
0
 62
0
 10
-11.7625
 20
-7.8875
 30
0.0
 11
-12.5625
 21
-7.8875
 31
0.0
  0
LINE
  8
0
 62
0
 10
-11.7625
 20
-21.2875
 30
0.0
 11
2.2375
 21
-21.2875
 31
0.0
  0
LINE
  8
0
 62
0
 10
-11.7625
 20
-7.2875
 30
0.0
 11
-11.7625
 21
-7.8875
 31
0.0
  0
LINE
  8
0
 62
0
 10
2.2375
 20
-21.2875
 30
0.0
 11
2.2375
 21
-20.6875
 31
0.0
  0
LINE
  8
0
 62
0
 10
2.2375
 20
-7.2875
 30
0.0
 11
-11.7625
 21
-7.2875
 31
0.0
  0
LINE
  8
0
 62
0
 10
2.2375
 20
-20.6875
 30
0.0
 11
3.0375
 21
-20.6875
 31
0.0
  0
LINE
  8
0
 62
0
 10
2.2375
 20
-7.8875
 30
0.0
 11
2.2375
 21
-7.2875
 31
0.0
  0
LINE
  8
0
 62
0
 10
3.0375
 20
-20.6875
 30
0.0
 11
3.0375
 21
-7.8875
 31
0.0
  0
LINE
  8
0
 62
0
 10
3.0375
 20
-7.8875
 30
0.0
 11
2.2375
 21
-7.8875
 31
0.0
  0
LINE
  8
0
 62
0
 10
-60.1875
 20
-26.9375
 30
0.0
 11
-60.1875
 21
-39.7375
 31
0.0
  0
LINE
  8
0
 62
0
 10
-59.3875
 20
-26.9375
 30
0.0
 11
-60.1875
 21
-26.9375
 31
0.0
  0
LINE
  8
0
 62
0
 10
-60.1875
 20
-39.7375
 30
0.0
 11
-59.3875
 21
-39.7375
 31
0.0
  0
LINE
  8
0
 62
0
 10
-59.3875
 20
-26.3375
 30
0.0
 11
-59.3875
 21
-26.9375
 31
0.0
  0
LINE
  8
0
 62
0
 10
-59.3875
 20
-39.7375
 30
0.0
 11
-59.3875
 21
-40.3375
 31
0.0
  0
LINE
  8
0
 62
0
 10
-45.3875
 20
-26.3375
 30
0.0
 11
-59.3875
 21
-26.3375
 31
0.0
  0
LINE
  8
0
 62
0
 10
-59.3875
 20
-40.3375
 30
0.0
 11
-45.3875
 21
-40.3375
 31
0.0
  0
LINE
  8
0
 62
0
 10
-45.3875
 20
-26.9375
 30
0.0
 11
-45.3875
 21
-26.3375
 31
0.0
  0
LINE
  8
0
 62
0
 10
-45.3875
 20
-40.3375
 30
0.0
 11
-45.3875
 21
-39.7375
 31
0.0
  0
LINE
  8
0
 62
0
 10
-44.5875
 20
-26.9375
 30
0.0
 11
-45.3875
 21
-26.9375
 31
0.0
  0
LINE
  8
0
 62
0
 10
-45.3875
 20
-39.7375
 30
0.0
 11
-44.5875
 21
-39.7375
 31
0.0
  0
LINE
  8
0
 62
0
 10
-44.5875
 20
-39.7375
 30
0.0
 11
-44.5875
 21
-26.9375
 31
0.0
  0
LINE
  8
0
 62
0
 10
109.68125
 20
-26.3375
 30
0.0
 11
109.68125
 21
-26.9375
 31
0.0
  0
LINE
  8
0
 62
0
 10
123.68125
 20
-26.3375
 30
0.0
 11
109.68125
 21
-26.3375
 31
0.0
  0
LINE
  8
0
 62
0
 10
109.68125
 20
-26.9375
 30
0.0
 11
108.88125
 21
-26.9375
 31
0.0
  0
LINE
  8
0
 62
0
 10
123.68125
 20
-26.9375
 30
0.0
 11
123.68125
 21
-26.3375
 31
0.0
  0
LINE
  8
0
 62
0
 10
108.88125
 20
-26.9375
 30
0.0
 11
108.88125
 21
-28.6075
 31
0.0
  0
LINE
  8
0
 62
0
 10
124.48125
 20
-26.9375
 30
0.0
 11
123.68125
 21
-26.9375
 31
0.0
  0
LINE
  8
0
 62
0
 10
108.88125
 20
-28.6075
 30
0.0
 11
108.10625
 21
-28.6075
 31
0.0
  0
LINE
  8
0
 62
0
 10
124.48125
 20
-28.6075
 30
0.0
 11
124.48125
 21
-26.9375
 31
0.0
  0
LINE
  8
0
 62
0
 10
108.10625
 20
-28.6075
 30
0.0
 11
108.10625
 21
-27.8075
 31
0.0
  0
LINE
  8
0
 62
0
 10
125.25625
 20
-28.6075
 30
0.0
 11
124.48125
 21
-28.6075
 31
0.0
  0
LINE
  8
0
 62
0
 10
108.10625
 20
-27.8075
 30
0.0
 11
106.38125
 21
-27.8075
 31
0.0
  0
LINE
  8
0
 62
0
 10
125.25625
 20
-27.8075
 30
0.0
 11
125.25625
 21
-28.6075
 31
0.0
  0
LINE
  8
0
 62
0
 10
106.38125
 20
-27.8075
 30
0.0
 11
106.38125
 21
-26.9375
 31
0.0
  0
LINE
  8
0
 62
0
 10
126.98125
 20
-27.8075
 30
0.0
 11
125.25625
 21
-27.8075
 31
0.0
  0
LINE
  8
0
 62
0
 10
106.38125
 20
-26.9375
 30
0.0
 11
103.08125
 21
-26.9375
 31
0.0
  0
LINE
  8
0
 62
0
 10
126.98125
 20
-26.9375
 30
0.0
 11
126.98125
 21
-27.8075
 31
0.0
  0
LINE
  8
0
 62
0
 10
103.08125
 20
-26.9375
 30
0.0
 11
103.08125
 21
-27.8075
 31
0.0
  0
LINE
  8
0
 62
0
 10
130.28125
 20
-26.9375
 30
0.0
 11
126.98125
 21
-26.9375
 31
0.0
  0
LINE
  8
0
 62
0
 10
103.08125
 20
-27.8075
 30
0.0
 11
101.45625
 21
-27.8075
 31
0.0
  0
LINE
  8
0
 62
0
 10
130.28125
 20
-27.8075
 30
0.0
 11
130.28125
 21
-26.9375
 31
0.0
  0
LINE
  8
0
 62
0
 10
101.45625
 20
-27.8075
 30
0.0
 11
101.45625
 21
-31.0375
 31
0.0
  0
LINE
  8
0
 62
0
 10
131.90625
 20
-27.8075
 30
0.0
 11
130.28125
 21
-27.8075
 31
0.0
  0
LINE
  8
0
 62
0
 10
101.45625
 20
-31.0375
 30
0.0
 11
100.58125
 21
-31.0375
 31
0.0
  0
LINE
  8
0
 62
0
 10
131.90625
 20
-31.0375
 30
0.0
 11
131.90625
 21
-27.8075
 31
0.0
  0
LINE
  8
0
 62
0
 10
100.58125
 20
-31.0375
 30
0.0
 11
100.58125
 21
-33.8375
 31
0.0
  0
LINE
  8
0
 62
0
 10
132.78125
 20
-31.0375
 30
0.0
 11
131.90625
 21
-31.0375
 31
0.0
  0
LINE
  8
0
 62
0
 10
100.58125
 20
-33.8375
 30
0.0
 11
101.45625
 21
-33.8375
 31
0.0
  0
LINE
  8
0
 62
0
 10
132.78125
 20
-33.8375
 30
0.0
 11
132.78125
 21
-31.0375
 31
0.0
  0
LINE
  8
0
 62
0
 10
101.45625
 20
-33.8375
 30
0.0
 11
101.45625
 21
-40.1075
 31
0.0
  0
LINE
  8
0
 62
0
 10
131.90625
 20
-33.8375
 30
0.0
 11
132.78125
 21
-33.8375
 31
0.0
  0
LINE
  8
0
 62
0
 10
101.45625
 20
-40.1075
 30
0.0
 11
103.08125
 21
-40.1075
 31
0.0
  0
LINE
  8
0
 62
0
 10
131.90625
 20
-40.1075
 30
0.0
 11
131.90625
 21
-33.8375
 31
0.0
  0
LINE
  8
0
 62
0
 10
103.08125
 20
-40.1075
 30
0.0
 11
103.08125
 21
-41.0875
 31
0.0
  0
LINE
  8
0
 62
0
 10
130.28125
 20
-40.1075
 30
0.0
 11
131.90625
 21
-40.1075
 31
0.0
  0
LINE
  8
0
 62
0
 10
103.08125
 20
-41.0875
 30
0.0
 11
106.38125
 21
-41.0875
 31
0.0
  0
LINE
  8
0
 62
0
 10
130.28125
 20
-41.0875
 30
0.0
 11
130.28125
 21
-40.1075
 31
0.0
  0
LINE
  8
0
 62
0
 10
106.38125
 20
-41.0875
 30
0.0
 11
106.38125
 21
-40.1075
 31
0.0
  0
LINE
  8
0
 62
0
 10
126.98125
 20
-41.0875
 30
0.0
 11
130.28125
 21
-41.0875
 31
0.0
  0
LINE
  8
0
 62
0
 10
106.38125
 20
-40.1075
 30
0.0
 11
108.10625
 21
-40.1075
 31
0.0
  0
LINE
  8
0
 62
0
 10
126.98125
 20
-40.1075
 30
0.0
 11
126.98125
 21
-41.0875
 31
0.0
  0
LINE
  8
0
 62
0
 10
108.10625
 20
-40.1075
 30
0.0
 11
108.10625
 21
-39.3075
 31
0.0
  0
LINE
  8
0
 62
0
 10
125.25625
 20
-40.1075
 30
0.0
 11
126.98125
 21
-40.1075
 31
0.0
  0
LINE
  8
0
 62
0
 10
108.10625
 20
-39.3075
 30
0.0
 11
108.88125
 21
-39.3075
 31
0.0
  0
LINE
  8
0
 62
0
 10
125.25625
 20
-39.3075
 30
0.0
 11
125.25625
 21
-40.1075
 31
0.0
  0
LINE
  8
0
 62
0
 10
108.88125
 20
-39.3075
 30
0.0
 11
108.88125
 21
-39.7375
 31
0.0
  0
LINE
  8
0
 62
0
 10
124.48125
 20
-39.3075
 30
0.0
 11
125.25625
 21
-39.3075
 31
0.0
  0
LINE
  8
0
 62
0
 10
108.88125
 20
-39.7375
 30
0.0
 11
109.68125
 21
-39.7375
 31
0.0
  0
LINE
  8
0
 62
0
 10
124.48125
 20
-39.7375
 30
0.0
 11
124.48125
 21
-39.3075
 31
0.0
  0
LINE
  8
0
 62
0
 10
109.68125
 20
-39.7375
 30
0.0
 11
109.68125
 21
-40.3375
 31
0.0
  0
LINE
  8
0
 62
0
 10
123.68125
 20
-39.7375
 30
0.0
 11
124.48125
 21
-39.7375
 31
0.0
  0
LINE
  8
0
 62
0
 10
109.68125
 20
-40.3375
 30
0.0
 11
123.68125
 21
-40.3375
 31
0.0
  0
LINE
  8
0
 62
0
 10
123.68125
 20
-40.3375
 30
0.0
 11
123.68125
 21
-39.7375
 31
0.0
  0
LINE
  8
0
 62
0
 10
-31.1
 20
58.7875
 30
0.0
 11
-31.1
 21
59.3875
 31
0.0
  0
LINE
  8
0
 62
0
 10
-30.3
 20
58.7875
 30
0.0
 11
-31.1
 21
58.7875
 31
0.0
  0
LINE
  8
0
 62
0
 10
-31.1
 20
59.3875
 30
0.0
 11
-45.1
 21
59.3875
 31
0.0
  0
LINE
  8
0
 62
0
 10
-30.3
 20
45.9875
 30
0.0
 11
-30.3
 21
58.7875
 31
0.0
  0
LINE
  8
0
 62
0
 10
-45.1
 20
59.3875
 30
0.0
 11
-45.1
 21
58.7875
 31
0.0
  0
LINE
  8
0
 62
0
 10
-31.1
 20
45.9875
 30
0.0
 11
-30.3
 21
45.9875
 31
0.0
  0
LINE
  8
0
 62
0
 10
-45.1
 20
58.7875
 30
0.0
 11
-45.9
 21
58.7875
 31
0.0
  0
LINE
  8
0
 62
0
 10
-31.1
 20
45.3875
 30
0.0
 11
-31.1
 21
45.9875
 31
0.0
  0
LINE
  8
0
 62
0
 10
-45.9
 20
58.7875
 30
0.0
 11
-45.9
 21
45.9875
 31
0.0
  0
LINE
  8
0
 62
0
 10
-45.1
 20
45.3875
 30
0.0
 11
-31.1
 21
45.3875
 31
0.0
  0
LINE
  8
0
 62
0
 10
-45.9
 20
45.9875
 30
0.0
 11
-45.1
 21
45.9875
 31
0.0
  0
LINE
  8
0
 62
0
 10
-45.1
 20
45.9875
 30
0.0
 11
-45.1
 21
45.3875
 31
0.0
  0
LINE
  8
0
 62
0
 10
-6.4875
 20
-26.9375
 30
0.0
 11
-7.2875
 21
-26.9375
 31
0.0
  0
LINE
  8
0
 62
0
 10
-6.4875
 20
-39.7375
 30
0.0
 11
-6.4875
 21
-26.9375
 31
0.0
  0
LINE
  8
0
 62
0
 10
-7.2875
 20
-26.9375
 30
0.0
 11
-7.2875
 21
-26.3375
 31
0.0
  0
LINE
  8
0
 62
0
 10
-7.2875
 20
-39.7375
 30
0.0
 11
-6.4875
 21
-39.7375
 31
0.0
  0
LINE
  8
0
 62
0
 10
-7.2875
 20
-26.3375
 30
0.0
 11
-21.2875
 21
-26.3375
 31
0.0
  0
LINE
  8
0
 62
0
 10
-7.2875
 20
-40.3375
 30
0.0
 11
-7.2875
 21
-39.7375
 31
0.0
  0
LINE
  8
0
 62
0
 10
-21.2875
 20
-26.3375
 30
0.0
 11
-21.2875
 21
-26.9375
 31
0.0
  0
LINE
  8
0
 62
0
 10
-21.2875
 20
-40.3375
 30
0.0
 11
-7.2875
 21
-40.3375
 31
0.0
  0
LINE
  8
0
 62
0
 10
-21.2875
 20
-26.9375
 30
0.0
 11
-22.0875
 21
-26.9375
 31
0.0
  0
LINE
  8
0
 62
0
 10
-21.2875
 20
-39.7375
 30
0.0
 11
-21.2875
 21
-40.3375
 31
0.0
  0
LINE
  8
0
 62
0
 10
-22.0875
 20
-26.9375
 30
0.0
 11
-22.0875
 21
-39.7375
 31
0.0
  0
LINE
  8
0
 62
0
 10
-22.0875
 20
-39.7375
 30
0.0
 11
-21.2875
 21
-39.7375
 31
0.0
  0
LINE
  8
0
 62
0
 10
-21.575
 20
-2.2375
 30
0.0
 11
-21.575
 21
-1.6375
 31
0.0
  0
LINE
  8
0
 62
0
 10
-35.575
 20
-2.2375
 30
0.0
 11
-21.575
 21
-2.2375
 31
0.0
  0
LINE
  8
0
 62
0
 10
-21.575
 20
-1.6375
 30
0.0
 11
-20.775
 21
-1.6375
 31
0.0
  0
LINE
  8
0
 62
0
 10
-35.575
 20
-1.6375
 30
0.0
 11
-35.575
 21
-2.2375
 31
0.0
  0
LINE
  8
0
 62
0
 10
-20.775
 20
-1.6375
 30
0.0
 11
-20.775
 21
11.1625
 31
0.0
  0
LINE
  8
0
 62
0
 10
-36.375
 20
-1.6375
 30
0.0
 11
-35.575
 21
-1.6375
 31
0.0
  0
LINE
  8
0
 62
0
 10
-20.775
 20
11.1625
 30
0.0
 11
-21.575
 21
11.1625
 31
0.0
  0
LINE
  8
0
 62
0
 10
-36.375
 20
11.1625
 30
0.0
 11
-36.375
 21
-1.6375
 31
0.0
  0
LINE
  8
0
 62
0
 10
-21.575
 20
11.1625
 30
0.0
 11
-21.575
 21
11.7625
 31
0.0
  0
LINE
  8
0
 62
0
 10
-35.575
 20
11.1625
 30
0.0
 11
-36.375
 21
11.1625
 31
0.0
  0
LINE
  8
0
 62
0
 10
-21.575
 20
11.7625
 30
0.0
 11
-35.575
 21
11.7625
 31
0.0
  0
LINE
  8
0
 62
0
 10
-35.575
 20
11.7625
 30
0.0
 11
-35.575
 21
11.1625
 31
0.0
  0
LINE
  8
0
 62
0
 10
59.3875
 20
-7.2875
 30
0.0
 11
45.3875
 21
-7.2875
 31
0.0
  0
LINE
  8
0
 62
0
 10
59.3875
 20
-7.8875
 30
0.0
 11
59.3875
 21
-7.2875
 31
0.0
  0
LINE
  8
0
 62
0
 10
45.3875
 20
-7.2875
 30
0.0
 11
45.3875
 21
-7.8875
 31
0.0
  0
LINE
  8
0
 62
0
 10
60.1875
 20
-7.8875
 30
0.0
 11
59.3875
 21
-7.8875
 31
0.0
  0
LINE
  8
0
 62
0
 10
45.3875
 20
-7.8875
 30
0.0
 11
44.5875
 21
-7.8875
 31
0.0
  0
LINE
  8
0
 62
0
 10
60.1875
 20
-20.6875
 30
0.0
 11
60.1875
 21
-7.8875
 31
0.0
  0
LINE
  8
0
 62
0
 10
44.5875
 20
-7.8875
 30
0.0
 11
44.5875
 21
-20.6875
 31
0.0
  0
LINE
  8
0
 62
0
 10
59.3875
 20
-20.6875
 30
0.0
 11
60.1875
 21
-20.6875
 31
0.0
  0
LINE
  8
0
 62
0
 10
44.5875
 20
-20.6875
 30
0.0
 11
45.3875
 21
-20.6875
 31
0.0
  0
LINE
  8
0
 62
0
 10
59.3875
 20
-21.2875
 30
0.0
 11
59.3875
 21
-20.6875
 31
0.0
  0
LINE
  8
0
 62
0
 10
45.3875
 20
-20.6875
 30
0.0
 11
45.3875
 21
-21.2875
 31
0.0
  0
LINE
  8
0
 62
0
 10
45.3875
 20
-21.2875
 30
0.0
 11
59.3875
 21
-21.2875
 31
0.0
  0
LINE
  8
0
 62
0
 10
-137.96875
 20
-45.3875
 30
0.0
 11
-137.96875
 21
-45.9875
 31
0.0
  0
LINE
  8
0
 62
0
 10
-123.96875
 20
-45.3875
 30
0.0
 11
-137.96875
 21
-45.3875
 31
0.0
  0
LINE
  8
0
 62
0
 10
-137.96875
 20
-45.9875
 30
0.0
 11
-138.76875
 21
-45.9875
 31
0.0
  0
LINE
  8
0
 62
0
 10
-123.96875
 20
-45.9875
 30
0.0
 11
-123.96875
 21
-45.3875
 31
0.0
  0
LINE
  8
0
 62
0
 10
-138.76875
 20
-45.9875
 30
0.0
 11
-138.76875
 21
-58.7875
 31
0.0
  0
LINE
  8
0
 62
0
 10
-123.16875
 20
-45.9875
 30
0.0
 11
-123.96875
 21
-45.9875
 31
0.0
  0
LINE
  8
0
 62
0
 10
-138.76875
 20
-58.7875
 30
0.0
 11
-137.96875
 21
-58.7875
 31
0.0
  0
LINE
  8
0
 62
0
 10
-123.16875
 20
-58.7875
 30
0.0
 11
-123.16875
 21
-45.9875
 31
0.0
  0
LINE
  8
0
 62
0
 10
-137.96875
 20
-58.7875
 30
0.0
 11
-137.96875
 21
-59.3875
 31
0.0
  0
LINE
  8
0
 62
0
 10
-123.96875
 20
-58.7875
 30
0.0
 11
-123.16875
 21
-58.7875
 31
0.0
  0
LINE
  8
0
 62
0
 10
-137.96875
 20
-59.3875
 30
0.0
 11
-123.96875
 21
-59.3875
 31
0.0
  0
LINE
  8
0
 62
0
 10
-123.96875
 20
-59.3875
 30
0.0
 11
-123.96875
 21
-58.7875
 31
0.0
  0
LINE
  8
0
 62
0
 10
87.45
 20
17.4125
 30
0.0
 11
88.25
 21
17.4125
 31
0.0
  0
LINE
  8
0
 62
0
 10
87.45
 20
30.2125
 30
0.0
 11
87.45
 21
17.4125
 31
0.0
  0
LINE
  8
0
 62
0
 10
88.25
 20
17.4125
 30
0.0
 11
88.25
 21
16.8125
 31
0.0
  0
LINE
  8
0
 62
0
 10
88.25
 20
30.2125
 30
0.0
 11
87.45
 21
30.2125
 31
0.0
  0
LINE
  8
0
 62
0
 10
88.25
 20
16.8125
 30
0.0
 11
102.25
 21
16.8125
 31
0.0
  0
LINE
  8
0
 62
0
 10
88.25
 20
30.8125
 30
0.0
 11
88.25
 21
30.2125
 31
0.0
  0
LINE
  8
0
 62
0
 10
102.25
 20
16.8125
 30
0.0
 11
102.25
 21
17.4125
 31
0.0
  0
LINE
  8
0
 62
0
 10
102.25
 20
30.8125
 30
0.0
 11
88.25
 21
30.8125
 31
0.0
  0
LINE
  8
0
 62
0
 10
102.25
 20
17.4125
 30
0.0
 11
103.05
 21
17.4125
 31
0.0
  0
LINE
  8
0
 62
0
 10
102.25
 20
30.2125
 30
0.0
 11
102.25
 21
30.8125
 31
0.0
  0
LINE
  8
0
 62
0
 10
103.05
 20
17.4125
 30
0.0
 11
103.05
 21
30.2125
 31
0.0
  0
LINE
  8
0
 62
0
 10
103.05
 20
30.2125
 30
0.0
 11
102.25
 21
30.2125
 31
0.0
  0
LINE
  8
0
 62
0
 10
-17.325
 20
58.7875
 30
0.0
 11
-17.325
 21
45.9875
 31
0.0
  0
LINE
  8
0
 62
0
 10
-16.525
 20
58.7875
 30
0.0
 11
-17.325
 21
58.7875
 31
0.0
  0
LINE
  8
0
 62
0
 10
-17.325
 20
45.9875
 30
0.0
 11
-16.525
 21
45.9875
 31
0.0
  0
LINE
  8
0
 62
0
 10
-16.525
 20
59.3875
 30
0.0
 11
-16.525
 21
58.7875
 31
0.0
  0
LINE
  8
0
 62
0
 10
-16.525
 20
45.9875
 30
0.0
 11
-16.525
 21
45.3875
 31
0.0
  0
LINE
  8
0
 62
0
 10
-2.525
 20
59.3875
 30
0.0
 11
-16.525
 21
59.3875
 31
0.0
  0
LINE
  8
0
 62
0
 10
-16.525
 20
45.3875
 30
0.0
 11
-2.525
 21
45.3875
 31
0.0
  0
LINE
  8
0
 62
0
 10
-2.525
 20
58.7875
 30
0.0
 11
-2.525
 21
59.3875
 31
0.0
  0
LINE
  8
0
 62
0
 10
-2.525
 20
45.3875
 30
0.0
 11
-2.525
 21
45.9875
 31
0.0
  0
LINE
  8
0
 62
0
 10
-1.725
 20
58.7875
 30
0.0
 11
-2.525
 21
58.7875
 31
0.0
  0
LINE
  8
0
 62
0
 10
-2.525
 20
45.9875
 30
0.0
 11
-1.725
 21
45.9875
 31
0.0
  0
LINE
  8
0
 62
0
 10
-1.725
 20
45.9875
 30
0.0
 11
-1.725
 21
58.7875
 31
0.0
  0
LINE
  8
0
 62
0
 10
54.625
 20
45.3875
 30
0.0
 11
54.625
 21
45.9875
 31
0.0
  0
LINE
  8
0
 62
0
 10
40.625
 20
45.3875
 30
0.0
 11
54.625
 21
45.3875
 31
0.0
  0
LINE
  8
0
 62
0
 10
54.625
 20
45.9875
 30
0.0
 11
55.425
 21
45.9875
 31
0.0
  0
LINE
  8
0
 62
0
 10
40.625
 20
45.9875
 30
0.0
 11
40.625
 21
45.3875
 31
0.0
  0
LINE
  8
0
 62
0
 10
55.425
 20
45.9875
 30
0.0
 11
55.425
 21
58.7875
 31
0.0
  0
LINE
  8
0
 62
0
 10
39.825
 20
45.9875
 30
0.0
 11
40.625
 21
45.9875
 31
0.0
  0
LINE
  8
0
 62
0
 10
55.425
 20
58.7875
 30
0.0
 11
54.625
 21
58.7875
 31
0.0
  0
LINE
  8
0
 62
0
 10
39.825
 20
58.7875
 30
0.0
 11
39.825
 21
45.9875
 31
0.0
  0
LINE
  8
0
 62
0
 10
54.625
 20
58.7875
 30
0.0
 11
54.625
 21
59.3875
 31
0.0
  0
LINE
  8
0
 62
0
 10
40.625
 20
58.7875
 30
0.0
 11
39.825
 21
58.7875
 31
0.0
  0
LINE
  8
0
 62
0
 10
54.625
 20
59.3875
 30
0.0
 11
40.625
 21
59.3875
 31
0.0
  0
LINE
  8
0
 62
0
 10
40.625
 20
59.3875
 30
0.0
 11
40.625
 21
58.7875
 31
0.0
  0
LINE
  8
0
 62
0
 10
-7.8
 20
30.2125
 30
0.0
 11
-7.8
 21
17.4125
 31
0.0
  0
LINE
  8
0
 62
0
 10
-7.0
 20
30.2125
 30
0.0
 11
-7.8
 21
30.2125
 31
0.0
  0
LINE
  8
0
 62
0
 10
-7.8
 20
17.4125
 30
0.0
 11
-7.0
 21
17.4125
 31
0.0
  0
LINE
  8
0
 62
0
 10
-7.0
 20
30.8125
 30
0.0
 11
-7.0
 21
30.2125
 31
0.0
  0
LINE
  8
0
 62
0
 10
-7.0
 20
17.4125
 30
0.0
 11
-7.0
 21
16.8125
 31
0.0
  0
LINE
  8
0
 62
0
 10
7.0
 20
30.8125
 30
0.0
 11
-7.0
 21
30.8125
 31
0.0
  0
LINE
  8
0
 62
0
 10
-7.0
 20
16.8125
 30
0.0
 11
7.0
 21
16.8125
 31
0.0
  0
LINE
  8
0
 62
0
 10
7.0
 20
30.2125
 30
0.0
 11
7.0
 21
30.8125
 31
0.0
  0
LINE
  8
0
 62
0
 10
7.0
 20
16.8125
 30
0.0
 11
7.0
 21
17.4125
 31
0.0
  0
LINE
  8
0
 62
0
 10
7.8
 20
30.2125
 30
0.0
 11
7.0
 21
30.2125
 31
0.0
  0
LINE
  8
0
 62
0
 10
7.0
 20
17.4125
 30
0.0
 11
7.8
 21
17.4125
 31
0.0
  0
LINE
  8
0
 62
0
 10
7.8
 20
17.4125
 30
0.0
 11
7.8
 21
30.2125
 31
0.0
  0
LINE
  8
0
 62
0
 10
-118.40625
 20
-7.8875
 30
0.0
 11
-119.20625
 21
-7.8875
 31
0.0
  0
LINE
  8
0
 62
0
 10
-118.40625
 20
-20.6875
 30
0.0
 11
-118.40625
 21
-7.8875
 31
0.0
  0
LINE
  8
0
 62
0
 10
-119.20625
 20
-7.8875
 30
0.0
 11
-119.20625
 21
-7.2875
 31
0.0
  0
LINE
  8
0
 62
0
 10
-119.20625
 20
-20.6875
 30
0.0
 11
-118.40625
 21
-20.6875
 31
0.0
  0
LINE
  8
0
 62
0
 10
-119.20625
 20
-7.2875
 30
0.0
 11
-133.20625
 21
-7.2875
 31
0.0
  0
LINE
  8
0
 62
0
 10
-119.20625
 20
-21.2875
 30
0.0
 11
-119.20625
 21
-20.6875
 31
0.0
  0
LINE
  8
0
 62
0
 10
-133.20625
 20
-7.2875
 30
0.0
 11
-133.20625
 21
-7.8875
 31
0.0
  0
LINE
  8
0
 62
0
 10
-133.20625
 20
-21.2875
 30
0.0
 11
-119.20625
 21
-21.2875
 31
0.0
  0
LINE
  8
0
 62
0
 10
-133.20625
 20
-7.8875
 30
0.0
 11
-134.00625
 21
-7.8875
 31
0.0
  0
LINE
  8
0
 62
0
 10
-133.20625
 20
-20.6875
 30
0.0
 11
-133.20625
 21
-21.2875
 31
0.0
  0
LINE
  8
0
 62
0
 10
-134.00625
 20
-7.8875
 30
0.0
 11
-134.00625
 21
-20.6875
 31
0.0
  0
LINE
  8
0
 62
0
 10
-134.00625
 20
-20.6875
 30
0.0
 11
-133.20625
 21
-20.6875
 31
0.0
  0
LINE
  8
0
 62
0
 10
154.125
 20
-7.8875
 30
0.0
 11
154.125
 21
-20.6875
 31
0.0
  0
LINE
  8
0
 62
0
 10
154.925
 20
-7.8875
 30
0.0
 11
154.125
 21
-7.8875
 31
0.0
  0
LINE
  8
0
 62
0
 10
154.125
 20
-20.6875
 30
0.0
 11
154.925
 21
-20.6875
 31
0.0
  0
LINE
  8
0
 62
0
 10
154.925
 20
-7.2875
 30
0.0
 11
154.925
 21
-7.8875
 31
0.0
  0
LINE
  8
0
 62
0
 10
154.925
 20
-20.6875
 30
0.0
 11
154.925
 21
-21.2875
 31
0.0
  0
LINE
  8
0
 62
0
 10
168.925
 20
-7.2875
 30
0.0
 11
154.925
 21
-7.2875
 31
0.0
  0
LINE
  8
0
 62
0
 10
154.925
 20
-21.2875
 30
0.0
 11
168.925
 21
-21.2875
 31
0.0
  0
LINE
  8
0
 62
0
 10
168.925
 20
-7.8875
 30
0.0
 11
168.925
 21
-7.2875
 31
0.0
  0
LINE
  8
0
 62
0
 10
168.925
 20
-21.2875
 30
0.0
 11
168.925
 21
-20.6875
 31
0.0
  0
LINE
  8
0
 62
0
 10
169.725
 20
-7.8875
 30
0.0
 11
168.925
 21
-7.8875
 31
0.0
  0
LINE
  8
0
 62
0
 10
168.925
 20
-20.6875
 30
0.0
 11
169.725
 21
-20.6875
 31
0.0
  0
LINE
  8
0
 62
0
 10
169.725
 20
-20.6875
 30
0.0
 11
169.725
 21
-7.8875
 31
0.0
  0
LINE
  8
0
 62
0
 10
35.8625
 20
-26.3375
 30
0.0
 11
35.8625
 21
-26.9375
 31
0.0
  0
LINE
  8
0
 62
0
 10
49.8625
 20
-26.3375
 30
0.0
 11
35.8625
 21
-26.3375
 31
0.0
  0
LINE
  8
0
 62
0
 10
35.8625
 20
-26.9375
 30
0.0
 11
35.0625
 21
-26.9375
 31
0.0
  0
LINE
  8
0
 62
0
 10
49.8625
 20
-26.9375
 30
0.0
 11
49.8625
 21
-26.3375
 31
0.0
  0
LINE
  8
0
 62
0
 10
35.0625
 20
-26.9375
 30
0.0
 11
35.0625
 21
-39.7375
 31
0.0
  0
LINE
  8
0
 62
0
 10
50.6625
 20
-26.9375
 30
0.0
 11
49.8625
 21
-26.9375
 31
0.0
  0
LINE
  8
0
 62
0
 10
35.0625
 20
-39.7375
 30
0.0
 11
35.8625
 21
-39.7375
 31
0.0
  0
LINE
  8
0
 62
0
 10
50.6625
 20
-39.7375
 30
0.0
 11
50.6625
 21
-26.9375
 31
0.0
  0
LINE
  8
0
 62
0
 10
35.8625
 20
-39.7375
 30
0.0
 11
35.8625
 21
-40.3375
 31
0.0
  0
LINE
  8
0
 62
0
 10
49.8625
 20
-39.7375
 30
0.0
 11
50.6625
 21
-39.7375
 31
0.0
  0
LINE
  8
0
 62
0
 10
35.8625
 20
-40.3375
 30
0.0
 11
49.8625
 21
-40.3375
 31
0.0
  0
LINE
  8
0
 62
0
 10
49.8625
 20
-40.3375
 30
0.0
 11
49.8625
 21
-39.7375
 31
0.0
  0
LINE
  8
0
 62
0
 10
-76.34375
 20
-45.9875
 30
0.0
 11
-76.34375
 21
-45.3875
 31
0.0
  0
LINE
  8
0
 62
0
 10
-75.54375
 20
-45.9875
 30
0.0
 11
-76.34375
 21
-45.9875
 31
0.0
  0
LINE
  8
0
 62
0
 10
-76.34375
 20
-45.3875
 30
0.0
 11
-90.34375
 21
-45.3875
 31
0.0
  0
LINE
  8
0
 62
0
 10
-75.54375
 20
-58.7875
 30
0.0
 11
-75.54375
 21
-45.9875
 31
0.0
  0
LINE
  8
0
 62
0
 10
-90.34375
 20
-45.3875
 30
0.0
 11
-90.34375
 21
-45.9875
 31
0.0
  0
LINE
  8
0
 62
0
 10
-76.34375
 20
-58.7875
 30
0.0
 11
-75.54375
 21
-58.7875
 31
0.0
  0
LINE
  8
0
 62
0
 10
-90.34375
 20
-45.9875
 30
0.0
 11
-91.14375
 21
-45.9875
 31
0.0
  0
LINE
  8
0
 62
0
 10
-76.34375
 20
-59.3875
 30
0.0
 11
-76.34375
 21
-58.7875
 31
0.0
  0
LINE
  8
0
 62
0
 10
-91.14375
 20
-45.9875
 30
0.0
 11
-91.14375
 21
-58.7875
 31
0.0
  0
LINE
  8
0
 62
0
 10
-90.34375
 20
-59.3875
 30
0.0
 11
-76.34375
 21
-59.3875
 31
0.0
  0
LINE
  8
0
 62
0
 10
-91.14375
 20
-58.7875
 30
0.0
 11
-90.34375
 21
-58.7875
 31
0.0
  0
LINE
  8
0
 62
0
 10
-90.34375
 20
-58.7875
 30
0.0
 11
-90.34375
 21
-59.3875
 31
0.0
  0
LINE
  8
0
 62
0
 10
-168.925
 20
-26.9375
 30
0.0
 11
-169.725
 21
-26.9375
 31
0.0
  0
LINE
  8
0
 62
0
 10
-168.925
 20
-26.3375
 30
0.0
 11
-168.925
 21
-26.9375
 31
0.0
  0
LINE
  8
0
 62
0
 10
-169.725
 20
-26.9375
 30
0.0
 11
-169.725
 21
-39.7375
 31
0.0
  0
LINE
  8
0
 62
0
 10
-154.925
 20
-26.3375
 30
0.0
 11
-168.925
 21
-26.3375
 31
0.0
  0
LINE
  8
0
 62
0
 10
-169.725
 20
-39.7375
 30
0.0
 11
-168.925
 21
-39.7375
 31
0.0
  0
LINE
  8
0
 62
0
 10
-154.925
 20
-26.9375
 30
0.0
 11
-154.925
 21
-26.3375
 31
0.0
  0
LINE
  8
0
 62
0
 10
-168.925
 20
-39.7375
 30
0.0
 11
-168.925
 21
-40.3375
 31
0.0
  0
LINE
  8
0
 62
0
 10
-154.125
 20
-26.9375
 30
0.0
 11
-154.925
 21
-26.9375
 31
0.0
  0
LINE
  8
0
 62
0
 10
-168.925
 20
-40.3375
 30
0.0
 11
-154.925
 21
-40.3375
 31
0.0
  0
LINE
  8
0
 62
0
 10
-154.125
 20
-39.7375
 30
0.0
 11
-154.125
 21
-26.9375
 31
0.0
  0
LINE
  8
0
 62
0
 10
-154.925
 20
-40.3375
 30
0.0
 11
-154.925
 21
-39.7375
 31
0.0
  0
LINE
  8
0
 62
0
 10
-154.925
 20
-39.7375
 30
0.0
 11
-154.125
 21
-39.7375
 31
0.0
  0
LINE
  8
0
 62
0
 10
54.625
 20
-1.6375
 30
0.0
 11
55.425
 21
-1.6375
 31
0.0
  0
LINE
  8
0
 62
0
 10
54.625
 20
-2.2375
 30
0.0
 11
54.625
 21
-1.6375
 31
0.0
  0
LINE
  8
0
 62
0
 10
55.425
 20
-1.6375
 30
0.0
 11
55.425
 21
11.1625
 31
0.0
  0
LINE
  8
0
 62
0
 10
40.625
 20
-2.2375
 30
0.0
 11
54.625
 21
-2.2375
 31
0.0
  0
LINE
  8
0
 62
0
 10
55.425
 20
11.1625
 30
0.0
 11
54.625
 21
11.1625
 31
0.0
  0
LINE
  8
0
 62
0
 10
40.625
 20
-1.6375
 30
0.0
 11
40.625
 21
-2.2375
 31
0.0
  0
LINE
  8
0
 62
0
 10
54.625
 20
11.1625
 30
0.0
 11
54.625
 21
11.7625
 31
0.0
  0
LINE
  8
0
 62
0
 10
39.825
 20
-1.6375
 30
0.0
 11
40.625
 21
-1.6375
 31
0.0
  0
LINE
  8
0
 62
0
 10
54.625
 20
11.7625
 30
0.0
 11
40.625
 21
11.7625
 31
0.0
  0
LINE
  8
0
 62
0
 10
39.825
 20
11.1625
 30
0.0
 11
39.825
 21
-1.6375
 31
0.0
  0
LINE
  8
0
 62
0
 10
40.625
 20
11.7625
 30
0.0
 11
40.625
 21
11.1625
 31
0.0
  0
LINE
  8
0
 62
0
 10
40.625
 20
11.1625
 30
0.0
 11
39.825
 21
11.1625
 31
0.0
  0
LINE
  8
0
 62
0
 10
-26.05
 20
16.8125
 30
0.0
 11
-12.05
 21
16.8125
 31
0.0
  0
LINE
  8
0
 62
0
 10
-26.05
 20
17.4125
 30
0.0
 11
-26.05
 21
16.8125
 31
0.0
  0
LINE
  8
0
 62
0
 10
-12.05
 20
16.8125
 30
0.0
 11
-12.05
 21
17.4125
 31
0.0
  0
LINE
  8
0
 62
0
 10
-26.85
 20
17.4125
 30
0.0
 11
-26.05
 21
17.4125
 31
0.0
  0
LINE
  8
0
 62
0
 10
-12.05
 20
17.4125
 30
0.0
 11
-11.25
 21
17.4125
 31
0.0
  0
LINE
  8
0
 62
0
 10
-26.85
 20
30.2125
 30
0.0
 11
-26.85
 21
17.4125
 31
0.0
  0
LINE
  8
0
 62
0
 10
-11.25
 20
17.4125
 30
0.0
 11
-11.25
 21
30.2125
 31
0.0
  0
LINE
  8
0
 62
0
 10
-26.05
 20
30.2125
 30
0.0
 11
-26.85
 21
30.2125
 31
0.0
  0
LINE
  8
0
 62
0
 10
-11.25
 20
30.2125
 30
0.0
 11
-12.05
 21
30.2125
 31
0.0
  0
LINE
  8
0
 62
0
 10
-26.05
 20
30.8125
 30
0.0
 11
-26.05
 21
30.2125
 31
0.0
  0
LINE
  8
0
 62
0
 10
-12.05
 20
30.2125
 30
0.0
 11
-12.05
 21
30.8125
 31
0.0
  0
LINE
  8
0
 62
0
 10
-12.05
 20
30.8125
 30
0.0
 11
-26.05
 21
30.8125
 31
0.0
  0
LINE
  8
0
 62
0
 10
77.925
 20
-1.6375
 30
0.0
 11
78.725
 21
-1.6375
 31
0.0
  0
LINE
  8
0
 62
0
 10
77.925
 20
11.1625
 30
0.0
 11
77.925
 21
-1.6375
 31
0.0
  0
LINE
  8
0
 62
0
 10
78.725
 20
-1.6375
 30
0.0
 11
78.725
 21
-2.2375
 31
0.0
  0
LINE
  8
0
 62
0
 10
78.725
 20
11.1625
 30
0.0
 11
77.925
 21
11.1625
 31
0.0
  0
LINE
  8
0
 62
0
 10
78.725
 20
-2.2375
 30
0.0
 11
92.725
 21
-2.2375
 31
0.0
  0
LINE
  8
0
 62
0
 10
78.725
 20
11.7625
 30
0.0
 11
78.725
 21
11.1625
 31
0.0
  0
LINE
  8
0
 62
0
 10
92.725
 20
-2.2375
 30
0.0
 11
92.725
 21
-1.6375
 31
0.0
  0
LINE
  8
0
 62
0
 10
92.725
 20
11.7625
 30
0.0
 11
78.725
 21
11.7625
 31
0.0
  0
LINE
  8
0
 62
0
 10
92.725
 20
-1.6375
 30
0.0
 11
93.525
 21
-1.6375
 31
0.0
  0
LINE
  8
0
 62
0
 10
92.725
 20
11.1625
 30
0.0
 11
92.725
 21
11.7625
 31
0.0
  0
LINE
  8
0
 62
0
 10
93.525
 20
-1.6375
 30
0.0
 11
93.525
 21
11.1625
 31
0.0
  0
LINE
  8
0
 62
0
 10
93.525
 20
11.1625
 30
0.0
 11
92.725
 21
11.1625
 31
0.0
  0
LINE
  8
0
 62
0
 10
31.1
 20
30.2125
 30
0.0
 11
30.3
 21
30.2125
 31
0.0
  0
LINE
  8
0
 62
0
 10
31.1
 20
30.8125
 30
0.0
 11
31.1
 21
30.2125
 31
0.0
  0
LINE
  8
0
 62
0
 10
30.3
 20
30.2125
 30
0.0
 11
30.3
 21
17.4125
 31
0.0
  0
LINE
  8
0
 62
0
 10
45.1
 20
30.8125
 30
0.0
 11
31.1
 21
30.8125
 31
0.0
  0
LINE
  8
0
 62
0
 10
30.3
 20
17.4125
 30
0.0
 11
31.1
 21
17.4125
 31
0.0
  0
LINE
  8
0
 62
0
 10
45.1
 20
30.2125
 30
0.0
 11
45.1
 21
30.8125
 31
0.0
  0
LINE
  8
0
 62
0
 10
31.1
 20
17.4125
 30
0.0
 11
31.1
 21
16.8125
 31
0.0
  0
LINE
  8
0
 62
0
 10
45.9
 20
30.2125
 30
0.0
 11
45.1
 21
30.2125
 31
0.0
  0
LINE
  8
0
 62
0
 10
31.1
 20
16.8125
 30
0.0
 11
45.1
 21
16.8125
 31
0.0
  0
LINE
  8
0
 62
0
 10
45.9
 20
17.4125
 30
0.0
 11
45.9
 21
30.2125
 31
0.0
  0
LINE
  8
0
 62
0
 10
45.1
 20
16.8125
 30
0.0
 11
45.1
 21
17.4125
 31
0.0
  0
LINE
  8
0
 62
0
 10
45.1
 20
17.4125
 30
0.0
 11
45.9
 21
17.4125
 31
0.0
  0
LINE
  8
0
 62
0
 10
-141.15
 20
45.9875
 30
0.0
 11
-140.35
 21
45.9875
 31
0.0
  0
LINE
  8
0
 62
0
 10
-141.15
 20
58.7875
 30
0.0
 11
-141.15
 21
45.9875
 31
0.0
  0
LINE
  8
0
 62
0
 10
-140.35
 20
45.9875
 30
0.0
 11
-140.35
 21
45.3875
 31
0.0
  0
LINE
  8
0
 62
0
 10
-140.35
 20
58.7875
 30
0.0
 11
-141.15
 21
58.7875
 31
0.0
  0
LINE
  8
0
 62
0
 10
-140.35
 20
45.3875
 30
0.0
 11
-126.35
 21
45.3875
 31
0.0
  0
LINE
  8
0
 62
0
 10
-140.35
 20
59.3875
 30
0.0
 11
-140.35
 21
58.7875
 31
0.0
  0
LINE
  8
0
 62
0
 10
-126.35
 20
45.3875
 30
0.0
 11
-126.35
 21
45.9875
 31
0.0
  0
LINE
  8
0
 62
0
 10
-126.35
 20
59.3875
 30
0.0
 11
-140.35
 21
59.3875
 31
0.0
  0
LINE
  8
0
 62
0
 10
-126.35
 20
45.9875
 30
0.0
 11
-125.55
 21
45.9875
 31
0.0
  0
LINE
  8
0
 62
0
 10
-126.35
 20
58.7875
 30
0.0
 11
-126.35
 21
59.3875
 31
0.0
  0
LINE
  8
0
 62
0
 10
-125.55
 20
45.9875
 30
0.0
 11
-125.55
 21
58.7875
 31
0.0
  0
LINE
  8
0
 62
0
 10
-125.55
 20
58.7875
 30
0.0
 11
-126.35
 21
58.7875
 31
0.0
  0
LINE
  8
0
 62
0
 10
-168.925
 20
-7.8875
 30
0.0
 11
-169.725
 21
-7.8875
 31
0.0
  0
LINE
  8
0
 62
0
 10
-168.925
 20
-7.2875
 30
0.0
 11
-168.925
 21
-7.8875
 31
0.0
  0
LINE
  8
0
 62
0
 10
-169.725
 20
-7.8875
 30
0.0
 11
-169.725
 21
-20.6875
 31
0.0
  0
LINE
  8
0
 62
0
 10
-154.925
 20
-7.2875
 30
0.0
 11
-168.925
 21
-7.2875
 31
0.0
  0
LINE
  8
0
 62
0
 10
-169.725
 20
-20.6875
 30
0.0
 11
-168.925
 21
-20.6875
 31
0.0
  0
LINE
  8
0
 62
0
 10
-154.925
 20
-7.8875
 30
0.0
 11
-154.925
 21
-7.2875
 31
0.0
  0
LINE
  8
0
 62
0
 10
-168.925
 20
-20.6875
 30
0.0
 11
-168.925
 21
-21.2875
 31
0.0
  0
LINE
  8
0
 62
0
 10
-154.125
 20
-7.8875
 30
0.0
 11
-154.925
 21
-7.8875
 31
0.0
  0
LINE
  8
0
 62
0
 10
-168.925
 20
-21.2875
 30
0.0
 11
-154.925
 21
-21.2875
 31
0.0
  0
LINE
  8
0
 62
0
 10
-154.125
 20
-20.6875
 30
0.0
 11
-154.125
 21
-7.8875
 31
0.0
  0
LINE
  8
0
 62
0
 10
-154.925
 20
-21.2875
 30
0.0
 11
-154.925
 21
-20.6875
 31
0.0
  0
LINE
  8
0
 62
0
 10
-154.925
 20
-20.6875
 30
0.0
 11
-154.125
 21
-20.6875
 31
0.0
  0
LINE
  8
0
 62
0
 10
-103.05
 20
45.9875
 30
0.0
 11
-102.25
 21
45.9875
 31
0.0
  0
LINE
  8
0
 62
0
 10
-103.05
 20
58.7875
 30
0.0
 11
-103.05
 21
45.9875
 31
0.0
  0
LINE
  8
0
 62
0
 10
-102.25
 20
45.9875
 30
0.0
 11
-102.25
 21
45.3875
 31
0.0
  0
LINE
  8
0
 62
0
 10
-102.25
 20
58.7875
 30
0.0
 11
-103.05
 21
58.7875
 31
0.0
  0
LINE
  8
0
 62
0
 10
-102.25
 20
45.3875
 30
0.0
 11
-88.25
 21
45.3875
 31
0.0
  0
LINE
  8
0
 62
0
 10
-102.25
 20
59.3875
 30
0.0
 11
-102.25
 21
58.7875
 31
0.0
  0
LINE
  8
0
 62
0
 10
-88.25
 20
45.3875
 30
0.0
 11
-88.25
 21
45.9875
 31
0.0
  0
LINE
  8
0
 62
0
 10
-88.25
 20
59.3875
 30
0.0
 11
-102.25
 21
59.3875
 31
0.0
  0
LINE
  8
0
 62
0
 10
-88.25
 20
45.9875
 30
0.0
 11
-87.45
 21
45.9875
 31
0.0
  0
LINE
  8
0
 62
0
 10
-88.25
 20
58.7875
 30
0.0
 11
-88.25
 21
59.3875
 31
0.0
  0
LINE
  8
0
 62
0
 10
-87.45
 20
45.9875
 30
0.0
 11
-87.45
 21
58.7875
 31
0.0
  0
LINE
  8
0
 62
0
 10
-87.45
 20
58.7875
 30
0.0
 11
-88.25
 21
58.7875
 31
0.0
  0
LINE
  8
0
 62
0
 10
154.125
 20
17.4125
 30
0.0
 11
154.925
 21
17.4125
 31
0.0
  0
LINE
  8
0
 62
0
 10
154.125
 20
30.2125
 30
0.0
 11
154.125
 21
17.4125
 31
0.0
  0
LINE
  8
0
 62
0
 10
154.925
 20
17.4125
 30
0.0
 11
154.925
 21
16.8125
 31
0.0
  0
LINE
  8
0
 62
0
 10
154.925
 20
30.2125
 30
0.0
 11
154.125
 21
30.2125
 31
0.0
  0
LINE
  8
0
 62
0
 10
154.925
 20
16.8125
 30
0.0
 11
168.925
 21
16.8125
 31
0.0
  0
LINE
  8
0
 62
0
 10
154.925
 20
30.8125
 30
0.0
 11
154.925
 21
30.2125
 31
0.0
  0
LINE
  8
0
 62
0
 10
168.925
 20
16.8125
 30
0.0
 11
168.925
 21
17.4125
 31
0.0
  0
LINE
  8
0
 62
0
 10
168.925
 20
30.8125
 30
0.0
 11
154.925
 21
30.8125
 31
0.0
  0
LINE
  8
0
 62
0
 10
168.925
 20
17.4125
 30
0.0
 11
169.725
 21
17.4125
 31
0.0
  0
LINE
  8
0
 62
0
 10
168.925
 20
30.2125
 30
0.0
 11
168.925
 21
30.8125
 31
0.0
  0
LINE
  8
0
 62
0
 10
169.725
 20
17.4125
 30
0.0
 11
169.725
 21
30.2125
 31
0.0
  0
LINE
  8
0
 62
0
 10
169.725
 20
30.2125
 30
0.0
 11
168.925
 21
30.2125
 31
0.0
  0
LINE
  8
0
 62
0
 10
-168.925
 20
16.8125
 30
0.0
 11
-154.925
 21
16.8125
 31
0.0
  0
LINE
  8
0
 62
0
 10
-168.925
 20
17.4125
 30
0.0
 11
-168.925
 21
16.8125
 31
0.0
  0
LINE
  8
0
 62
0
 10
-154.925
 20
16.8125
 30
0.0
 11
-154.925
 21
17.4125
 31
0.0
  0
LINE
  8
0
 62
0
 10
-169.725
 20
17.4125
 30
0.0
 11
-168.925
 21
17.4125
 31
0.0
  0
LINE
  8
0
 62
0
 10
-154.925
 20
17.4125
 30
0.0
 11
-154.125
 21
17.4125
 31
0.0
  0
LINE
  8
0
 62
0
 10
-169.725
 20
30.2125
 30
0.0
 11
-169.725
 21
17.4125
 31
0.0
  0
LINE
  8
0
 62
0
 10
-154.125
 20
17.4125
 30
0.0
 11
-154.125
 21
30.2125
 31
0.0
  0
LINE
  8
0
 62
0
 10
-168.925
 20
30.2125
 30
0.0
 11
-169.725
 21
30.2125
 31
0.0
  0
LINE
  8
0
 62
0
 10
-154.125
 20
30.2125
 30
0.0
 11
-154.925
 21
30.2125
 31
0.0
  0
LINE
  8
0
 62
0
 10
-168.925
 20
30.8125
 30
0.0
 11
-168.925
 21
30.2125
 31
0.0
  0
LINE
  8
0
 62
0
 10
-154.925
 20
30.2125
 30
0.0
 11
-154.925
 21
30.8125
 31
0.0
  0
LINE
  8
0
 62
0
 10
-154.925
 20
30.8125
 30
0.0
 11
-168.925
 21
30.8125
 31
0.0
  0
LINE
  8
0
 62
0
 10
21.575
 20
-1.6375
 30
0.0
 11
21.575
 21
-2.2375
 31
0.0
  0
LINE
  8
0
 62
0
 10
20.775
 20
-1.6375
 30
0.0
 11
21.575
 21
-1.6375
 31
0.0
  0
LINE
  8
0
 62
0
 10
21.575
 20
-2.2375
 30
0.0
 11
35.575
 21
-2.2375
 31
0.0
  0
LINE
  8
0
 62
0
 10
20.775
 20
11.1625
 30
0.0
 11
20.775
 21
-1.6375
 31
0.0
  0
LINE
  8
0
 62
0
 10
35.575
 20
-2.2375
 30
0.0
 11
35.575
 21
-1.6375
 31
0.0
  0
LINE
  8
0
 62
0
 10
21.575
 20
11.1625
 30
0.0
 11
20.775
 21
11.1625
 31
0.0
  0
LINE
  8
0
 62
0
 10
35.575
 20
-1.6375
 30
0.0
 11
36.375
 21
-1.6375
 31
0.0
  0
LINE
  8
0
 62
0
 10
21.575
 20
11.7625
 30
0.0
 11
21.575
 21
11.1625
 31
0.0
  0
LINE
  8
0
 62
0
 10
36.375
 20
-1.6375
 30
0.0
 11
36.375
 21
11.1625
 31
0.0
  0
LINE
  8
0
 62
0
 10
35.575
 20
11.7625
 30
0.0
 11
21.575
 21
11.7625
 31
0.0
  0
LINE
  8
0
 62
0
 10
36.375
 20
11.1625
 30
0.0
 11
35.575
 21
11.1625
 31
0.0
  0
LINE
  8
0
 62
0
 10
35.575
 20
11.1625
 30
0.0
 11
35.575
 21
11.7625
 31
0.0
  0
LINE
  8
0
 62
0
 10
-141.15
 20
30.2125
 30
0.0
 11
-141.15
 21
17.4125
 31
0.0
  0
LINE
  8
0
 62
0
 10
-140.35
 20
30.2125
 30
0.0
 11
-141.15
 21
30.2125
 31
0.0
  0
LINE
  8
0
 62
0
 10
-141.15
 20
17.4125
 30
0.0
 11
-140.35
 21
17.4125
 31
0.0
  0
LINE
  8
0
 62
0
 10
-140.35
 20
30.8125
 30
0.0
 11
-140.35
 21
30.2125
 31
0.0
  0
LINE
  8
0
 62
0
 10
-140.35
 20
17.4125
 30
0.0
 11
-140.35
 21
16.8125
 31
0.0
  0
LINE
  8
0
 62
0
 10
-126.35
 20
30.8125
 30
0.0
 11
-140.35
 21
30.8125
 31
0.0
  0
LINE
  8
0
 62
0
 10
-140.35
 20
16.8125
 30
0.0
 11
-126.35
 21
16.8125
 31
0.0
  0
LINE
  8
0
 62
0
 10
-126.35
 20
30.2125
 30
0.0
 11
-126.35
 21
30.8125
 31
0.0
  0
LINE
  8
0
 62
0
 10
-126.35
 20
16.8125
 30
0.0
 11
-126.35
 21
17.4125
 31
0.0
  0
LINE
  8
0
 62
0
 10
-125.55
 20
30.2125
 30
0.0
 11
-126.35
 21
30.2125
 31
0.0
  0
LINE
  8
0
 62
0
 10
-126.35
 20
17.4125
 30
0.0
 11
-125.55
 21
17.4125
 31
0.0
  0
LINE
  8
0
 62
0
 10
-125.55
 20
17.4125
 30
0.0
 11
-125.55
 21
30.2125
 31
0.0
  0
LINE
  8
0
 62
0
 10
88.25
 20
45.3875
 30
0.0
 11
102.25
 21
45.3875
 31
0.0
  0
LINE
  8
0
 62
0
 10
88.25
 20
45.9875
 30
0.0
 11
88.25
 21
45.3875
 31
0.0
  0
LINE
  8
0
 62
0
 10
102.25
 20
45.3875
 30
0.0
 11
102.25
 21
45.9875
 31
0.0
  0
LINE
  8
0
 62
0
 10
87.45
 20
45.9875
 30
0.0
 11
88.25
 21
45.9875
 31
0.0
  0
LINE
  8
0
 62
0
 10
102.25
 20
45.9875
 30
0.0
 11
103.05
 21
45.9875
 31
0.0
  0
LINE
  8
0
 62
0
 10
87.45
 20
58.7875
 30
0.0
 11
87.45
 21
45.9875
 31
0.0
  0
LINE
  8
0
 62
0
 10
103.05
 20
45.9875
 30
0.0
 11
103.05
 21
58.7875
 31
0.0
  0
LINE
  8
0
 62
0
 10
88.25
 20
58.7875
 30
0.0
 11
87.45
 21
58.7875
 31
0.0
  0
LINE
  8
0
 62
0
 10
103.05
 20
58.7875
 30
0.0
 11
102.25
 21
58.7875
 31
0.0
  0
LINE
  8
0
 62
0
 10
88.25
 20
59.3875
 30
0.0
 11
88.25
 21
58.7875
 31
0.0
  0
LINE
  8
0
 62
0
 10
102.25
 20
58.7875
 30
0.0
 11
102.25
 21
59.3875
 31
0.0
  0
LINE
  8
0
 62
0
 10
102.25
 20
59.3875
 30
0.0
 11
88.25
 21
59.3875
 31
0.0
  0
LINE
  8
0
 62
0
 10
11.7625
 20
-26.3375
 30
0.0
 11
-2.2375
 21
-26.3375
 31
0.0
  0
LINE
  8
0
 62
0
 10
11.7625
 20
-26.9375
 30
0.0
 11
11.7625
 21
-26.3375
 31
0.0
  0
LINE
  8
0
 62
0
 10
-2.2375
 20
-26.3375
 30
0.0
 11
-2.2375
 21
-26.9375
 31
0.0
  0
LINE
  8
0
 62
0
 10
12.5625
 20
-26.9375
 30
0.0
 11
11.7625
 21
-26.9375
 31
0.0
  0
LINE
  8
0
 62
0
 10
-2.2375
 20
-26.9375
 30
0.0
 11
-3.0375
 21
-26.9375
 31
0.0
  0
LINE
  8
0
 62
0
 10
12.5625
 20
-39.7375
 30
0.0
 11
12.5625
 21
-26.9375
 31
0.0
  0
LINE
  8
0
 62
0
 10
-3.0375
 20
-26.9375
 30
0.0
 11
-3.0375
 21
-39.7375
 31
0.0
  0
LINE
  8
0
 62
0
 10
11.7625
 20
-39.7375
 30
0.0
 11
12.5625
 21
-39.7375
 31
0.0
  0
LINE
  8
0
 62
0
 10
-3.0375
 20
-39.7375
 30
0.0
 11
-2.2375
 21
-39.7375
 31
0.0
  0
LINE
  8
0
 62
0
 10
11.7625
 20
-40.3375
 30
0.0
 11
11.7625
 21
-39.7375
 31
0.0
  0
LINE
  8
0
 62
0
 10
-2.2375
 20
-39.7375
 30
0.0
 11
-2.2375
 21
-40.3375
 31
0.0
  0
LINE
  8
0
 62
0
 10
-2.2375
 20
-40.3375
 30
0.0
 11
11.7625
 21
-40.3375
 31
0.0
  0
LINE
  8
0
 62
0
 10
-26.3375
 20
-26.9375
 30
0.0
 11
-26.3375
 21
-26.3375
 31
0.0
  0
LINE
  8
0
 62
0
 10
-25.5375
 20
-26.9375
 30
0.0
 11
-26.3375
 21
-26.9375
 31
0.0
  0
LINE
  8
0
 62
0
 10
-26.3375
 20
-26.3375
 30
0.0
 11
-40.3375
 21
-26.3375
 31
0.0
  0
LINE
  8
0
 62
0
 10
-25.5375
 20
-39.7375
 30
0.0
 11
-25.5375
 21
-26.9375
 31
0.0
  0
LINE
  8
0
 62
0
 10
-40.3375
 20
-26.3375
 30
0.0
 11
-40.3375
 21
-26.9375
 31
0.0
  0
LINE
  8
0
 62
0
 10
-26.3375
 20
-39.7375
 30
0.0
 11
-25.5375
 21
-39.7375
 31
0.0
  0
LINE
  8
0
 62
0
 10
-40.3375
 20
-26.9375
 30
0.0
 11
-41.1375
 21
-26.9375
 31
0.0
  0
LINE
  8
0
 62
0
 10
-26.3375
 20
-40.3375
 30
0.0
 11
-26.3375
 21
-39.7375
 31
0.0
  0
LINE
  8
0
 62
0
 10
-41.1375
 20
-26.9375
 30
0.0
 11
-41.1375
 21
-39.7375
 31
0.0
  0
LINE
  8
0
 62
0
 10
-40.3375
 20
-40.3375
 30
0.0
 11
-26.3375
 21
-40.3375
 31
0.0
  0
LINE
  8
0
 62
0
 10
-41.1375
 20
-39.7375
 30
0.0
 11
-40.3375
 21
-39.7375
 31
0.0
  0
LINE
  8
0
 62
0
 10
-40.3375
 20
-39.7375
 30
0.0
 11
-40.3375
 21
-40.3375
 31
0.0
  0
LINE
  8
0
 62
0
 10
-121.5875
 20
11.1625
 30
0.0
 11
-121.5875
 21
11.7625
 31
0.0
  0
LINE
  8
0
 62
0
 10
-120.7875
 20
11.1625
 30
0.0
 11
-121.5875
 21
11.1625
 31
0.0
  0
LINE
  8
0
 62
0
 10
-121.5875
 20
11.7625
 30
0.0
 11
-135.5875
 21
11.7625
 31
0.0
  0
LINE
  8
0
 62
0
 10
-120.7875
 20
-1.6375
 30
0.0
 11
-120.7875
 21
11.1625
 31
0.0
  0
LINE
  8
0
 62
0
 10
-135.5875
 20
11.7625
 30
0.0
 11
-135.5875
 21
11.1625
 31
0.0
  0
LINE
  8
0
 62
0
 10
-121.5875
 20
-1.6375
 30
0.0
 11
-120.7875
 21
-1.6375
 31
0.0
  0
LINE
  8
0
 62
0
 10
-135.5875
 20
11.1625
 30
0.0
 11
-136.3875
 21
11.1625
 31
0.0
  0
LINE
  8
0
 62
0
 10
-121.5875
 20
-2.2375
 30
0.0
 11
-121.5875
 21
-1.6375
 31
0.0
  0
LINE
  8
0
 62
0
 10
-136.3875
 20
11.1625
 30
0.0
 11
-136.3875
 21
-1.6375
 31
0.0
  0
LINE
  8
0
 62
0
 10
-135.5875
 20
-2.2375
 30
0.0
 11
-121.5875
 21
-2.2375
 31
0.0
  0
LINE
  8
0
 62
0
 10
-136.3875
 20
-1.6375
 30
0.0
 11
-135.5875
 21
-1.6375
 31
0.0
  0
LINE
  8
0
 62
0
 10
-135.5875
 20
-1.6375
 30
0.0
 11
-135.5875
 21
-2.2375
 31
0.0
  0
LINE
  8
0
 62
0
 10
21.575
 20
59.3875
 30
0.0
 11
21.575
 21
58.7875
 31
0.0
  0
LINE
  8
0
 62
0
 10
35.575
 20
59.3875
 30
0.0
 11
21.575
 21
59.3875
 31
0.0
  0
LINE
  8
0
 62
0
 10
21.575
 20
58.7875
 30
0.0
 11
20.775
 21
58.7875
 31
0.0
  0
LINE
  8
0
 62
0
 10
35.575
 20
58.7875
 30
0.0
 11
35.575
 21
59.3875
 31
0.0
  0
LINE
  8
0
 62
0
 10
20.775
 20
58.7875
 30
0.0
 11
20.775
 21
45.9875
 31
0.0
  0
LINE
  8
0
 62
0
 10
36.375
 20
58.7875
 30
0.0
 11
35.575
 21
58.7875
 31
0.0
  0
LINE
  8
0
 62
0
 10
20.775
 20
45.9875
 30
0.0
 11
21.575
 21
45.9875
 31
0.0
  0
LINE
  8
0
 62
0
 10
36.375
 20
45.9875
 30
0.0
 11
36.375
 21
58.7875
 31
0.0
  0
LINE
  8
0
 62
0
 10
21.575
 20
45.9875
 30
0.0
 11
21.575
 21
45.3875
 31
0.0
  0
LINE
  8
0
 62
0
 10
35.575
 20
45.9875
 30
0.0
 11
36.375
 21
45.9875
 31
0.0
  0
LINE
  8
0
 62
0
 10
21.575
 20
45.3875
 30
0.0
 11
35.575
 21
45.3875
 31
0.0
  0
LINE
  8
0
 62
0
 10
35.575
 20
45.3875
 30
0.0
 11
35.575
 21
45.9875
 31
0.0
  0
LINE
  8
0
 62
0
 10
26.3375
 20
-21.2875
 30
0.0
 11
40.3375
 21
-21.2875
 31
0.0
  0
LINE
  8
0
 62
0
 10
26.3375
 20
-20.6875
 30
0.0
 11
26.3375
 21
-21.2875
 31
0.0
  0
LINE
  8
0
 62
0
 10
40.3375
 20
-21.2875
 30
0.0
 11
40.3375
 21
-20.6875
 31
0.0
  0
LINE
  8
0
 62
0
 10
25.5375
 20
-20.6875
 30
0.0
 11
26.3375
 21
-20.6875
 31
0.0
  0
LINE
  8
0
 62
0
 10
40.3375
 20
-20.6875
 30
0.0
 11
41.1375
 21
-20.6875
 31
0.0
  0
LINE
  8
0
 62
0
 10
25.5375
 20
-7.8875
 30
0.0
 11
25.5375
 21
-20.6875
 31
0.0
  0
LINE
  8
0
 62
0
 10
41.1375
 20
-20.6875
 30
0.0
 11
41.1375
 21
-7.8875
 31
0.0
  0
LINE
  8
0
 62
0
 10
26.3375
 20
-7.8875
 30
0.0
 11
25.5375
 21
-7.8875
 31
0.0
  0
LINE
  8
0
 62
0
 10
41.1375
 20
-7.8875
 30
0.0
 11
40.3375
 21
-7.8875
 31
0.0
  0
LINE
  8
0
 62
0
 10
26.3375
 20
-7.2875
 30
0.0
 11
26.3375
 21
-7.8875
 31
0.0
  0
LINE
  8
0
 62
0
 10
40.3375
 20
-7.8875
 30
0.0
 11
40.3375
 21
-7.2875
 31
0.0
  0
LINE
  8
0
 62
0
 10
40.3375
 20
-7.2875
 30
0.0
 11
26.3375
 21
-7.2875
 31
0.0
  0
LINE
  8
0
 62
0
 10
168.925
 20
-39.7375
 30
0.0
 11
169.725
 21
-39.7375
 31
0.0
  0
LINE
  8
0
 62
0
 10
168.925
 20
-40.3375
 30
0.0
 11
168.925
 21
-39.7375
 31
0.0
  0
LINE
  8
0
 62
0
 10
169.725
 20
-39.7375
 30
0.0
 11
169.725
 21
-26.9375
 31
0.0
  0
LINE
  8
0
 62
0
 10
154.925
 20
-40.3375
 30
0.0
 11
168.925
 21
-40.3375
 31
0.0
  0
LINE
  8
0
 62
0
 10
169.725
 20
-26.9375
 30
0.0
 11
168.925
 21
-26.9375
 31
0.0
  0
LINE
  8
0
 62
0
 10
154.925
 20
-39.7375
 30
0.0
 11
154.925
 21
-40.3375
 31
0.0
  0
LINE
  8
0
 62
0
 10
168.925
 20
-26.9375
 30
0.0
 11
168.925
 21
-26.3375
 31
0.0
  0
LINE
  8
0
 62
0
 10
154.125
 20
-39.7375
 30
0.0
 11
154.925
 21
-39.7375
 31
0.0
  0
LINE
  8
0
 62
0
 10
168.925
 20
-26.3375
 30
0.0
 11
154.925
 21
-26.3375
 31
0.0
  0
LINE
  8
0
 62
0
 10
154.125
 20
-26.9375
 30
0.0
 11
154.125
 21
-39.7375
 31
0.0
  0
LINE
  8
0
 62
0
 10
154.925
 20
-26.3375
 30
0.0
 11
154.925
 21
-26.9375
 31
0.0
  0
LINE
  8
0
 62
0
 10
154.925
 20
-26.9375
 30
0.0
 11
154.125
 21
-26.9375
 31
0.0
  0
LINE
  8
0
 62
0
 10
83.2
 20
58.7875
 30
0.0
 11
83.2
 21
59.3875
 31
0.0
  0
LINE
  8
0
 62
0
 10
84.0
 20
58.7875
 30
0.0
 11
83.2
 21
58.7875
 31
0.0
  0
LINE
  8
0
 62
0
 10
83.2
 20
59.3875
 30
0.0
 11
69.2
 21
59.3875
 31
0.0
  0
LINE
  8
0
 62
0
 10
84.0
 20
45.9875
 30
0.0
 11
84.0
 21
58.7875
 31
0.0
  0
LINE
  8
0
 62
0
 10
69.2
 20
59.3875
 30
0.0
 11
69.2
 21
58.7875
 31
0.0
  0
LINE
  8
0
 62
0
 10
83.2
 20
45.9875
 30
0.0
 11
84.0
 21
45.9875
 31
0.0
  0
LINE
  8
0
 62
0
 10
69.2
 20
58.7875
 30
0.0
 11
68.4
 21
58.7875
 31
0.0
  0
LINE
  8
0
 62
0
 10
83.2
 20
45.3875
 30
0.0
 11
83.2
 21
45.9875
 31
0.0
  0
LINE
  8
0
 62
0
 10
68.4
 20
58.7875
 30
0.0
 11
68.4
 21
45.9875
 31
0.0
  0
LINE
  8
0
 62
0
 10
69.2
 20
45.3875
 30
0.0
 11
83.2
 21
45.3875
 31
0.0
  0
LINE
  8
0
 62
0
 10
68.4
 20
45.9875
 30
0.0
 11
69.2
 21
45.9875
 31
0.0
  0
LINE
  8
0
 62
0
 10
69.2
 20
45.9875
 30
0.0
 11
69.2
 21
45.3875
 31
0.0
  0
LINE
  8
0
 62
0
 10
-88.25
 20
30.8125
 30
0.0
 11
-102.25
 21
30.8125
 31
0.0
  0
LINE
  8
0
 62
0
 10
-88.25
 20
30.2125
 30
0.0
 11
-88.25
 21
30.8125
 31
0.0
  0
LINE
  8
0
 62
0
 10
-102.25
 20
30.8125
 30
0.0
 11
-102.25
 21
30.2125
 31
0.0
  0
LINE
  8
0
 62
0
 10
-87.45
 20
30.2125
 30
0.0
 11
-88.25
 21
30.2125
 31
0.0
  0
LINE
  8
0
 62
0
 10
-102.25
 20
30.2125
 30
0.0
 11
-103.05
 21
30.2125
 31
0.0
  0
LINE
  8
0
 62
0
 10
-87.45
 20
17.4125
 30
0.0
 11
-87.45
 21
30.2125
 31
0.0
  0
LINE
  8
0
 62
0
 10
-103.05
 20
30.2125
 30
0.0
 11
-103.05
 21
17.4125
 31
0.0
  0
LINE
  8
0
 62
0
 10
-88.25
 20
17.4125
 30
0.0
 11
-87.45
 21
17.4125
 31
0.0
  0
LINE
  8
0
 62
0
 10
-103.05
 20
17.4125
 30
0.0
 11
-102.25
 21
17.4125
 31
0.0
  0
LINE
  8
0
 62
0
 10
-88.25
 20
16.8125
 30
0.0
 11
-88.25
 21
17.4125
 31
0.0
  0
LINE
  8
0
 62
0
 10
-102.25
 20
17.4125
 30
0.0
 11
-102.25
 21
16.8125
 31
0.0
  0
LINE
  8
0
 62
0
 10
-102.25
 20
16.8125
 30
0.0
 11
-88.25
 21
16.8125
 31
0.0
  0
LINE
  8
0
 62
0
 10
2.525
 20
59.3875
 30
0.0
 11
2.525
 21
58.7875
 31
0.0
  0
LINE
  8
0
 62
0
 10
16.525
 20
59.3875
 30
0.0
 11
2.525
 21
59.3875
 31
0.0
  0
LINE
  8
0
 62
0
 10
2.525
 20
58.7875
 30
0.0
 11
1.725
 21
58.7875
 31
0.0
  0
LINE
  8
0
 62
0
 10
16.525
 20
58.7875
 30
0.0
 11
16.525
 21
59.3875
 31
0.0
  0
LINE
  8
0
 62
0
 10
1.725
 20
58.7875
 30
0.0
 11
1.725
 21
45.9875
 31
0.0
  0
LINE
  8
0
 62
0
 10
17.325
 20
58.7875
 30
0.0
 11
16.525
 21
58.7875
 31
0.0
  0
LINE
  8
0
 62
0
 10
1.725
 20
45.9875
 30
0.0
 11
2.525
 21
45.9875
 31
0.0
  0
LINE
  8
0
 62
0
 10
17.325
 20
45.9875
 30
0.0
 11
17.325
 21
58.7875
 31
0.0
  0
LINE
  8
0
 62
0
 10
2.525
 20
45.9875
 30
0.0
 11
2.525
 21
45.3875
 31
0.0
  0
LINE
  8
0
 62
0
 10
16.525
 20
45.9875
 30
0.0
 11
17.325
 21
45.9875
 31
0.0
  0
LINE
  8
0
 62
0
 10
2.525
 20
45.3875
 30
0.0
 11
16.525
 21
45.3875
 31
0.0
  0
LINE
  8
0
 62
0
 10
16.525
 20
45.3875
 30
0.0
 11
16.525
 21
45.9875
 31
0.0
  0
LINE
  8
0
 62
0
 10
114.15625
 20
-59.3875
 30
0.0
 11
114.15625
 21
-58.7875
 31
0.0
  0
LINE
  8
0
 62
0
 10
100.15625
 20
-59.3875
 30
0.0
 11
114.15625
 21
-59.3875
 31
0.0
  0
LINE
  8
0
 62
0
 10
114.15625
 20
-58.7875
 30
0.0
 11
114.95625
 21
-58.7875
 31
0.0
  0
LINE
  8
0
 62
0
 10
100.15625
 20
-58.7875
 30
0.0
 11
100.15625
 21
-59.3875
 31
0.0
  0
LINE
  8
0
 62
0
 10
114.95625
 20
-58.7875
 30
0.0
 11
114.95625
 21
-45.9875
 31
0.0
  0
LINE
  8
0
 62
0
 10
99.35625
 20
-58.7875
 30
0.0
 11
100.15625
 21
-58.7875
 31
0.0
  0
LINE
  8
0
 62
0
 10
114.95625
 20
-45.9875
 30
0.0
 11
114.15625
 21
-45.9875
 31
0.0
  0
LINE
  8
0
 62
0
 10
99.35625
 20
-45.9875
 30
0.0
 11
99.35625
 21
-58.7875
 31
0.0
  0
LINE
  8
0
 62
0
 10
114.15625
 20
-45.9875
 30
0.0
 11
114.15625
 21
-45.3875
 31
0.0
  0
LINE
  8
0
 62
0
 10
100.15625
 20
-45.9875
 30
0.0
 11
99.35625
 21
-45.9875
 31
0.0
  0
LINE
  8
0
 62
0
 10
114.15625
 20
-45.3875
 30
0.0
 11
100.15625
 21
-45.3875
 31
0.0
  0
LINE
  8
0
 62
0
 10
100.15625
 20
-45.3875
 30
0.0
 11
100.15625
 21
-45.9875
 31
0.0
  0
LINE
  8
0
 62
0
 10
-169.725
 20
11.1625
 30
0.0
 11
-169.725
 21
-1.6375
 31
0.0
  0
LINE
  8
0
 62
0
 10
-168.925
 20
11.1625
 30
0.0
 11
-169.725
 21
11.1625
 31
0.0
  0
LINE
  8
0
 62
0
 10
-169.725
 20
-1.6375
 30
0.0
 11
-168.925
 21
-1.6375
 31
0.0
  0
LINE
  8
0
 62
0
 10
-168.925
 20
11.7625
 30
0.0
 11
-168.925
 21
11.1625
 31
0.0
  0
LINE
  8
0
 62
0
 10
-168.925
 20
-1.6375
 30
0.0
 11
-168.925
 21
-2.2375
 31
0.0
  0
LINE
  8
0
 62
0
 10
-154.925
 20
11.7625
 30
0.0
 11
-168.925
 21
11.7625
 31
0.0
  0
LINE
  8
0
 62
0
 10
-168.925
 20
-2.2375
 30
0.0
 11
-154.925
 21
-2.2375
 31
0.0
  0
LINE
  8
0
 62
0
 10
-154.925
 20
11.1625
 30
0.0
 11
-154.925
 21
11.7625
 31
0.0
  0
LINE
  8
0
 62
0
 10
-154.925
 20
-2.2375
 30
0.0
 11
-154.925
 21
-1.6375
 31
0.0
  0
LINE
  8
0
 62
0
 10
-154.125
 20
11.1625
 30
0.0
 11
-154.925
 21
11.1625
 31
0.0
  0
LINE
  8
0
 62
0
 10
-154.925
 20
-1.6375
 30
0.0
 11
-154.125
 21
-1.6375
 31
0.0
  0
LINE
  8
0
 62
0
 10
-154.125
 20
-1.6375
 30
0.0
 11
-154.125
 21
11.1625
 31
0.0
  0
LINE
  8
0
 62
0
 10
-69.2
 20
45.9875
 30
0.0
 11
-68.4
 21
45.9875
 31
0.0
  0
LINE
  8
0
 62
0
 10
-69.2
 20
45.3875
 30
0.0
 11
-69.2
 21
45.9875
 31
0.0
  0
LINE
  8
0
 62
0
 10
-68.4
 20
45.9875
 30
0.0
 11
-68.4
 21
58.7875
 31
0.0
  0
LINE
  8
0
 62
0
 10
-83.2
 20
45.3875
 30
0.0
 11
-69.2
 21
45.3875
 31
0.0
  0
LINE
  8
0
 62
0
 10
-68.4
 20
58.7875
 30
0.0
 11
-69.2
 21
58.7875
 31
0.0
  0
LINE
  8
0
 62
0
 10
-83.2
 20
45.9875
 30
0.0
 11
-83.2
 21
45.3875
 31
0.0
  0
LINE
  8
0
 62
0
 10
-69.2
 20
58.7875
 30
0.0
 11
-69.2
 21
59.3875
 31
0.0
  0
LINE
  8
0
 62
0
 10
-84.0
 20
45.9875
 30
0.0
 11
-83.2
 21
45.9875
 31
0.0
  0
LINE
  8
0
 62
0
 10
-69.2
 20
59.3875
 30
0.0
 11
-83.2
 21
59.3875
 31
0.0
  0
LINE
  8
0
 62
0
 10
-84.0
 20
58.7875
 30
0.0
 11
-84.0
 21
45.9875
 31
0.0
  0
LINE
  8
0
 62
0
 10
-83.2
 20
59.3875
 30
0.0
 11
-83.2
 21
58.7875
 31
0.0
  0
LINE
  8
0
 62
0
 10
-83.2
 20
58.7875
 30
0.0
 11
-84.0
 21
58.7875
 31
0.0
  0
LINE
  8
0
 62
0
 10
168.925
 20
11.7625
 30
0.0
 11
154.925
 21
11.7625
 31
0.0
  0
LINE
  8
0
 62
0
 10
168.925
 20
11.1625
 30
0.0
 11
168.925
 21
11.7625
 31
0.0
  0
LINE
  8
0
 62
0
 10
154.925
 20
11.7625
 30
0.0
 11
154.925
 21
11.1625
 31
0.0
  0
LINE
  8
0
 62
0
 10
169.725
 20
11.1625
 30
0.0
 11
168.925
 21
11.1625
 31
0.0
  0
LINE
  8
0
 62
0
 10
154.925
 20
11.1625
 30
0.0
 11
154.125
 21
11.1625
 31
0.0
  0
LINE
  8
0
 62
0
 10
169.725
 20
-1.6375
 30
0.0
 11
169.725
 21
11.1625
 31
0.0
  0
LINE
  8
0
 62
0
 10
154.125
 20
11.1625
 30
0.0
 11
154.125
 21
-1.6375
 31
0.0
  0
LINE
  8
0
 62
0
 10
168.925
 20
-1.6375
 30
0.0
 11
169.725
 21
-1.6375
 31
0.0
  0
LINE
  8
0
 62
0
 10
154.125
 20
-1.6375
 30
0.0
 11
154.925
 21
-1.6375
 31
0.0
  0
LINE
  8
0
 62
0
 10
168.925
 20
-2.2375
 30
0.0
 11
168.925
 21
-1.6375
 31
0.0
  0
LINE
  8
0
 62
0
 10
154.925
 20
-1.6375
 30
0.0
 11
154.925
 21
-2.2375
 31
0.0
  0
LINE
  8
0
 62
0
 10
154.925
 20
-2.2375
 30
0.0
 11
168.925
 21
-2.2375
 31
0.0
  0
LINE
  8
0
 62
0
 10
67.33125
 20
-58.7875
 30
0.0
 11
67.33125
 21
-45.9875
 31
0.0
  0
LINE
  8
0
 62
0
 10
66.53125
 20
-58.7875
 30
0.0
 11
67.33125
 21
-58.7875
 31
0.0
  0
LINE
  8
0
 62
0
 10
67.33125
 20
-45.9875
 30
0.0
 11
66.53125
 21
-45.9875
 31
0.0
  0
LINE
  8
0
 62
0
 10
66.53125
 20
-59.3875
 30
0.0
 11
66.53125
 21
-58.7875
 31
0.0
  0
LINE
  8
0
 62
0
 10
66.53125
 20
-45.9875
 30
0.0
 11
66.53125
 21
-45.3875
 31
0.0
  0
LINE
  8
0
 62
0
 10
52.53125
 20
-59.3875
 30
0.0
 11
66.53125
 21
-59.3875
 31
0.0
  0
LINE
  8
0
 62
0
 10
66.53125
 20
-45.3875
 30
0.0
 11
52.53125
 21
-45.3875
 31
0.0
  0
LINE
  8
0
 62
0
 10
52.53125
 20
-58.7875
 30
0.0
 11
52.53125
 21
-59.3875
 31
0.0
  0
LINE
  8
0
 62
0
 10
52.53125
 20
-45.3875
 30
0.0
 11
52.53125
 21
-45.9875
 31
0.0
  0
LINE
  8
0
 62
0
 10
51.73125
 20
-58.7875
 30
0.0
 11
52.53125
 21
-58.7875
 31
0.0
  0
LINE
  8
0
 62
0
 10
52.53125
 20
-45.9875
 30
0.0
 11
51.73125
 21
-45.9875
 31
0.0
  0
LINE
  8
0
 62
0
 10
51.73125
 20
-45.9875
 30
0.0
 11
51.73125
 21
-58.7875
 31
0.0
  0
LINE
  8
0
 62
0
 10
-16.525
 20
-2.2375
 30
0.0
 11
-2.525
 21
-2.2375
 31
0.0
  0
LINE
  8
0
 62
0
 10
-16.525
 20
-1.6375
 30
0.0
 11
-16.525
 21
-2.2375
 31
0.0
  0
LINE
  8
0
 62
0
 10
-2.525
 20
-2.2375
 30
0.0
 11
-2.525
 21
-1.6375
 31
0.0
  0
LINE
  8
0
 62
0
 10
-17.325
 20
-1.6375
 30
0.0
 11
-16.525
 21
-1.6375
 31
0.0
  0
LINE
  8
0
 62
0
 10
-2.525
 20
-1.6375
 30
0.0
 11
-1.725
 21
-1.6375
 31
0.0
  0
LINE
  8
0
 62
0
 10
-17.325
 20
11.1625
 30
0.0
 11
-17.325
 21
-1.6375
 31
0.0
  0
LINE
  8
0
 62
0
 10
-1.725
 20
-1.6375
 30
0.0
 11
-1.725
 21
11.1625
 31
0.0
  0
LINE
  8
0
 62
0
 10
-16.525
 20
11.1625
 30
0.0
 11
-17.325
 21
11.1625
 31
0.0
  0
LINE
  8
0
 62
0
 10
-1.725
 20
11.1625
 30
0.0
 11
-2.525
 21
11.1625
 31
0.0
  0
LINE
  8
0
 62
0
 10
-16.525
 20
11.7625
 30
0.0
 11
-16.525
 21
11.1625
 31
0.0
  0
LINE
  8
0
 62
0
 10
-2.525
 20
11.1625
 30
0.0
 11
-2.525
 21
11.7625
 31
0.0
  0
LINE
  8
0
 62
0
 10
-2.525
 20
11.7625
 30
0.0
 11
-16.525
 21
11.7625
 31
0.0
  0
LINE
  8
0
 62
0
 10
111.775
 20
11.7625
 30
0.0
 11
97.775
 21
11.7625
 31
0.0
  0
LINE
  8
0
 62
0
 10
111.775
 20
11.1625
 30
0.0
 11
111.775
 21
11.7625
 31
0.0
  0
LINE
  8
0
 62
0
 10
97.775
 20
11.7625
 30
0.0
 11
97.775
 21
11.1625
 31
0.0
  0
LINE
  8
0
 62
0
 10
112.575
 20
11.1625
 30
0.0
 11
111.775
 21
11.1625
 31
0.0
  0
LINE
  8
0
 62
0
 10
97.775
 20
11.1625
 30
0.0
 11
96.975
 21
11.1625
 31
0.0
  0
LINE
  8
0
 62
0
 10
112.575
 20
-1.6375
 30
0.0
 11
112.575
 21
11.1625
 31
0.0
  0
LINE
  8
0
 62
0
 10
96.975
 20
11.1625
 30
0.0
 11
96.975
 21
-1.6375
 31
0.0
  0
LINE
  8
0
 62
0
 10
111.775
 20
-1.6375
 30
0.0
 11
112.575
 21
-1.6375
 31
0.0
  0
LINE
  8
0
 62
0
 10
96.975
 20
-1.6375
 30
0.0
 11
97.775
 21
-1.6375
 31
0.0
  0
LINE
  8
0
 62
0
 10
111.775
 20
-2.2375
 30
0.0
 11
111.775
 21
-1.6375
 31
0.0
  0
LINE
  8
0
 62
0
 10
97.775
 20
-1.6375
 30
0.0
 11
97.775
 21
-2.2375
 31
0.0
  0
LINE
  8
0
 62
0
 10
97.775
 20
-2.2375
 30
0.0
 11
111.775
 21
-2.2375
 31
0.0
  0
LINE
  8
0
 62
0
 10
59.675
 20
11.7625
 30
0.0
 11
59.675
 21
11.1625
 31
0.0
  0
LINE
  8
0
 62
0
 10
73.675
 20
11.7625
 30
0.0
 11
59.675
 21
11.7625
 31
0.0
  0
LINE
  8
0
 62
0
 10
59.675
 20
11.1625
 30
0.0
 11
58.875
 21
11.1625
 31
0.0
  0
LINE
  8
0
 62
0
 10
73.675
 20
11.1625
 30
0.0
 11
73.675
 21
11.7625
 31
0.0
  0
LINE
  8
0
 62
0
 10
58.875
 20
11.1625
 30
0.0
 11
58.875
 21
-1.6375
 31
0.0
  0
LINE
  8
0
 62
0
 10
74.475
 20
11.1625
 30
0.0
 11
73.675
 21
11.1625
 31
0.0
  0
LINE
  8
0
 62
0
 10
58.875
 20
-1.6375
 30
0.0
 11
59.675
 21
-1.6375
 31
0.0
  0
LINE
  8
0
 62
0
 10
74.475
 20
-1.6375
 30
0.0
 11
74.475
 21
11.1625
 31
0.0
  0
LINE
  8
0
 62
0
 10
59.675
 20
-1.6375
 30
0.0
 11
59.675
 21
-2.2375
 31
0.0
  0
LINE
  8
0
 62
0
 10
73.675
 20
-1.6375
 30
0.0
 11
74.475
 21
-1.6375
 31
0.0
  0
LINE
  8
0
 62
0
 10
59.675
 20
-2.2375
 30
0.0
 11
73.675
 21
-2.2375
 31
0.0
  0
LINE
  8
0
 62
0
 10
73.675
 20
-2.2375
 30
0.0
 11
73.675
 21
-1.6375
 31
0.0
  0
LINE
  8
0
 62
0
 10
107.3
 20
45.3875
 30
0.0
 11
121.3
 21
45.3875
 31
0.0
  0
LINE
  8
0
 62
0
 10
107.3
 20
45.9875
 30
0.0
 11
107.3
 21
45.3875
 31
0.0
  0
LINE
  8
0
 62
0
 10
121.3
 20
45.3875
 30
0.0
 11
121.3
 21
45.9875
 31
0.0
  0
LINE
  8
0
 62
0
 10
106.5
 20
45.9875
 30
0.0
 11
107.3
 21
45.9875
 31
0.0
  0
LINE
  8
0
 62
0
 10
121.3
 20
45.9875
 30
0.0
 11
122.1
 21
45.9875
 31
0.0
  0
LINE
  8
0
 62
0
 10
106.5
 20
58.7875
 30
0.0
 11
106.5
 21
45.9875
 31
0.0
  0
LINE
  8
0
 62
0
 10
122.1
 20
45.9875
 30
0.0
 11
122.1
 21
58.7875
 31
0.0
  0
LINE
  8
0
 62
0
 10
107.3
 20
58.7875
 30
0.0
 11
106.5
 21
58.7875
 31
0.0
  0
LINE
  8
0
 62
0
 10
122.1
 20
58.7875
 30
0.0
 11
121.3
 21
58.7875
 31
0.0
  0
LINE
  8
0
 62
0
 10
107.3
 20
59.3875
 30
0.0
 11
107.3
 21
58.7875
 31
0.0
  0
LINE
  8
0
 62
0
 10
121.3
 20
58.7875
 30
0.0
 11
121.3
 21
59.3875
 31
0.0
  0
LINE
  8
0
 62
0
 10
121.3
 20
59.3875
 30
0.0
 11
107.3
 21
59.3875
 31
0.0
  0
LINE
  8
0
 62
0
 10
83.2
 20
30.8125
 30
0.0
 11
69.2
 21
30.8125
 31
0.0
  0
LINE
  8
0
 62
0
 10
83.2
 20
30.2125
 30
0.0
 11
83.2
 21
30.8125
 31
0.0
  0
LINE
  8
0
 62
0
 10
69.2
 20
30.8125
 30
0.0
 11
69.2
 21
30.2125
 31
0.0
  0
LINE
  8
0
 62
0
 10
84.0
 20
30.2125
 30
0.0
 11
83.2
 21
30.2125
 31
0.0
  0
LINE
  8
0
 62
0
 10
69.2
 20
30.2125
 30
0.0
 11
68.4
 21
30.2125
 31
0.0
  0
LINE
  8
0
 62
0
 10
84.0
 20
17.4125
 30
0.0
 11
84.0
 21
30.2125
 31
0.0
  0
LINE
  8
0
 62
0
 10
68.4
 20
30.2125
 30
0.0
 11
68.4
 21
17.4125
 31
0.0
  0
LINE
  8
0
 62
0
 10
83.2
 20
17.4125
 30
0.0
 11
84.0
 21
17.4125
 31
0.0
  0
LINE
  8
0
 62
0
 10
68.4
 20
17.4125
 30
0.0
 11
69.2
 21
17.4125
 31
0.0
  0
LINE
  8
0
 62
0
 10
83.2
 20
16.8125
 30
0.0
 11
83.2
 21
17.4125
 31
0.0
  0
LINE
  8
0
 62
0
 10
69.2
 20
17.4125
 30
0.0
 11
69.2
 21
16.8125
 31
0.0
  0
LINE
  8
0
 62
0
 10
69.2
 20
16.8125
 30
0.0
 11
83.2
 21
16.8125
 31
0.0
  0
LINE
  8
0
 62
0
 10
-50.15
 20
45.3875
 30
0.0
 11
-50.15
 21
45.9875
 31
0.0
  0
LINE
  8
0
 62
0
 10
-64.15
 20
45.3875
 30
0.0
 11
-50.15
 21
45.3875
 31
0.0
  0
LINE
  8
0
 62
0
 10
-50.15
 20
45.9875
 30
0.0
 11
-49.35
 21
45.9875
 31
0.0
  0
LINE
  8
0
 62
0
 10
-64.15
 20
45.9875
 30
0.0
 11
-64.15
 21
45.3875
 31
0.0
  0
LINE
  8
0
 62
0
 10
-49.35
 20
45.9875
 30
0.0
 11
-49.35
 21
58.7875
 31
0.0
  0
LINE
  8
0
 62
0
 10
-64.95
 20
45.9875
 30
0.0
 11
-64.15
 21
45.9875
 31
0.0
  0
LINE
  8
0
 62
0
 10
-49.35
 20
58.7875
 30
0.0
 11
-50.15
 21
58.7875
 31
0.0
  0
LINE
  8
0
 62
0
 10
-64.95
 20
58.7875
 30
0.0
 11
-64.95
 21
45.9875
 31
0.0
  0
LINE
  8
0
 62
0
 10
-50.15
 20
58.7875
 30
0.0
 11
-50.15
 21
59.3875
 31
0.0
  0
LINE
  8
0
 62
0
 10
-64.15
 20
58.7875
 30
0.0
 11
-64.95
 21
58.7875
 31
0.0
  0
LINE
  8
0
 62
0
 10
-50.15
 20
59.3875
 30
0.0
 11
-64.15
 21
59.3875
 31
0.0
  0
LINE
  8
0
 62
0
 10
-64.15
 20
59.3875
 30
0.0
 11
-64.15
 21
58.7875
 31
0.0
  0
LINE
  8
0
 62
0
 10
31.6125
 20
-39.7375
 30
0.0
 11
31.6125
 21
-26.9375
 31
0.0
  0
LINE
  8
0
 62
0
 10
30.8125
 20
-39.7375
 30
0.0
 11
31.6125
 21
-39.7375
 31
0.0
  0
LINE
  8
0
 62
0
 10
31.6125
 20
-26.9375
 30
0.0
 11
30.8125
 21
-26.9375
 31
0.0
  0
LINE
  8
0
 62
0
 10
30.8125
 20
-40.3375
 30
0.0
 11
30.8125
 21
-39.7375
 31
0.0
  0
LINE
  8
0
 62
0
 10
30.8125
 20
-26.9375
 30
0.0
 11
30.8125
 21
-26.3375
 31
0.0
  0
LINE
  8
0
 62
0
 10
16.8125
 20
-40.3375
 30
0.0
 11
30.8125
 21
-40.3375
 31
0.0
  0
LINE
  8
0
 62
0
 10
30.8125
 20
-26.3375
 30
0.0
 11
16.8125
 21
-26.3375
 31
0.0
  0
LINE
  8
0
 62
0
 10
16.8125
 20
-39.7375
 30
0.0
 11
16.8125
 21
-40.3375
 31
0.0
  0
LINE
  8
0
 62
0
 10
16.8125
 20
-26.3375
 30
0.0
 11
16.8125
 21
-26.9375
 31
0.0
  0
LINE
  8
0
 62
0
 10
16.0125
 20
-39.7375
 30
0.0
 11
16.8125
 21
-39.7375
 31
0.0
  0
LINE
  8
0
 62
0
 10
16.8125
 20
-26.9375
 30
0.0
 11
16.0125
 21
-26.9375
 31
0.0
  0
LINE
  8
0
 62
0
 10
16.0125
 20
-26.9375
 30
0.0
 11
16.0125
 21
-39.7375
 31
0.0
  0
LINE
  8
0
 62
0
 10
-39.825
 20
11.1625
 30
0.0
 11
-40.625
 21
11.1625
 31
0.0
  0
LINE
  8
0
 62
0
 10
-39.825
 20
-1.6375
 30
0.0
 11
-39.825
 21
11.1625
 31
0.0
  0
LINE
  8
0
 62
0
 10
-40.625
 20
11.1625
 30
0.0
 11
-40.625
 21
11.7625
 31
0.0
  0
LINE
  8
0
 62
0
 10
-40.625
 20
-1.6375
 30
0.0
 11
-39.825
 21
-1.6375
 31
0.0
  0
LINE
  8
0
 62
0
 10
-40.625
 20
11.7625
 30
0.0
 11
-54.625
 21
11.7625
 31
0.0
  0
LINE
  8
0
 62
0
 10
-40.625
 20
-2.2375
 30
0.0
 11
-40.625
 21
-1.6375
 31
0.0
  0
LINE
  8
0
 62
0
 10
-54.625
 20
11.7625
 30
0.0
 11
-54.625
 21
11.1625
 31
0.0
  0
LINE
  8
0
 62
0
 10
-54.625
 20
-2.2375
 30
0.0
 11
-40.625
 21
-2.2375
 31
0.0
  0
LINE
  8
0
 62
0
 10
-54.625
 20
11.1625
 30
0.0
 11
-55.425
 21
11.1625
 31
0.0
  0
LINE
  8
0
 62
0
 10
-54.625
 20
-1.6375
 30
0.0
 11
-54.625
 21
-2.2375
 31
0.0
  0
LINE
  8
0
 62
0
 10
-55.425
 20
11.1625
 30
0.0
 11
-55.425
 21
-1.6375
 31
0.0
  0
LINE
  8
0
 62
0
 10
-55.425
 20
-1.6375
 30
0.0
 11
-54.625
 21
-1.6375
 31
0.0
  0
LINE
  8
0
 62
0
 10
169.725
 20
-58.7875
 30
0.0
 11
169.725
 21
-45.9875
 31
0.0
  0
LINE
  8
0
 62
0
 10
169.725
 20
-45.9875
 30
0.0
 11
168.925
 21
-45.9875
 31
0.0
  0
LINE
  8
0
 62
0
 10
168.925
 20
-45.9875
 30
0.0
 11
168.925
 21
-45.3875
 31
0.0
  0
LINE
  8
0
 62
0
 10
168.925
 20
-45.3875
 30
0.0
 11
154.925
 21
-45.3875
 31
0.0
  0
LINE
  8
0
 62
0
 10
154.925
 20
-45.3875
 30
0.0
 11
154.925
 21
-45.9875
 31
0.0
  0
LINE
  8
0
 62
0
 10
154.925
 20
-45.9875
 30
0.0
 11
154.125
 21
-45.9875
 31
0.0
  0
LINE
  8
0
 62
0
 10
154.125
 20
-45.9875
 30
0.0
 11
154.125
 21
-58.7875
 31
0.0
  0
LINE
  8
0
 62
0
 10
154.125
 20
-58.7875
 30
0.0
 11
154.925
 21
-58.7875
 31
0.0
  0
LINE
  8
0
 62
0
 10
154.925
 20
-58.7875
 30
0.0
 11
154.925
 21
-59.3875
 31
0.0
  0
LINE
  8
0
 62
0
 10
154.925
 20
-59.3875
 30
0.0
 11
168.925
 21
-59.3875
 31
0.0
  0
LINE
  8
0
 62
0
 10
168.925
 20
-59.3875
 30
0.0
 11
168.925
 21
-58.7875
 31
0.0
  0
LINE
  8
0
 62
0
 10
168.925
 20
-58.7875
 30
0.0
 11
169.725
 21
-58.7875
 31
0.0
  0
LINE
  8
0
 62
0
 10
-97.775
 20
11.7625
 30
0.0
 11
-111.775
 21
11.7625
 31
0.0
  0
LINE
  8
0
 62
0
 10
-97.775
 20
11.1625
 30
0.0
 11
-97.775
 21
11.7625
 31
0.0
  0
LINE
  8
0
 62
0
 10
-111.775
 20
11.7625
 30
0.0
 11
-111.775
 21
11.1625
 31
0.0
  0
LINE
  8
0
 62
0
 10
-96.975
 20
11.1625
 30
0.0
 11
-97.775
 21
11.1625
 31
0.0
  0
LINE
  8
0
 62
0
 10
-111.775
 20
11.1625
 30
0.0
 11
-112.575
 21
11.1625
 31
0.0
  0
LINE
  8
0
 62
0
 10
-96.975
 20
-1.6375
 30
0.0
 11
-96.975
 21
11.1625
 31
0.0
  0
LINE
  8
0
 62
0
 10
-112.575
 20
11.1625
 30
0.0
 11
-112.575
 21
-1.6375
 31
0.0
  0
LINE
  8
0
 62
0
 10
-97.775
 20
-1.6375
 30
0.0
 11
-96.975
 21
-1.6375
 31
0.0
  0
LINE
  8
0
 62
0
 10
-112.575
 20
-1.6375
 30
0.0
 11
-111.775
 21
-1.6375
 31
0.0
  0
LINE
  8
0
 62
0
 10
-97.775
 20
-2.2375
 30
0.0
 11
-97.775
 21
-1.6375
 31
0.0
  0
LINE
  8
0
 62
0
 10
-111.775
 20
-1.6375
 30
0.0
 11
-111.775
 21
-2.2375
 31
0.0
  0
LINE
  8
0
 62
0
 10
-111.775
 20
-2.2375
 30
0.0
 11
-97.775
 21
-2.2375
 31
0.0
  0
LINE
  8
0
 62
0
 10
130.825
 20
30.2125
 30
0.0
 11
130.825
 21
30.8125
 31
0.0
  0
LINE
  8
0
 62
0
 10
131.625
 20
30.2125
 30
0.0
 11
130.825
 21
30.2125
 31
0.0
  0
LINE
  8
0
 62
0
 10
130.825
 20
30.8125
 30
0.0
 11
116.825
 21
30.8125
 31
0.0
  0
LINE
  8
0
 62
0
 10
131.625
 20
28.5425
 30
0.0
 11
131.625
 21
30.2125
 31
0.0
  0
LINE
  8
0
 62
0
 10
116.825
 20
30.8125
 30
0.0
 11
116.825
 21
30.2125
 31
0.0
  0
LINE
  8
0
 62
0
 10
132.4
 20
28.5425
 30
0.0
 11
131.625
 21
28.5425
 31
0.0
  0
LINE
  8
0
 62
0
 10
116.825
 20
30.2125
 30
0.0
 11
116.025
 21
30.2125
 31
0.0
  0
LINE
  8
0
 62
0
 10
132.4
 20
29.3425
 30
0.0
 11
132.4
 21
28.5425
 31
0.0
  0
LINE
  8
0
 62
0
 10
116.025
 20
30.2125
 30
0.0
 11
116.025
 21
28.5425
 31
0.0
  0
LINE
  8
0
 62
0
 10
134.125
 20
29.3425
 30
0.0
 11
132.4
 21
29.3425
 31
0.0
  0
LINE
  8
0
 62
0
 10
116.025
 20
28.5425
 30
0.0
 11
115.25
 21
28.5425
 31
0.0
  0
LINE
  8
0
 62
0
 10
134.125
 20
30.2125
 30
0.0
 11
134.125
 21
29.3425
 31
0.0
  0
LINE
  8
0
 62
0
 10
115.25
 20
28.5425
 30
0.0
 11
115.25
 21
29.3425
 31
0.0
  0
LINE
  8
0
 62
0
 10
137.425
 20
30.2125
 30
0.0
 11
134.125
 21
30.2125
 31
0.0
  0
LINE
  8
0
 62
0
 10
115.25
 20
29.3425
 30
0.0
 11
113.525
 21
29.3425
 31
0.0
  0
LINE
  8
0
 62
0
 10
137.425
 20
29.3425
 30
0.0
 11
137.425
 21
30.2125
 31
0.0
  0
LINE
  8
0
 62
0
 10
113.525
 20
29.3425
 30
0.0
 11
113.525
 21
30.2125
 31
0.0
  0
LINE
  8
0
 62
0
 10
139.05
 20
29.3425
 30
0.0
 11
137.425
 21
29.3425
 31
0.0
  0
LINE
  8
0
 62
0
 10
113.525
 20
30.2125
 30
0.0
 11
110.225
 21
30.2125
 31
0.0
  0
LINE
  8
0
 62
0
 10
139.05
 20
26.1125
 30
0.0
 11
139.05
 21
29.3425
 31
0.0
  0
LINE
  8
0
 62
0
 10
110.225
 20
30.2125
 30
0.0
 11
110.225
 21
29.3425
 31
0.0
  0
LINE
  8
0
 62
0
 10
139.925
 20
26.1125
 30
0.0
 11
139.05
 21
26.1125
 31
0.0
  0
LINE
  8
0
 62
0
 10
110.225
 20
29.3425
 30
0.0
 11
108.6
 21
29.3425
 31
0.0
  0
LINE
  8
0
 62
0
 10
139.925
 20
23.3125
 30
0.0
 11
139.925
 21
26.1125
 31
0.0
  0
LINE
  8
0
 62
0
 10
108.6
 20
29.3425
 30
0.0
 11
108.6
 21
26.1125
 31
0.0
  0
LINE
  8
0
 62
0
 10
139.05
 20
23.3125
 30
0.0
 11
139.925
 21
23.3125
 31
0.0
  0
LINE
  8
0
 62
0
 10
108.6
 20
26.1125
 30
0.0
 11
107.725
 21
26.1125
 31
0.0
  0
LINE
  8
0
 62
0
 10
139.05
 20
17.0425
 30
0.0
 11
139.05
 21
23.3125
 31
0.0
  0
LINE
  8
0
 62
0
 10
107.725
 20
26.1125
 30
0.0
 11
107.725
 21
23.3125
 31
0.0
  0
LINE
  8
0
 62
0
 10
137.425
 20
17.0425
 30
0.0
 11
139.05
 21
17.0425
 31
0.0
  0
LINE
  8
0
 62
0
 10
107.725
 20
23.3125
 30
0.0
 11
108.6
 21
23.3125
 31
0.0
  0
LINE
  8
0
 62
0
 10
137.425
 20
16.0625
 30
0.0
 11
137.425
 21
17.0425
 31
0.0
  0
LINE
  8
0
 62
0
 10
108.6
 20
23.3125
 30
0.0
 11
108.6
 21
17.0425
 31
0.0
  0
LINE
  8
0
 62
0
 10
134.125
 20
16.0625
 30
0.0
 11
137.425
 21
16.0625
 31
0.0
  0
LINE
  8
0
 62
0
 10
108.6
 20
17.0425
 30
0.0
 11
110.225
 21
17.0425
 31
0.0
  0
LINE
  8
0
 62
0
 10
134.125
 20
17.0425
 30
0.0
 11
134.125
 21
16.0625
 31
0.0
  0
LINE
  8
0
 62
0
 10
110.225
 20
17.0425
 30
0.0
 11
110.225
 21
16.0625
 31
0.0
  0
LINE
  8
0
 62
0
 10
132.4
 20
17.0425
 30
0.0
 11
134.125
 21
17.0425
 31
0.0
  0
LINE
  8
0
 62
0
 10
110.225
 20
16.0625
 30
0.0
 11
113.525
 21
16.0625
 31
0.0
  0
LINE
  8
0
 62
0
 10
132.4
 20
17.8425
 30
0.0
 11
132.4
 21
17.0425
 31
0.0
  0
LINE
  8
0
 62
0
 10
113.525
 20
16.0625
 30
0.0
 11
113.525
 21
17.0425
 31
0.0
  0
LINE
  8
0
 62
0
 10
131.625
 20
17.8425
 30
0.0
 11
132.4
 21
17.8425
 31
0.0
  0
LINE
  8
0
 62
0
 10
113.525
 20
17.0425
 30
0.0
 11
115.25
 21
17.0425
 31
0.0
  0
LINE
  8
0
 62
0
 10
131.625
 20
17.4125
 30
0.0
 11
131.625
 21
17.8425
 31
0.0
  0
LINE
  8
0
 62
0
 10
115.25
 20
17.0425
 30
0.0
 11
115.25
 21
17.8425
 31
0.0
  0
LINE
  8
0
 62
0
 10
130.825
 20
17.4125
 30
0.0
 11
131.625
 21
17.4125
 31
0.0
  0
LINE
  8
0
 62
0
 10
115.25
 20
17.8425
 30
0.0
 11
116.025
 21
17.8425
 31
0.0
  0
LINE
  8
0
 62
0
 10
130.825
 20
16.8125
 30
0.0
 11
130.825
 21
17.4125
 31
0.0
  0
LINE
  8
0
 62
0
 10
116.025
 20
17.8425
 30
0.0
 11
116.025
 21
17.4125
 31
0.0
  0
LINE
  8
0
 62
0
 10
116.825
 20
16.8125
 30
0.0
 11
130.825
 21
16.8125
 31
0.0
  0
LINE
  8
0
 62
0
 10
116.025
 20
17.4125
 30
0.0
 11
116.825
 21
17.4125
 31
0.0
  0
LINE
  8
0
 62
0
 10
116.825
 20
17.4125
 30
0.0
 11
116.825
 21
16.8125
 31
0.0
  0
LINE
  8
0
 62
0
 10
17.325
 20
-1.6375
 30
0.0
 11
17.325
 21
11.1625
 31
0.0
  0
LINE
  8
0
 62
0
 10
16.525
 20
-1.6375
 30
0.0
 11
17.325
 21
-1.6375
 31
0.0
  0
LINE
  8
0
 62
0
 10
17.325
 20
11.1625
 30
0.0
 11
16.525
 21
11.1625
 31
0.0
  0
LINE
  8
0
 62
0
 10
16.525
 20
-2.2375
 30
0.0
 11
16.525
 21
-1.6375
 31
0.0
  0
LINE
  8
0
 62
0
 10
16.525
 20
11.1625
 30
0.0
 11
16.525
 21
11.7625
 31
0.0
  0
LINE
  8
0
 62
0
 10
2.525
 20
-2.2375
 30
0.0
 11
16.525
 21
-2.2375
 31
0.0
  0
LINE
  8
0
 62
0
 10
16.525
 20
11.7625
 30
0.0
 11
2.525
 21
11.7625
 31
0.0
  0
LINE
  8
0
 62
0
 10
2.525
 20
-1.6375
 30
0.0
 11
2.525
 21
-2.2375
 31
0.0
  0
LINE
  8
0
 62
0
 10
2.525
 20
11.7625
 30
0.0
 11
2.525
 21
11.1625
 31
0.0
  0
LINE
  8
0
 62
0
 10
1.725
 20
-1.6375
 30
0.0
 11
2.525
 21
-1.6375
 31
0.0
  0
LINE
  8
0
 62
0
 10
2.525
 20
11.1625
 30
0.0
 11
1.725
 21
11.1625
 31
0.0
  0
LINE
  8
0
 62
0
 10
1.725
 20
11.1625
 30
0.0
 11
1.725
 21
-1.6375
 31
0.0
  0
LINE
  8
0
 62
0
 10
-168.925
 20
58.7875
 30
0.0
 11
-169.725
 21
58.7875
 31
0.0
  0
LINE
  8
0
 62
0
 10
-168.925
 20
59.3875
 30
0.0
 11
-168.925
 21
58.7875
 31
0.0
  0
LINE
  8
0
 62
0
 10
-169.725
 20
58.7875
 30
0.0
 11
-169.725
 21
45.9875
 31
0.0
  0
LINE
  8
0
 62
0
 10
-154.925
 20
59.3875
 30
0.0
 11
-168.925
 21
59.3875
 31
0.0
  0
LINE
  8
0
 62
0
 10
-169.725
 20
45.9875
 30
0.0
 11
-168.925
 21
45.9875
 31
0.0
  0
LINE
  8
0
 62
0
 10
-154.925
 20
58.7875
 30
0.0
 11
-154.925
 21
59.3875
 31
0.0
  0
LINE
  8
0
 62
0
 10
-168.925
 20
45.9875
 30
0.0
 11
-168.925
 21
45.3875
 31
0.0
  0
LINE
  8
0
 62
0
 10
-154.125
 20
58.7875
 30
0.0
 11
-154.925
 21
58.7875
 31
0.0
  0
LINE
  8
0
 62
0
 10
-168.925
 20
45.3875
 30
0.0
 11
-154.925
 21
45.3875
 31
0.0
  0
LINE
  8
0
 62
0
 10
-154.125
 20
45.9875
 30
0.0
 11
-154.125
 21
58.7875
 31
0.0
  0
LINE
  8
0
 62
0
 10
-154.925
 20
45.3875
 30
0.0
 11
-154.925
 21
45.9875
 31
0.0
  0
LINE
  8
0
 62
0
 10
-154.925
 20
45.9875
 30
0.0
 11
-154.125
 21
45.9875
 31
0.0
  0
LINE
  8
0
 62
0
 10
-107.0125
 20
-21.2875
 30
0.0
 11
-93.0125
 21
-21.2875
 31
0.0
  0
LINE
  8
0
 62
0
 10
-107.0125
 20
-20.6875
 30
0.0
 11
-107.0125
 21
-21.2875
 31
0.0
  0
LINE
  8
0
 62
0
 10
-93.0125
 20
-21.2875
 30
0.0
 11
-93.0125
 21
-20.6875
 31
0.0
  0
LINE
  8
0
 62
0
 10
-107.8125
 20
-20.6875
 30
0.0
 11
-107.0125
 21
-20.6875
 31
0.0
  0
LINE
  8
0
 62
0
 10
-93.0125
 20
-20.6875
 30
0.0
 11
-92.2125
 21
-20.6875
 31
0.0
  0
LINE
  8
0
 62
0
 10
-107.8125
 20
-7.8875
 30
0.0
 11
-107.8125
 21
-20.6875
 31
0.0
  0
LINE
  8
0
 62
0
 10
-92.2125
 20
-20.6875
 30
0.0
 11
-92.2125
 21
-7.8875
 31
0.0
  0
LINE
  8
0
 62
0
 10
-107.0125
 20
-7.8875
 30
0.0
 11
-107.8125
 21
-7.8875
 31
0.0
  0
LINE
  8
0
 62
0
 10
-92.2125
 20
-7.8875
 30
0.0
 11
-93.0125
 21
-7.8875
 31
0.0
  0
LINE
  8
0
 62
0
 10
-107.0125
 20
-7.2875
 30
0.0
 11
-107.0125
 21
-7.8875
 31
0.0
  0
LINE
  8
0
 62
0
 10
-93.0125
 20
-7.8875
 30
0.0
 11
-93.0125
 21
-7.2875
 31
0.0
  0
LINE
  8
0
 62
0
 10
-93.0125
 20
-7.2875
 30
0.0
 11
-107.0125
 21
-7.2875
 31
0.0
  0
LINE
  8
0
 62
0
 10
79.2375
 20
-20.6875
 30
0.0
 11
79.2375
 21
-7.8875
 31
0.0
  0
LINE
  8
0
 62
0
 10
78.4375
 20
-20.6875
 30
0.0
 11
79.2375
 21
-20.6875
 31
0.0
  0
LINE
  8
0
 62
0
 10
79.2375
 20
-7.8875
 30
0.0
 11
78.4375
 21
-7.8875
 31
0.0
  0
LINE
  8
0
 62
0
 10
78.4375
 20
-21.2875
 30
0.0
 11
78.4375
 21
-20.6875
 31
0.0
  0
LINE
  8
0
 62
0
 10
78.4375
 20
-7.8875
 30
0.0
 11
78.4375
 21
-7.2875
 31
0.0
  0
LINE
  8
0
 62
0
 10
64.4375
 20
-21.2875
 30
0.0
 11
78.4375
 21
-21.2875
 31
0.0
  0
LINE
  8
0
 62
0
 10
78.4375
 20
-7.2875
 30
0.0
 11
64.4375
 21
-7.2875
 31
0.0
  0
LINE
  8
0
 62
0
 10
64.4375
 20
-20.6875
 30
0.0
 11
64.4375
 21
-21.2875
 31
0.0
  0
LINE
  8
0
 62
0
 10
64.4375
 20
-7.2875
 30
0.0
 11
64.4375
 21
-7.8875
 31
0.0
  0
LINE
  8
0
 62
0
 10
63.6375
 20
-20.6875
 30
0.0
 11
64.4375
 21
-20.6875
 31
0.0
  0
LINE
  8
0
 62
0
 10
64.4375
 20
-7.8875
 30
0.0
 11
63.6375
 21
-7.8875
 31
0.0
  0
LINE
  8
0
 62
0
 10
63.6375
 20
-7.8875
 30
0.0
 11
63.6375
 21
-20.6875
 31
0.0
  0
LINE
  8
0
 62
0
 10
88.7625
 20
-39.7375
 30
0.0
 11
88.7625
 21
-26.9375
 31
0.0
  0
LINE
  8
0
 62
0
 10
87.9625
 20
-39.7375
 30
0.0
 11
88.7625
 21
-39.7375
 31
0.0
  0
LINE
  8
0
 62
0
 10
88.7625
 20
-26.9375
 30
0.0
 11
87.9625
 21
-26.9375
 31
0.0
  0
LINE
  8
0
 62
0
 10
87.9625
 20
-40.3375
 30
0.0
 11
87.9625
 21
-39.7375
 31
0.0
  0
LINE
  8
0
 62
0
 10
87.9625
 20
-26.9375
 30
0.0
 11
87.9625
 21
-26.3375
 31
0.0
  0
LINE
  8
0
 62
0
 10
73.9625
 20
-40.3375
 30
0.0
 11
87.9625
 21
-40.3375
 31
0.0
  0
LINE
  8
0
 62
0
 10
87.9625
 20
-26.3375
 30
0.0
 11
73.9625
 21
-26.3375
 31
0.0
  0
LINE
  8
0
 62
0
 10
73.9625
 20
-39.7375
 30
0.0
 11
73.9625
 21
-40.3375
 31
0.0
  0
LINE
  8
0
 62
0
 10
73.9625
 20
-26.3375
 30
0.0
 11
73.9625
 21
-26.9375
 31
0.0
  0
LINE
  8
0
 62
0
 10
73.1625
 20
-39.7375
 30
0.0
 11
73.9625
 21
-39.7375
 31
0.0
  0
LINE
  8
0
 62
0
 10
73.9625
 20
-26.9375
 30
0.0
 11
73.1625
 21
-26.9375
 31
0.0
  0
LINE
  8
0
 62
0
 10
73.1625
 20
-26.9375
 30
0.0
 11
73.1625
 21
-39.7375
 31
0.0
  0
LINE
  8
0
 62
0
 10
-50.6625
 20
-20.6875
 30
0.0
 11
-49.8625
 21
-20.6875
 31
0.0
  0
LINE
  8
0
 62
0
 10
-50.6625
 20
-7.8875
 30
0.0
 11
-50.6625
 21
-20.6875
 31
0.0
  0
LINE
  8
0
 62
0
 10
-49.8625
 20
-20.6875
 30
0.0
 11
-49.8625
 21
-21.2875
 31
0.0
  0
LINE
  8
0
 62
0
 10
-49.8625
 20
-7.8875
 30
0.0
 11
-50.6625
 21
-7.8875
 31
0.0
  0
LINE
  8
0
 62
0
 10
-49.8625
 20
-21.2875
 30
0.0
 11
-35.8625
 21
-21.2875
 31
0.0
  0
LINE
  8
0
 62
0
 10
-49.8625
 20
-7.2875
 30
0.0
 11
-49.8625
 21
-7.8875
 31
0.0
  0
LINE
  8
0
 62
0
 10
-35.8625
 20
-21.2875
 30
0.0
 11
-35.8625
 21
-20.6875
 31
0.0
  0
LINE
  8
0
 62
0
 10
-35.8625
 20
-7.2875
 30
0.0
 11
-49.8625
 21
-7.2875
 31
0.0
  0
LINE
  8
0
 62
0
 10
-35.8625
 20
-20.6875
 30
0.0
 11
-35.0625
 21
-20.6875
 31
0.0
  0
LINE
  8
0
 62
0
 10
-35.8625
 20
-7.8875
 30
0.0
 11
-35.8625
 21
-7.2875
 31
0.0
  0
LINE
  8
0
 62
0
 10
-35.0625
 20
-20.6875
 30
0.0
 11
-35.0625
 21
-7.8875
 31
0.0
  0
LINE
  8
0
 62
0
 10
-35.0625
 20
-7.8875
 30
0.0
 11
-35.8625
 21
-7.8875
 31
0.0
  0
LINE
  8
0
 62
0
 10
137.96875
 20
-45.9875
 30
0.0
 11
137.96875
 21
-45.3875
 31
0.0
  0
LINE
  8
0
 62
0
 10
138.76875
 20
-45.9875
 30
0.0
 11
137.96875
 21
-45.9875
 31
0.0
  0
LINE
  8
0
 62
0
 10
137.96875
 20
-45.3875
 30
0.0
 11
123.96875
 21
-45.3875
 31
0.0
  0
LINE
  8
0
 62
0
 10
138.76875
 20
-58.7875
 30
0.0
 11
138.76875
 21
-45.9875
 31
0.0
  0
LINE
  8
0
 62
0
 10
123.96875
 20
-45.3875
 30
0.0
 11
123.96875
 21
-45.9875
 31
0.0
  0
LINE
  8
0
 62
0
 10
137.96875
 20
-58.7875
 30
0.0
 11
138.76875
 21
-58.7875
 31
0.0
  0
LINE
  8
0
 62
0
 10
123.96875
 20
-45.9875
 30
0.0
 11
123.16875
 21
-45.9875
 31
0.0
  0
LINE
  8
0
 62
0
 10
137.96875
 20
-59.3875
 30
0.0
 11
137.96875
 21
-58.7875
 31
0.0
  0
LINE
  8
0
 62
0
 10
123.16875
 20
-45.9875
 30
0.0
 11
123.16875
 21
-58.7875
 31
0.0
  0
LINE
  8
0
 62
0
 10
123.96875
 20
-59.3875
 30
0.0
 11
137.96875
 21
-59.3875
 31
0.0
  0
LINE
  8
0
 62
0
 10
123.16875
 20
-58.7875
 30
0.0
 11
123.96875
 21
-58.7875
 31
0.0
  0
LINE
  8
0
 62
0
 10
123.96875
 20
-58.7875
 30
0.0
 11
123.96875
 21
-59.3875
 31
0.0
  0
LINE
  8
0
 62
0
 10
-19.70625
 20
-58.7875
 30
0.0
 11
-18.90625
 21
-58.7875
 31
0.0
  0
LINE
  8
0
 62
0
 10
-19.70625
 20
-54.6875
 30
0.0
 11
-19.70625
 21
-58.7875
 31
0.0
  0
LINE
  8
0
 62
0
 10
-18.90625
 20
-58.7875
 30
0.0
 11
-18.90625
 21
-59.3875
 31
0.0
  0
LINE
  8
0
 62
0
 10
-58.58125
 20
-54.6875
 30
0.0
 11
-19.70625
 21
-54.6875
 31
0.0
  0
LINE
  8
0
 62
0
 10
-18.90625
 20
-59.3875
 30
0.0
 11
-4.90625
 21
-59.3875
 31
0.0
  0
LINE
  8
0
 62
0
 10
-58.58125
 20
-59.1575
 30
0.0
 11
-58.58125
 21
-54.6875
 31
0.0
  0
LINE
  8
0
 62
0
 10
-4.90625
 20
-59.3875
 30
0.0
 11
-4.90625
 21
-58.7875
 31
0.0
  0
LINE
  8
0
 62
0
 10
-60.25625
 20
-59.1575
 30
0.0
 11
-58.58125
 21
-59.1575
 31
0.0
  0
LINE
  8
0
 62
0
 10
-4.90625
 20
-58.7875
 30
0.0
 11
-4.10625
 21
-58.7875
 31
0.0
  0
LINE
  8
0
 62
0
 10
-60.25625
 20
-60.1375
 30
0.0
 11
-60.25625
 21
-59.1575
 31
0.0
  0
LINE
  8
0
 62
0
 10
-4.10625
 20
-58.7875
 30
0.0
 11
-4.10625
 21
-54.6875
 31
0.0
  0
LINE
  8
0
 62
0
 10
-63.55625
 20
-60.1375
 30
0.0
 11
-60.25625
 21
-60.1375
 31
0.0
  0
LINE
  8
0
 62
0
 10
-4.10625
 20
-54.6875
 30
0.0
 11
34.76875
 21
-54.6875
 31
0.0
  0
LINE
  8
0
 62
0
 10
-63.55625
 20
-59.1575
 30
0.0
 11
-63.55625
 21
-60.1375
 31
0.0
  0
LINE
  8
0
 62
0
 10
34.76875
 20
-54.6875
 30
0.0
 11
34.76875
 21
-59.1575
 31
0.0
  0
LINE
  8
0
 62
0
 10
-65.23125
 20
-59.1575
 30
0.0
 11
-63.55625
 21
-59.1575
 31
0.0
  0
LINE
  8
0
 62
0
 10
34.76875
 20
-59.1575
 30
0.0
 11
36.44375
 21
-59.1575
 31
0.0
  0
LINE
  8
0
 62
0
 10
-65.23125
 20
-52.8875
 30
0.0
 11
-65.23125
 21
-59.1575
 31
0.0
  0
LINE
  8
0
 62
0
 10
36.44375
 20
-59.1575
 30
0.0
 11
36.44375
 21
-60.1375
 31
0.0
  0
LINE
  8
0
 62
0
 10
-66.10625
 20
-52.8875
 30
0.0
 11
-65.23125
 21
-52.8875
 31
0.0
  0
LINE
  8
0
 62
0
 10
36.44375
 20
-60.1375
 30
0.0
 11
39.74375
 21
-60.1375
 31
0.0
  0
LINE
  8
0
 62
0
 10
-66.10625
 20
-50.0875
 30
0.0
 11
-66.10625
 21
-52.8875
 31
0.0
  0
LINE
  8
0
 62
0
 10
39.74375
 20
-60.1375
 30
0.0
 11
39.74375
 21
-59.1575
 31
0.0
  0
LINE
  8
0
 62
0
 10
-65.23125
 20
-50.0875
 30
0.0
 11
-66.10625
 21
-50.0875
 31
0.0
  0
LINE
  8
0
 62
0
 10
39.74375
 20
-59.1575
 30
0.0
 11
41.41875
 21
-59.1575
 31
0.0
  0
LINE
  8
0
 62
0
 10
-65.23125
 20
-46.8575
 30
0.0
 11
-65.23125
 21
-50.0875
 31
0.0
  0
LINE
  8
0
 62
0
 10
41.41875
 20
-59.1575
 30
0.0
 11
41.41875
 21
-52.8875
 31
0.0
  0
LINE
  8
0
 62
0
 10
-63.55625
 20
-46.8575
 30
0.0
 11
-65.23125
 21
-46.8575
 31
0.0
  0
LINE
  8
0
 62
0
 10
41.41875
 20
-52.8875
 30
0.0
 11
42.29375
 21
-52.8875
 31
0.0
  0
LINE
  8
0
 62
0
 10
-63.55625
 20
-45.9875
 30
0.0
 11
-63.55625
 21
-46.8575
 31
0.0
  0
LINE
  8
0
 62
0
 10
42.29375
 20
-52.8875
 30
0.0
 11
42.29375
 21
-50.0875
 31
0.0
  0
LINE
  8
0
 62
0
 10
-60.25625
 20
-45.9875
 30
0.0
 11
-63.55625
 21
-45.9875
 31
0.0
  0
LINE
  8
0
 62
0
 10
42.29375
 20
-50.0875
 30
0.0
 11
41.41875
 21
-50.0875
 31
0.0
  0
LINE
  8
0
 62
0
 10
-60.25625
 20
-46.8575
 30
0.0
 11
-60.25625
 21
-45.9875
 31
0.0
  0
LINE
  8
0
 62
0
 10
41.41875
 20
-50.0875
 30
0.0
 11
41.41875
 21
-46.8575
 31
0.0
  0
LINE
  8
0
 62
0
 10
-58.58125
 20
-46.8575
 30
0.0
 11
-60.25625
 21
-46.8575
 31
0.0
  0
LINE
  8
0
 62
0
 10
41.41875
 20
-46.8575
 30
0.0
 11
39.74375
 21
-46.8575
 31
0.0
  0
LINE
  8
0
 62
0
 10
-58.58125
 20
-50.0875
 30
0.0
 11
-58.58125
 21
-46.8575
 31
0.0
  0
LINE
  8
0
 62
0
 10
39.74375
 20
-46.8575
 30
0.0
 11
39.74375
 21
-45.9875
 31
0.0
  0
LINE
  8
0
 62
0
 10
-19.70625
 20
-50.0875
 30
0.0
 11
-58.58125
 21
-50.0875
 31
0.0
  0
LINE
  8
0
 62
0
 10
39.74375
 20
-45.9875
 30
0.0
 11
36.44375
 21
-45.9875
 31
0.0
  0
LINE
  8
0
 62
0
 10
-19.70625
 20
-45.9875
 30
0.0
 11
-19.70625
 21
-50.0875
 31
0.0
  0
LINE
  8
0
 62
0
 10
36.44375
 20
-45.9875
 30
0.0
 11
36.44375
 21
-46.8575
 31
0.0
  0
LINE
  8
0
 62
0
 10
-18.90625
 20
-45.9875
 30
0.0
 11
-19.70625
 21
-45.9875
 31
0.0
  0
LINE
  8
0
 62
0
 10
36.44375
 20
-46.8575
 30
0.0
 11
34.76875
 21
-46.8575
 31
0.0
  0
LINE
  8
0
 62
0
 10
-18.90625
 20
-45.3875
 30
0.0
 11
-18.90625
 21
-45.9875
 31
0.0
  0
LINE
  8
0
 62
0
 10
34.76875
 20
-46.8575
 30
0.0
 11
34.76875
 21
-50.0875
 31
0.0
  0
LINE
  8
0
 62
0
 10
-4.90625
 20
-45.3875
 30
0.0
 11
-18.90625
 21
-45.3875
 31
0.0
  0
LINE
  8
0
 62
0
 10
34.76875
 20
-50.0875
 30
0.0
 11
-4.10625
 21
-50.0875
 31
0.0
  0
LINE
  8
0
 62
0
 10
-4.90625
 20
-45.9875
 30
0.0
 11
-4.90625
 21
-45.3875
 31
0.0
  0
LINE
  8
0
 62
0
 10
-4.10625
 20
-50.0875
 30
0.0
 11
-4.10625
 21
-45.9875
 31
0.0
  0
LINE
  8
0
 62
0
 10
-4.10625
 20
-45.9875
 30
0.0
 11
-4.90625
 21
-45.9875
 31
0.0
  0
LINE
  8
0
 62
0
 10
49.35
 20
17.4125
 30
0.0
 11
50.15
 21
17.4125
 31
0.0
  0
LINE
  8
0
 62
0
 10
49.35
 20
30.2125
 30
0.0
 11
49.35
 21
17.4125
 31
0.0
  0
LINE
  8
0
 62
0
 10
50.15
 20
17.4125
 30
0.0
 11
50.15
 21
16.8125
 31
0.0
  0
LINE
  8
0
 62
0
 10
50.15
 20
30.2125
 30
0.0
 11
49.35
 21
30.2125
 31
0.0
  0
LINE
  8
0
 62
0
 10
50.15
 20
16.8125
 30
0.0
 11
64.15
 21
16.8125
 31
0.0
  0
LINE
  8
0
 62
0
 10
50.15
 20
30.8125
 30
0.0
 11
50.15
 21
30.2125
 31
0.0
  0
LINE
  8
0
 62
0
 10
64.15
 20
16.8125
 30
0.0
 11
64.15
 21
17.4125
 31
0.0
  0
LINE
  8
0
 62
0
 10
64.15
 20
30.8125
 30
0.0
 11
50.15
 21
30.8125
 31
0.0
  0
LINE
  8
0
 62
0
 10
64.15
 20
17.4125
 30
0.0
 11
64.95
 21
17.4125
 31
0.0
  0
LINE
  8
0
 62
0
 10
64.15
 20
30.2125
 30
0.0
 11
64.15
 21
30.8125
 31
0.0
  0
LINE
  8
0
 62
0
 10
64.95
 20
17.4125
 30
0.0
 11
64.95
 21
30.2125
 31
0.0
  0
LINE
  8
0
 62
0
 10
64.95
 20
30.2125
 30
0.0
 11
64.15
 21
30.2125
 31
0.0
  0
LINE
  8
0
 62
0
 10
140.35
 20
45.9875
 30
0.0
 11
141.15
 21
45.9875
 31
0.0
  0
LINE
  8
0
 62
0
 10
140.35
 20
45.3875
 30
0.0
 11
140.35
 21
45.9875
 31
0.0
  0
LINE
  8
0
 62
0
 10
141.15
 20
45.9875
 30
0.0
 11
141.15
 21
58.7875
 31
0.0
  0
LINE
  8
0
 62
0
 10
126.35
 20
45.3875
 30
0.0
 11
140.35
 21
45.3875
 31
0.0
  0
LINE
  8
0
 62
0
 10
141.15
 20
58.7875
 30
0.0
 11
140.35
 21
58.7875
 31
0.0
  0
LINE
  8
0
 62
0
 10
126.35
 20
45.9875
 30
0.0
 11
126.35
 21
45.3875
 31
0.0
  0
LINE
  8
0
 62
0
 10
140.35
 20
58.7875
 30
0.0
 11
140.35
 21
59.3875
 31
0.0
  0
LINE
  8
0
 62
0
 10
125.55
 20
45.9875
 30
0.0
 11
126.35
 21
45.9875
 31
0.0
  0
LINE
  8
0
 62
0
 10
140.35
 20
59.3875
 30
0.0
 11
126.35
 21
59.3875
 31
0.0
  0
LINE
  8
0
 62
0
 10
125.55
 20
58.7875
 30
0.0
 11
125.55
 21
45.9875
 31
0.0
  0
LINE
  8
0
 62
0
 10
126.35
 20
59.3875
 30
0.0
 11
126.35
 21
58.7875
 31
0.0
  0
LINE
  8
0
 62
0
 10
126.35
 20
58.7875
 30
0.0
 11
125.55
 21
58.7875
 31
0.0
  0
LINE
  8
0
 62
0
 10
114.44375
 20
-20.6875
 30
0.0
 11
114.44375
 21
-21.2875
 31
0.0
  0
LINE
  8
0
 62
0
 10
113.64375
 20
-20.6875
 30
0.0
 11
114.44375
 21
-20.6875
 31
0.0
  0
LINE
  8
0
 62
0
 10
114.44375
 20
-21.2875
 30
0.0
 11
128.44375
 21
-21.2875
 31
0.0
  0
LINE
  8
0
 62
0
 10
113.64375
 20
-20.2575
 30
0.0
 11
113.64375
 21
-20.6875
 31
0.0
  0
LINE
  8
0
 62
0
 10
128.44375
 20
-21.2875
 30
0.0
 11
128.44375
 21
-20.6875
 31
0.0
  0
LINE
  8
0
 62
0
 10
112.86875
 20
-20.2575
 30
0.0
 11
113.64375
 21
-20.2575
 31
0.0
  0
LINE
  8
0
 62
0
 10
128.44375
 20
-20.6875
 30
0.0
 11
129.24375
 21
-20.6875
 31
0.0
  0
LINE
  8
0
 62
0
 10
112.86875
 20
-21.0575
 30
0.0
 11
112.86875
 21
-20.2575
 31
0.0
  0
LINE
  8
0
 62
0
 10
129.24375
 20
-20.6875
 30
0.0
 11
129.24375
 21
-20.2575
 31
0.0
  0
LINE
  8
0
 62
0
 10
111.14375
 20
-21.0575
 30
0.0
 11
112.86875
 21
-21.0575
 31
0.0
  0
LINE
  8
0
 62
0
 10
129.24375
 20
-20.2575
 30
0.0
 11
130.01875
 21
-20.2575
 31
0.0
  0
LINE
  8
0
 62
0
 10
111.14375
 20
-22.0375
 30
0.0
 11
111.14375
 21
-21.0575
 31
0.0
  0
LINE
  8
0
 62
0
 10
130.01875
 20
-20.2575
 30
0.0
 11
130.01875
 21
-21.0575
 31
0.0
  0
LINE
  8
0
 62
0
 10
107.84375
 20
-22.0375
 30
0.0
 11
111.14375
 21
-22.0375
 31
0.0
  0
LINE
  8
0
 62
0
 10
130.01875
 20
-21.0575
 30
0.0
 11
131.74375
 21
-21.0575
 31
0.0
  0
LINE
  8
0
 62
0
 10
107.84375
 20
-21.0575
 30
0.0
 11
107.84375
 21
-22.0375
 31
0.0
  0
LINE
  8
0
 62
0
 10
131.74375
 20
-21.0575
 30
0.0
 11
131.74375
 21
-22.0375
 31
0.0
  0
LINE
  8
0
 62
0
 10
106.21875
 20
-21.0575
 30
0.0
 11
107.84375
 21
-21.0575
 31
0.0
  0
LINE
  8
0
 62
0
 10
131.74375
 20
-22.0375
 30
0.0
 11
135.04375
 21
-22.0375
 31
0.0
  0
LINE
  8
0
 62
0
 10
106.21875
 20
-14.7875
 30
0.0
 11
106.21875
 21
-21.0575
 31
0.0
  0
LINE
  8
0
 62
0
 10
135.04375
 20
-22.0375
 30
0.0
 11
135.04375
 21
-21.0575
 31
0.0
  0
LINE
  8
0
 62
0
 10
105.34375
 20
-14.7875
 30
0.0
 11
106.21875
 21
-14.7875
 31
0.0
  0
LINE
  8
0
 62
0
 10
135.04375
 20
-21.0575
 30
0.0
 11
136.66875
 21
-21.0575
 31
0.0
  0
LINE
  8
0
 62
0
 10
105.34375
 20
-11.9875
 30
0.0
 11
105.34375
 21
-14.7875
 31
0.0
  0
LINE
  8
0
 62
0
 10
136.66875
 20
-21.0575
 30
0.0
 11
136.66875
 21
-14.7875
 31
0.0
  0
LINE
  8
0
 62
0
 10
106.21875
 20
-11.9875
 30
0.0
 11
105.34375
 21
-11.9875
 31
0.0
  0
LINE
  8
0
 62
0
 10
136.66875
 20
-14.7875
 30
0.0
 11
137.54375
 21
-14.7875
 31
0.0
  0
LINE
  8
0
 62
0
 10
106.21875
 20
-8.7575
 30
0.0
 11
106.21875
 21
-11.9875
 31
0.0
  0
LINE
  8
0
 62
0
 10
137.54375
 20
-14.7875
 30
0.0
 11
137.54375
 21
-11.9875
 31
0.0
  0
LINE
  8
0
 62
0
 10
107.84375
 20
-8.7575
 30
0.0
 11
106.21875
 21
-8.7575
 31
0.0
  0
LINE
  8
0
 62
0
 10
137.54375
 20
-11.9875
 30
0.0
 11
136.66875
 21
-11.9875
 31
0.0
  0
LINE
  8
0
 62
0
 10
107.84375
 20
-7.8875
 30
0.0
 11
107.84375
 21
-8.7575
 31
0.0
  0
LINE
  8
0
 62
0
 10
136.66875
 20
-11.9875
 30
0.0
 11
136.66875
 21
-8.7575
 31
0.0
  0
LINE
  8
0
 62
0
 10
111.14375
 20
-7.8875
 30
0.0
 11
107.84375
 21
-7.8875
 31
0.0
  0
LINE
  8
0
 62
0
 10
136.66875
 20
-8.7575
 30
0.0
 11
135.04375
 21
-8.7575
 31
0.0
  0
LINE
  8
0
 62
0
 10
111.14375
 20
-8.7575
 30
0.0
 11
111.14375
 21
-7.8875
 31
0.0
  0
LINE
  8
0
 62
0
 10
135.04375
 20
-8.7575
 30
0.0
 11
135.04375
 21
-7.8875
 31
0.0
  0
LINE
  8
0
 62
0
 10
112.86875
 20
-8.7575
 30
0.0
 11
111.14375
 21
-8.7575
 31
0.0
  0
LINE
  8
0
 62
0
 10
135.04375
 20
-7.8875
 30
0.0
 11
131.74375
 21
-7.8875
 31
0.0
  0
LINE
  8
0
 62
0
 10
112.86875
 20
-9.5575
 30
0.0
 11
112.86875
 21
-8.7575
 31
0.0
  0
LINE
  8
0
 62
0
 10
131.74375
 20
-7.8875
 30
0.0
 11
131.74375
 21
-8.7575
 31
0.0
  0
LINE
  8
0
 62
0
 10
113.64375
 20
-9.5575
 30
0.0
 11
112.86875
 21
-9.5575
 31
0.0
  0
LINE
  8
0
 62
0
 10
131.74375
 20
-8.7575
 30
0.0
 11
130.01875
 21
-8.7575
 31
0.0
  0
LINE
  8
0
 62
0
 10
113.64375
 20
-7.8875
 30
0.0
 11
113.64375
 21
-9.5575
 31
0.0
  0
LINE
  8
0
 62
0
 10
130.01875
 20
-8.7575
 30
0.0
 11
130.01875
 21
-9.5575
 31
0.0
  0
LINE
  8
0
 62
0
 10
114.44375
 20
-7.8875
 30
0.0
 11
113.64375
 21
-7.8875
 31
0.0
  0
LINE
  8
0
 62
0
 10
130.01875
 20
-9.5575
 30
0.0
 11
129.24375
 21
-9.5575
 31
0.0
  0
LINE
  8
0
 62
0
 10
114.44375
 20
-7.2875
 30
0.0
 11
114.44375
 21
-7.8875
 31
0.0
  0
LINE
  8
0
 62
0
 10
129.24375
 20
-9.5575
 30
0.0
 11
129.24375
 21
-7.8875
 31
0.0
  0
LINE
  8
0
 62
0
 10
128.44375
 20
-7.2875
 30
0.0
 11
114.44375
 21
-7.2875
 31
0.0
  0
LINE
  8
0
 62
0
 10
129.24375
 20
-7.8875
 30
0.0
 11
128.44375
 21
-7.8875
 31
0.0
  0
LINE
  8
0
 62
0
 10
128.44375
 20
-7.8875
 30
0.0
 11
128.44375
 21
-7.2875
 31
0.0
  0
LINE
  8
0
 62
0
 10
-78.725
 20
-1.6375
 30
0.0
 11
-77.925
 21
-1.6375
 31
0.0
  0
LINE
  8
0
 62
0
 10
-78.725
 20
-2.2375
 30
0.0
 11
-78.725
 21
-1.6375
 31
0.0
  0
LINE
  8
0
 62
0
 10
-77.925
 20
-1.6375
 30
0.0
 11
-77.925
 21
11.1625
 31
0.0
  0
LINE
  8
0
 62
0
 10
-92.725
 20
-2.2375
 30
0.0
 11
-78.725
 21
-2.2375
 31
0.0
  0
LINE
  8
0
 62
0
 10
-77.925
 20
11.1625
 30
0.0
 11
-78.725
 21
11.1625
 31
0.0
  0
LINE
  8
0
 62
0
 10
-92.725
 20
-1.6375
 30
0.0
 11
-92.725
 21
-2.2375
 31
0.0
  0
LINE
  8
0
 62
0
 10
-78.725
 20
11.1625
 30
0.0
 11
-78.725
 21
11.7625
 31
0.0
  0
LINE
  8
0
 62
0
 10
-93.525
 20
-1.6375
 30
0.0
 11
-92.725
 21
-1.6375
 31
0.0
  0
LINE
  8
0
 62
0
 10
-78.725
 20
11.7625
 30
0.0
 11
-92.725
 21
11.7625
 31
0.0
  0
LINE
  8
0
 62
0
 10
-93.525
 20
11.1625
 30
0.0
 11
-93.525
 21
-1.6375
 31
0.0
  0
LINE
  8
0
 62
0
 10
-92.725
 20
11.7625
 30
0.0
 11
-92.725
 21
11.1625
 31
0.0
  0
LINE
  8
0
 62
0
 10
-92.725
 20
11.1625
 30
0.0
 11
-93.525
 21
11.1625
 31
0.0
  0
LINE
  8
0
 62
0
 10
97.4875
 20
-7.8875
 30
0.0
 11
97.4875
 21
-7.2875
 31
0.0
  0
LINE
  8
0
 62
0
 10
98.2875
 20
-7.8875
 30
0.0
 11
97.4875
 21
-7.8875
 31
0.0
  0
LINE
  8
0
 62
0
 10
97.4875
 20
-7.2875
 30
0.0
 11
83.4875
 21
-7.2875
 31
0.0
  0
LINE
  8
0
 62
0
 10
98.2875
 20
-20.6875
 30
0.0
 11
98.2875
 21
-7.8875
 31
0.0
  0
LINE
  8
0
 62
0
 10
83.4875
 20
-7.2875
 30
0.0
 11
83.4875
 21
-7.8875
 31
0.0
  0
LINE
  8
0
 62
0
 10
97.4875
 20
-20.6875
 30
0.0
 11
98.2875
 21
-20.6875
 31
0.0
  0
LINE
  8
0
 62
0
 10
83.4875
 20
-7.8875
 30
0.0
 11
82.6875
 21
-7.8875
 31
0.0
  0
LINE
  8
0
 62
0
 10
97.4875
 20
-21.2875
 30
0.0
 11
97.4875
 21
-20.6875
 31
0.0
  0
LINE
  8
0
 62
0
 10
82.6875
 20
-7.8875
 30
0.0
 11
82.6875
 21
-20.6875
 31
0.0
  0
LINE
  8
0
 62
0
 10
83.4875
 20
-21.2875
 30
0.0
 11
97.4875
 21
-21.2875
 31
0.0
  0
LINE
  8
0
 62
0
 10
82.6875
 20
-20.6875
 30
0.0
 11
83.4875
 21
-20.6875
 31
0.0
  0
LINE
  8
0
 62
0
 10
83.4875
 20
-20.6875
 30
0.0
 11
83.4875
 21
-21.2875
 31
0.0
  0
LINE
  8
0
 62
0
 10
54.9125
 20
-26.9375
 30
0.0
 11
54.1125
 21
-26.9375
 31
0.0
  0
LINE
  8
0
 62
0
 10
54.9125
 20
-26.3375
 30
0.0
 11
54.9125
 21
-26.9375
 31
0.0
  0
LINE
  8
0
 62
0
 10
54.1125
 20
-26.9375
 30
0.0
 11
54.1125
 21
-39.7375
 31
0.0
  0
LINE
  8
0
 62
0
 10
68.9125
 20
-26.3375
 30
0.0
 11
54.9125
 21
-26.3375
 31
0.0
  0
LINE
  8
0
 62
0
 10
54.1125
 20
-39.7375
 30
0.0
 11
54.9125
 21
-39.7375
 31
0.0
  0
LINE
  8
0
 62
0
 10
68.9125
 20
-26.9375
 30
0.0
 11
68.9125
 21
-26.3375
 31
0.0
  0
LINE
  8
0
 62
0
 10
54.9125
 20
-39.7375
 30
0.0
 11
54.9125
 21
-40.3375
 31
0.0
  0
LINE
  8
0
 62
0
 10
69.7125
 20
-26.9375
 30
0.0
 11
68.9125
 21
-26.9375
 31
0.0
  0
LINE
  8
0
 62
0
 10
54.9125
 20
-40.3375
 30
0.0
 11
68.9125
 21
-40.3375
 31
0.0
  0
LINE
  8
0
 62
0
 10
69.7125
 20
-39.7375
 30
0.0
 11
69.7125
 21
-26.9375
 31
0.0
  0
LINE
  8
0
 62
0
 10
68.9125
 20
-40.3375
 30
0.0
 11
68.9125
 21
-39.7375
 31
0.0
  0
LINE
  8
0
 62
0
 10
68.9125
 20
-39.7375
 30
0.0
 11
69.7125
 21
-39.7375
 31
0.0
  0
LINE
  8
0
 62
0
 10
-154.125
 20
-58.7875
 30
0.0
 11
-154.125
 21
-45.9875
 31
0.0
  0
LINE
  8
0
 62
0
 10
-154.925
 20
-58.7875
 30
0.0
 11
-154.125
 21
-58.7875
 31
0.0
  0
LINE
  8
0
 62
0
 10
-154.125
 20
-45.9875
 30
0.0
 11
-154.925
 21
-45.9875
 31
0.0
  0
LINE
  8
0
 62
0
 10
-154.925
 20
-59.3875
 30
0.0
 11
-154.925
 21
-58.7875
 31
0.0
  0
LINE
  8
0
 62
0
 10
-154.925
 20
-45.9875
 30
0.0
 11
-154.925
 21
-45.3875
 31
0.0
  0
LINE
  8
0
 62
0
 10
-168.925
 20
-59.3875
 30
0.0
 11
-154.925
 21
-59.3875
 31
0.0
  0
LINE
  8
0
 62
0
 10
-154.925
 20
-45.3875
 30
0.0
 11
-168.925
 21
-45.3875
 31
0.0
  0
LINE
  8
0
 62
0
 10
-168.925
 20
-58.7875
 30
0.0
 11
-168.925
 21
-59.3875
 31
0.0
  0
LINE
  8
0
 62
0
 10
-168.925
 20
-45.3875
 30
0.0
 11
-168.925
 21
-45.9875
 31
0.0
  0
LINE
  8
0
 62
0
 10
-169.725
 20
-58.7875
 30
0.0
 11
-168.925
 21
-58.7875
 31
0.0
  0
LINE
  8
0
 62
0
 10
-168.925
 20
-45.9875
 30
0.0
 11
-169.725
 21
-45.9875
 31
0.0
  0
LINE
  8
0
 62
0
 10
-169.725
 20
-45.9875
 30
0.0
 11
-169.725
 21
-58.7875
 31
0.0
  0
LINE
  8
0
 62
0
 10
26.85
 20
17.4125
 30
0.0
 11
26.85
 21
30.2125
 31
0.0
  0
LINE
  8
0
 62
0
 10
26.05
 20
17.4125
 30
0.0
 11
26.85
 21
17.4125
 31
0.0
  0
LINE
  8
0
 62
0
 10
26.85
 20
30.2125
 30
0.0
 11
26.05
 21
30.2125
 31
0.0
  0
LINE
  8
0
 62
0
 10
26.05
 20
16.8125
 30
0.0
 11
26.05
 21
17.4125
 31
0.0
  0
LINE
  8
0
 62
0
 10
26.05
 20
30.2125
 30
0.0
 11
26.05
 21
30.8125
 31
0.0
  0
LINE
  8
0
 62
0
 10
12.05
 20
16.8125
 30
0.0
 11
26.05
 21
16.8125
 31
0.0
  0
LINE
  8
0
 62
0
 10
26.05
 20
30.8125
 30
0.0
 11
12.05
 21
30.8125
 31
0.0
  0
LINE
  8
0
 62
0
 10
12.05
 20
17.4125
 30
0.0
 11
12.05
 21
16.8125
 31
0.0
  0
LINE
  8
0
 62
0
 10
12.05
 20
30.8125
 30
0.0
 11
12.05
 21
30.2125
 31
0.0
  0
LINE
  8
0
 62
0
 10
11.25
 20
17.4125
 30
0.0
 11
12.05
 21
17.4125
 31
0.0
  0
LINE
  8
0
 62
0
 10
12.05
 20
30.2125
 30
0.0
 11
11.25
 21
30.2125
 31
0.0
  0
LINE
  8
0
 62
0
 10
11.25
 20
30.2125
 30
0.0
 11
11.25
 21
17.4125
 31
0.0
  0
LINE
  8
0
 62
0
 10
-68.9125
 20
-21.2875
 30
0.0
 11
-54.9125
 21
-21.2875
 31
0.0
  0
LINE
  8
0
 62
0
 10
-68.9125
 20
-20.6875
 30
0.0
 11
-68.9125
 21
-21.2875
 31
0.0
  0
LINE
  8
0
 62
0
 10
-54.9125
 20
-21.2875
 30
0.0
 11
-54.9125
 21
-20.6875
 31
0.0
  0
LINE
  8
0
 62
0
 10
-69.7125
 20
-20.6875
 30
0.0
 11
-68.9125
 21
-20.6875
 31
0.0
  0
LINE
  8
0
 62
0
 10
-54.9125
 20
-20.6875
 30
0.0
 11
-54.1125
 21
-20.6875
 31
0.0
  0
LINE
  8
0
 62
0
 10
-69.7125
 20
-7.8875
 30
0.0
 11
-69.7125
 21
-20.6875
 31
0.0
  0
LINE
  8
0
 62
0
 10
-54.1125
 20
-20.6875
 30
0.0
 11
-54.1125
 21
-7.8875
 31
0.0
  0
LINE
  8
0
 62
0
 10
-68.9125
 20
-7.8875
 30
0.0
 11
-69.7125
 21
-7.8875
 31
0.0
  0
LINE
  8
0
 62
0
 10
-54.1125
 20
-7.8875
 30
0.0
 11
-54.9125
 21
-7.8875
 31
0.0
  0
LINE
  8
0
 62
0
 10
-68.9125
 20
-7.2875
 30
0.0
 11
-68.9125
 21
-7.8875
 31
0.0
  0
LINE
  8
0
 62
0
 10
-54.9125
 20
-7.8875
 30
0.0
 11
-54.9125
 21
-7.2875
 31
0.0
  0
LINE
  8
0
 62
0
 10
-54.9125
 20
-7.2875
 30
0.0
 11
-68.9125
 21
-7.2875
 31
0.0
  0
LINE
  8
0
 62
0
 10
-114.15625
 20
-59.3875
 30
0.0
 11
-100.15625
 21
-59.3875
 31
0.0
  0
LINE
  8
0
 62
0
 10
-114.15625
 20
-58.7875
 30
0.0
 11
-114.15625
 21
-59.3875
 31
0.0
  0
LINE
  8
0
 62
0
 10
-100.15625
 20
-59.3875
 30
0.0
 11
-100.15625
 21
-58.7875
 31
0.0
  0
LINE
  8
0
 62
0
 10
-114.95625
 20
-58.7875
 30
0.0
 11
-114.15625
 21
-58.7875
 31
0.0
  0
LINE
  8
0
 62
0
 10
-100.15625
 20
-58.7875
 30
0.0
 11
-99.35625
 21
-58.7875
 31
0.0
  0
LINE
  8
0
 62
0
 10
-114.95625
 20
-45.9875
 30
0.0
 11
-114.95625
 21
-58.7875
 31
0.0
  0
LINE
  8
0
 62
0
 10
-99.35625
 20
-58.7875
 30
0.0
 11
-99.35625
 21
-45.9875
 31
0.0
  0
LINE
  8
0
 62
0
 10
-114.15625
 20
-45.9875
 30
0.0
 11
-114.95625
 21
-45.9875
 31
0.0
  0
LINE
  8
0
 62
0
 10
-99.35625
 20
-45.9875
 30
0.0
 11
-100.15625
 21
-45.9875
 31
0.0
  0
LINE
  8
0
 62
0
 10
-114.15625
 20
-45.3875
 30
0.0
 11
-114.15625
 21
-45.9875
 31
0.0
  0
LINE
  8
0
 62
0
 10
-100.15625
 20
-45.9875
 30
0.0
 11
-100.15625
 21
-45.3875
 31
0.0
  0
LINE
  8
0
 62
0
 10
-100.15625
 20
-45.3875
 30
0.0
 11
-114.15625
 21
-45.3875
 31
0.0
  0
LINE
  8
0
 62
0
 10
-107.3
 20
30.2125
 30
0.0
 11
-107.3
 21
30.8125
 31
0.0
  0
LINE
  8
0
 62
0
 10
-106.5
 20
30.2125
 30
0.0
 11
-107.3
 21
30.2125
 31
0.0
  0
LINE
  8
0
 62
0
 10
-107.3
 20
30.8125
 30
0.0
 11
-121.3
 21
30.8125
 31
0.0
  0
LINE
  8
0
 62
0
 10
-106.5
 20
17.4125
 30
0.0
 11
-106.5
 21
30.2125
 31
0.0
  0
LINE
  8
0
 62
0
 10
-121.3
 20
30.8125
 30
0.0
 11
-121.3
 21
30.2125
 31
0.0
  0
LINE
  8
0
 62
0
 10
-107.3
 20
17.4125
 30
0.0
 11
-106.5
 21
17.4125
 31
0.0
  0
LINE
  8
0
 62
0
 10
-121.3
 20
30.2125
 30
0.0
 11
-122.1
 21
30.2125
 31
0.0
  0
LINE
  8
0
 62
0
 10
-107.3
 20
16.8125
 30
0.0
 11
-107.3
 21
17.4125
 31
0.0
  0
LINE
  8
0
 62
0
 10
-122.1
 20
30.2125
 30
0.0
 11
-122.1
 21
17.4125
 31
0.0
  0
LINE
  8
0
 62
0
 10
-121.3
 20
16.8125
 30
0.0
 11
-107.3
 21
16.8125
 31
0.0
  0
LINE
  8
0
 62
0
 10
-122.1
 20
17.4125
 30
0.0
 11
-121.3
 21
17.4125
 31
0.0
  0
LINE
  8
0
 62
0
 10
-121.3
 20
17.4125
 30
0.0
 11
-121.3
 21
16.8125
 31
0.0
  0
LINE
  8
0
 62
0
 10
-98.2875
 20
-26.9375
 30
0.0
 11
-98.2875
 21
-39.7375
 31
0.0
  0
LINE
  8
0
 62
0
 10
-97.4875
 20
-26.9375
 30
0.0
 11
-98.2875
 21
-26.9375
 31
0.0
  0
LINE
  8
0
 62
0
 10
-98.2875
 20
-39.7375
 30
0.0
 11
-97.4875
 21
-39.7375
 31
0.0
  0
LINE
  8
0
 62
0
 10
-97.4875
 20
-26.3375
 30
0.0
 11
-97.4875
 21
-26.9375
 31
0.0
  0
LINE
  8
0
 62
0
 10
-97.4875
 20
-39.7375
 30
0.0
 11
-97.4875
 21
-40.3375
 31
0.0
  0
LINE
  8
0
 62
0
 10
-83.4875
 20
-26.3375
 30
0.0
 11
-97.4875
 21
-26.3375
 31
0.0
  0
LINE
  8
0
 62
0
 10
-97.4875
 20
-40.3375
 30
0.0
 11
-83.4875
 21
-40.3375
 31
0.0
  0
LINE
  8
0
 62
0
 10
-83.4875
 20
-26.9375
 30
0.0
 11
-83.4875
 21
-26.3375
 31
0.0
  0
LINE
  8
0
 62
0
 10
-83.4875
 20
-40.3375
 30
0.0
 11
-83.4875
 21
-39.7375
 31
0.0
  0
LINE
  8
0
 62
0
 10
-82.6875
 20
-26.9375
 30
0.0
 11
-83.4875
 21
-26.9375
 31
0.0
  0
LINE
  8
0
 62
0
 10
-83.4875
 20
-39.7375
 30
0.0
 11
-82.6875
 21
-39.7375
 31
0.0
  0
LINE
  8
0
 62
0
 10
-82.6875
 20
-39.7375
 30
0.0
 11
-82.6875
 21
-26.9375
 31
0.0
  0
LINE
  8
0
 62
0
 10
-63.6375
 20
-26.9375
 30
0.0
 11
-64.4375
 21
-26.9375
 31
0.0
  0
LINE
  8
0
 62
0
 10
-63.6375
 20
-39.7375
 30
0.0
 11
-63.6375
 21
-26.9375
 31
0.0
  0
LINE
  8
0
 62
0
 10
-64.4375
 20
-26.9375
 30
0.0
 11
-64.4375
 21
-26.3375
 31
0.0
  0
LINE
  8
0
 62
0
 10
-64.4375
 20
-39.7375
 30
0.0
 11
-63.6375
 21
-39.7375
 31
0.0
  0
LINE
  8
0
 62
0
 10
-64.4375
 20
-26.3375
 30
0.0
 11
-78.4375
 21
-26.3375
 31
0.0
  0
LINE
  8
0
 62
0
 10
-64.4375
 20
-40.3375
 30
0.0
 11
-64.4375
 21
-39.7375
 31
0.0
  0
LINE
  8
0
 62
0
 10
-78.4375
 20
-26.3375
 30
0.0
 11
-78.4375
 21
-26.9375
 31
0.0
  0
LINE
  8
0
 62
0
 10
-78.4375
 20
-40.3375
 30
0.0
 11
-64.4375
 21
-40.3375
 31
0.0
  0
LINE
  8
0
 62
0
 10
-78.4375
 20
-26.9375
 30
0.0
 11
-79.2375
 21
-26.9375
 31
0.0
  0
LINE
  8
0
 62
0
 10
-78.4375
 20
-39.7375
 30
0.0
 11
-78.4375
 21
-40.3375
 31
0.0
  0
LINE
  8
0
 62
0
 10
-79.2375
 20
-26.9375
 30
0.0
 11
-79.2375
 21
-39.7375
 31
0.0
  0
LINE
  8
0
 62
0
 10
-79.2375
 20
-39.7375
 30
0.0
 11
-78.4375
 21
-39.7375
 31
0.0
  0
LINE
  8
0
 62
0
 10
-45.1
 20
30.8125
 30
0.0
 11
-45.1
 21
30.2125
 31
0.0
  0
LINE
  8
0
 62
0
 10
-31.1
 20
30.8125
 30
0.0
 11
-45.1
 21
30.8125
 31
0.0
  0
LINE
  8
0
 62
0
 10
-45.1
 20
30.2125
 30
0.0
 11
-45.9
 21
30.2125
 31
0.0
  0
LINE
  8
0
 62
0
 10
-31.1
 20
30.2125
 30
0.0
 11
-31.1
 21
30.8125
 31
0.0
  0
LINE
  8
0
 62
0
 10
-45.9
 20
30.2125
 30
0.0
 11
-45.9
 21
17.4125
 31
0.0
  0
LINE
  8
0
 62
0
 10
-30.3
 20
30.2125
 30
0.0
 11
-31.1
 21
30.2125
 31
0.0
  0
LINE
  8
0
 62
0
 10
-45.9
 20
17.4125
 30
0.0
 11
-45.1
 21
17.4125
 31
0.0
  0
LINE
  8
0
 62
0
 10
-30.3
 20
17.4125
 30
0.0
 11
-30.3
 21
30.2125
 31
0.0
  0
LINE
  8
0
 62
0
 10
-45.1
 20
17.4125
 30
0.0
 11
-45.1
 21
16.8125
 31
0.0
  0
LINE
  8
0
 62
0
 10
-31.1
 20
17.4125
 30
0.0
 11
-30.3
 21
17.4125
 31
0.0
  0
LINE
  8
0
 62
0
 10
-45.1
 20
16.8125
 30
0.0
 11
-31.1
 21
16.8125
 31
0.0
  0
LINE
  8
0
 62
0
 10
-31.1
 20
16.8125
 30
0.0
 11
-31.1
 21
17.4125
 31
0.0
  0
LINE
  8
0
 62
0
 10
-114.44375
 20
-26.3375
 30
0.0
 11
-128.44375
 21
-26.3375
 31
0.0
  0
LINE
  8
0
 62
0
 10
-114.44375
 20
-26.9375
 30
0.0
 11
-114.44375
 21
-26.3375
 31
0.0
  0
LINE
  8
0
 62
0
 10
-128.44375
 20
-26.3375
 30
0.0
 11
-128.44375
 21
-26.9375
 31
0.0
  0
LINE
  8
0
 62
0
 10
-113.64375
 20
-26.9375
 30
0.0
 11
-114.44375
 21
-26.9375
 31
0.0
  0
LINE
  8
0
 62
0
 10
-128.44375
 20
-26.9375
 30
0.0
 11
-129.24375
 21
-26.9375
 31
0.0
  0
LINE
  8
0
 62
0
 10
-113.64375
 20
-28.6075
 30
0.0
 11
-113.64375
 21
-26.9375
 31
0.0
  0
LINE
  8
0
 62
0
 10
-129.24375
 20
-26.9375
 30
0.0
 11
-129.24375
 21
-28.6075
 31
0.0
  0
LINE
  8
0
 62
0
 10
-112.86875
 20
-28.6075
 30
0.0
 11
-113.64375
 21
-28.6075
 31
0.0
  0
LINE
  8
0
 62
0
 10
-129.24375
 20
-28.6075
 30
0.0
 11
-130.01875
 21
-28.6075
 31
0.0
  0
LINE
  8
0
 62
0
 10
-112.86875
 20
-27.8075
 30
0.0
 11
-112.86875
 21
-28.6075
 31
0.0
  0
LINE
  8
0
 62
0
 10
-130.01875
 20
-28.6075
 30
0.0
 11
-130.01875
 21
-27.8075
 31
0.0
  0
LINE
  8
0
 62
0
 10
-111.14375
 20
-27.8075
 30
0.0
 11
-112.86875
 21
-27.8075
 31
0.0
  0
LINE
  8
0
 62
0
 10
-130.01875
 20
-27.8075
 30
0.0
 11
-131.74375
 21
-27.8075
 31
0.0
  0
LINE
  8
0
 62
0
 10
-111.14375
 20
-26.9375
 30
0.0
 11
-111.14375
 21
-27.8075
 31
0.0
  0
LINE
  8
0
 62
0
 10
-131.74375
 20
-27.8075
 30
0.0
 11
-131.74375
 21
-26.9375
 31
0.0
  0
LINE
  8
0
 62
0
 10
-107.84375
 20
-26.9375
 30
0.0
 11
-111.14375
 21
-26.9375
 31
0.0
  0
LINE
  8
0
 62
0
 10
-131.74375
 20
-26.9375
 30
0.0
 11
-135.04375
 21
-26.9375
 31
0.0
  0
LINE
  8
0
 62
0
 10
-107.84375
 20
-27.8075
 30
0.0
 11
-107.84375
 21
-26.9375
 31
0.0
  0
LINE
  8
0
 62
0
 10
-135.04375
 20
-26.9375
 30
0.0
 11
-135.04375
 21
-27.8075
 31
0.0
  0
LINE
  8
0
 62
0
 10
-106.21875
 20
-27.8075
 30
0.0
 11
-107.84375
 21
-27.8075
 31
0.0
  0
LINE
  8
0
 62
0
 10
-135.04375
 20
-27.8075
 30
0.0
 11
-136.66875
 21
-27.8075
 31
0.0
  0
LINE
  8
0
 62
0
 10
-106.21875
 20
-31.0375
 30
0.0
 11
-106.21875
 21
-27.8075
 31
0.0
  0
LINE
  8
0
 62
0
 10
-136.66875
 20
-27.8075
 30
0.0
 11
-136.66875
 21
-31.0375
 31
0.0
  0
LINE
  8
0
 62
0
 10
-105.34375
 20
-31.0375
 30
0.0
 11
-106.21875
 21
-31.0375
 31
0.0
  0
LINE
  8
0
 62
0
 10
-136.66875
 20
-31.0375
 30
0.0
 11
-137.54375
 21
-31.0375
 31
0.0
  0
LINE
  8
0
 62
0
 10
-105.34375
 20
-33.8375
 30
0.0
 11
-105.34375
 21
-31.0375
 31
0.0
  0
LINE
  8
0
 62
0
 10
-137.54375
 20
-31.0375
 30
0.0
 11
-137.54375
 21
-33.8375
 31
0.0
  0
LINE
  8
0
 62
0
 10
-106.21875
 20
-33.8375
 30
0.0
 11
-105.34375
 21
-33.8375
 31
0.0
  0
LINE
  8
0
 62
0
 10
-137.54375
 20
-33.8375
 30
0.0
 11
-136.66875
 21
-33.8375
 31
0.0
  0
LINE
  8
0
 62
0
 10
-106.21875
 20
-40.1075
 30
0.0
 11
-106.21875
 21
-33.8375
 31
0.0
  0
LINE
  8
0
 62
0
 10
-136.66875
 20
-33.8375
 30
0.0
 11
-136.66875
 21
-40.1075
 31
0.0
  0
LINE
  8
0
 62
0
 10
-107.84375
 20
-40.1075
 30
0.0
 11
-106.21875
 21
-40.1075
 31
0.0
  0
LINE
  8
0
 62
0
 10
-136.66875
 20
-40.1075
 30
0.0
 11
-135.04375
 21
-40.1075
 31
0.0
  0
LINE
  8
0
 62
0
 10
-107.84375
 20
-41.0875
 30
0.0
 11
-107.84375
 21
-40.1075
 31
0.0
  0
LINE
  8
0
 62
0
 10
-135.04375
 20
-40.1075
 30
0.0
 11
-135.04375
 21
-41.0875
 31
0.0
  0
LINE
  8
0
 62
0
 10
-111.14375
 20
-41.0875
 30
0.0
 11
-107.84375
 21
-41.0875
 31
0.0
  0
LINE
  8
0
 62
0
 10
-135.04375
 20
-41.0875
 30
0.0
 11
-131.74375
 21
-41.0875
 31
0.0
  0
LINE
  8
0
 62
0
 10
-111.14375
 20
-40.1075
 30
0.0
 11
-111.14375
 21
-41.0875
 31
0.0
  0
LINE
  8
0
 62
0
 10
-131.74375
 20
-41.0875
 30
0.0
 11
-131.74375
 21
-40.1075
 31
0.0
  0
LINE
  8
0
 62
0
 10
-112.86875
 20
-40.1075
 30
0.0
 11
-111.14375
 21
-40.1075
 31
0.0
  0
LINE
  8
0
 62
0
 10
-131.74375
 20
-40.1075
 30
0.0
 11
-130.01875
 21
-40.1075
 31
0.0
  0
LINE
  8
0
 62
0
 10
-112.86875
 20
-39.3075
 30
0.0
 11
-112.86875
 21
-40.1075
 31
0.0
  0
LINE
  8
0
 62
0
 10
-130.01875
 20
-40.1075
 30
0.0
 11
-130.01875
 21
-39.3075
 31
0.0
  0
LINE
  8
0
 62
0
 10
-113.64375
 20
-39.3075
 30
0.0
 11
-112.86875
 21
-39.3075
 31
0.0
  0
LINE
  8
0
 62
0
 10
-130.01875
 20
-39.3075
 30
0.0
 11
-129.24375
 21
-39.3075
 31
0.0
  0
LINE
  8
0
 62
0
 10
-113.64375
 20
-39.7375
 30
0.0
 11
-113.64375
 21
-39.3075
 31
0.0
  0
LINE
  8
0
 62
0
 10
-129.24375
 20
-39.3075
 30
0.0
 11
-129.24375
 21
-39.7375
 31
0.0
  0
LINE
  8
0
 62
0
 10
-114.44375
 20
-39.7375
 30
0.0
 11
-113.64375
 21
-39.7375
 31
0.0
  0
LINE
  8
0
 62
0
 10
-129.24375
 20
-39.7375
 30
0.0
 11
-128.44375
 21
-39.7375
 31
0.0
  0
LINE
  8
0
 62
0
 10
-114.44375
 20
-40.3375
 30
0.0
 11
-114.44375
 21
-39.7375
 31
0.0
  0
LINE
  8
0
 62
0
 10
-128.44375
 20
-39.7375
 30
0.0
 11
-128.44375
 21
-40.3375
 31
0.0
  0
LINE
  8
0
 62
0
 10
-128.44375
 20
-40.3375
 30
0.0
 11
-114.44375
 21
-40.3375
 31
0.0
  0
LINE
  8
0
 62
0
 10
-16.8125
 20
-7.8875
 30
0.0
 11
-16.8125
 21
-7.2875
 31
0.0
  0
LINE
  8
0
 62
0
 10
-16.0125
 20
-7.8875
 30
0.0
 11
-16.8125
 21
-7.8875
 31
0.0
  0
LINE
  8
0
 62
0
 10
-16.8125
 20
-7.2875
 30
0.0
 11
-30.8125
 21
-7.2875
 31
0.0
  0
LINE
  8
0
 62
0
 10
-16.0125
 20
-20.6875
 30
0.0
 11
-16.0125
 21
-7.8875
 31
0.0
  0
LINE
  8
0
 62
0
 10
-30.8125
 20
-7.2875
 30
0.0
 11
-30.8125
 21
-7.8875
 31
0.0
  0
LINE
  8
0
 62
0
 10
-16.8125
 20
-20.6875
 30
0.0
 11
-16.0125
 21
-20.6875
 31
0.0
  0
LINE
  8
0
 62
0
 10
-30.8125
 20
-7.8875
 30
0.0
 11
-31.6125
 21
-7.8875
 31
0.0
  0
LINE
  8
0
 62
0
 10
-16.8125
 20
-21.2875
 30
0.0
 11
-16.8125
 21
-20.6875
 31
0.0
  0
LINE
  8
0
 62
0
 10
-31.6125
 20
-7.8875
 30
0.0
 11
-31.6125
 21
-20.6875
 31
0.0
  0
LINE
  8
0
 62
0
 10
-30.8125
 20
-21.2875
 30
0.0
 11
-16.8125
 21
-21.2875
 31
0.0
  0
LINE
  8
0
 62
0
 10
-31.6125
 20
-20.6875
 30
0.0
 11
-30.8125
 21
-20.6875
 31
0.0
  0
LINE
  8
0
 62
0
 10
-30.8125
 20
-20.6875
 30
0.0
 11
-30.8125
 21
-21.2875
 31
0.0
  0
LINE
  8
0
 62
0
 10
-83.2
 20
17.4125
 30
0.0
 11
-83.2
 21
16.8125
 31
0.0
  0
LINE
  8
0
 62
0
 10
-84.0
 20
17.4125
 30
0.0
 11
-83.2
 21
17.4125
 31
0.0
  0
LINE
  8
0
 62
0
 10
-83.2
 20
16.8125
 30
0.0
 11
-69.2
 21
16.8125
 31
0.0
  0
LINE
  8
0
 62
0
 10
-84.0
 20
30.2125
 30
0.0
 11
-84.0
 21
17.4125
 31
0.0
  0
LINE
  8
0
 62
0
 10
-69.2
 20
16.8125
 30
0.0
 11
-69.2
 21
17.4125
 31
0.0
  0
LINE
  8
0
 62
0
 10
-83.2
 20
30.2125
 30
0.0
 11
-84.0
 21
30.2125
 31
0.0
  0
LINE
  8
0
 62
0
 10
-69.2
 20
17.4125
 30
0.0
 11
-68.4
 21
17.4125
 31
0.0
  0
LINE
  8
0
 62
0
 10
-83.2
 20
30.8125
 30
0.0
 11
-83.2
 21
30.2125
 31
0.0
  0
LINE
  8
0
 62
0
 10
-68.4
 20
17.4125
 30
0.0
 11
-68.4
 21
30.2125
 31
0.0
  0
LINE
  8
0
 62
0
 10
-69.2
 20
30.8125
 30
0.0
 11
-83.2
 21
30.8125
 31
0.0
  0
LINE
  8
0
 62
0
 10
-68.4
 20
30.2125
 30
0.0
 11
-69.2
 21
30.2125
 31
0.0
  0
LINE
  8
0
 62
0
 10
-69.2
 20
30.2125
 30
0.0
 11
-69.2
 21
30.8125
 31
0.0
  0
LINE
  8
0
 62
0
 10
21.2875
 20
-20.6875
 30
0.0
 11
22.0875
 21
-20.6875
 31
0.0
  0
LINE
  8
0
 62
0
 10
21.2875
 20
-21.2875
 30
0.0
 11
21.2875
 21
-20.6875
 31
0.0
  0
LINE
  8
0
 62
0
 10
22.0875
 20
-20.6875
 30
0.0
 11
22.0875
 21
-7.8875
 31
0.0
  0
LINE
  8
0
 62
0
 10
7.2875
 20
-21.2875
 30
0.0
 11
21.2875
 21
-21.2875
 31
0.0
  0
LINE
  8
0
 62
0
 10
22.0875
 20
-7.8875
 30
0.0
 11
21.2875
 21
-7.8875
 31
0.0
  0
LINE
  8
0
 62
0
 10
7.2875
 20
-20.6875
 30
0.0
 11
7.2875
 21
-21.2875
 31
0.0
  0
LINE
  8
0
 62
0
 10
21.2875
 20
-7.8875
 30
0.0
 11
21.2875
 21
-7.2875
 31
0.0
  0
LINE
  8
0
 62
0
 10
6.4875
 20
-20.6875
 30
0.0
 11
7.2875
 21
-20.6875
 31
0.0
  0
LINE
  8
0
 62
0
 10
21.2875
 20
-7.2875
 30
0.0
 11
7.2875
 21
-7.2875
 31
0.0
  0
LINE
  8
0
 62
0
 10
6.4875
 20
-7.8875
 30
0.0
 11
6.4875
 21
-20.6875
 31
0.0
  0
LINE
  8
0
 62
0
 10
7.2875
 20
-7.2875
 30
0.0
 11
7.2875
 21
-7.8875
 31
0.0
  0
LINE
  8
0
 62
0
 10
7.2875
 20
-7.8875
 30
0.0
 11
6.4875
 21
-7.8875
 31
0.0
  0
LINE
  8
0
 62
0
 10
154.925
 20
45.9875
 30
0.0
 11
154.925
 21
45.3875
 31
0.0
  0
LINE
  8
0
 62
0
 10
154.125
 20
45.9875
 30
0.0
 11
154.925
 21
45.9875
 31
0.0
  0
LINE
  8
0
 62
0
 10
154.925
 20
45.3875
 30
0.0
 11
168.925
 21
45.3875
 31
0.0
  0
LINE
  8
0
 62
0
 10
154.125
 20
58.7875
 30
0.0
 11
154.125
 21
45.9875
 31
0.0
  0
LINE
  8
0
 62
0
 10
168.925
 20
45.3875
 30
0.0
 11
168.925
 21
45.9875
 31
0.0
  0
LINE
  8
0
 62
0
 10
154.925
 20
58.7875
 30
0.0
 11
154.125
 21
58.7875
 31
0.0
  0
LINE
  8
0
 62
0
 10
168.925
 20
45.9875
 30
0.0
 11
169.725
 21
45.9875
 31
0.0
  0
LINE
  8
0
 62
0
 10
154.925
 20
59.3875
 30
0.0
 11
154.925
 21
58.7875
 31
0.0
  0
LINE
  8
0
 62
0
 10
169.725
 20
45.9875
 30
0.0
 11
169.725
 21
58.7875
 31
0.0
  0
LINE
  8
0
 62
0
 10
168.925
 20
59.3875
 30
0.0
 11
154.925
 21
59.3875
 31
0.0
  0
LINE
  8
0
 62
0
 10
169.725
 20
58.7875
 30
0.0
 11
168.925
 21
58.7875
 31
0.0
  0
LINE
  8
0
 62
0
 10
168.925
 20
58.7875
 30
0.0
 11
168.925
 21
59.3875
 31
0.0
  0
LINE
  8
0
 62
0
 10
-50.15
 20
16.8125
 30
0.0
 11
-50.15
 21
17.4125
 31
0.0
  0
LINE
  8
0
 62
0
 10
-64.15
 20
16.8125
 30
0.0
 11
-50.15
 21
16.8125
 31
0.0
  0
LINE
  8
0
 62
0
 10
-50.15
 20
17.4125
 30
0.0
 11
-49.35
 21
17.4125
 31
0.0
  0
LINE
  8
0
 62
0
 10
-64.15
 20
17.4125
 30
0.0
 11
-64.15
 21
16.8125
 31
0.0
  0
LINE
  8
0
 62
0
 10
-49.35
 20
17.4125
 30
0.0
 11
-49.35
 21
30.2125
 31
0.0
  0
LINE
  8
0
 62
0
 10
-64.95
 20
17.4125
 30
0.0
 11
-64.15
 21
17.4125
 31
0.0
  0
LINE
  8
0
 62
0
 10
-49.35
 20
30.2125
 30
0.0
 11
-50.15
 21
30.2125
 31
0.0
  0
LINE
  8
0
 62
0
 10
-64.95
 20
30.2125
 30
0.0
 11
-64.95
 21
17.4125
 31
0.0
  0
LINE
  8
0
 62
0
 10
-50.15
 20
30.2125
 30
0.0
 11
-50.15
 21
30.8125
 31
0.0
  0
LINE
  8
0
 62
0
 10
-64.15
 20
30.2125
 30
0.0
 11
-64.95
 21
30.2125
 31
0.0
  0
LINE
  8
0
 62
0
 10
-50.15
 20
30.8125
 30
0.0
 11
-64.15
 21
30.8125
 31
0.0
  0
LINE
  8
0
 62
0
 10
-64.15
 20
30.8125
 30
0.0
 11
-64.15
 21
30.2125
 31
0.0
  0
LINE
  8
0
 62
0
 10
-73.675
 20
11.7625
 30
0.0
 11
-73.675
 21
11.1625
 31
0.0
  0
LINE
  8
0
 62
0
 10
-59.675
 20
11.7625
 30
0.0
 11
-73.675
 21
11.7625
 31
0.0
  0
LINE
  8
0
 62
0
 10
-73.675
 20
11.1625
 30
0.0
 11
-74.475
 21
11.1625
 31
0.0
  0
LINE
  8
0
 62
0
 10
-59.675
 20
11.1625
 30
0.0
 11
-59.675
 21
11.7625
 31
0.0
  0
LINE
  8
0
 62
0
 10
-74.475
 20
11.1625
 30
0.0
 11
-74.475
 21
-1.6375
 31
0.0
  0
LINE
  8
0
 62
0
 10
-58.875
 20
11.1625
 30
0.0
 11
-59.675
 21
11.1625
 31
0.0
  0
LINE
  8
0
 62
0
 10
-74.475
 20
-1.6375
 30
0.0
 11
-73.675
 21
-1.6375
 31
0.0
  0
LINE
  8
0
 62
0
 10
-58.875
 20
-1.6375
 30
0.0
 11
-58.875
 21
11.1625
 31
0.0
  0
LINE
  8
0
 62
0
 10
-73.675
 20
-1.6375
 30
0.0
 11
-73.675
 21
-2.2375
 31
0.0
  0
LINE
  8
0
 62
0
 10
-59.675
 20
-1.6375
 30
0.0
 11
-58.875
 21
-1.6375
 31
0.0
  0
LINE
  8
0
 62
0
 10
-73.675
 20
-2.2375
 30
0.0
 11
-59.675
 21
-2.2375
 31
0.0
  0
LINE
  8
0
 62
0
 10
-59.675
 20
-2.2375
 30
0.0
 11
-59.675
 21
-1.6375
 31
0.0
  0
LINE
  8
0
 62
0
 10
-73.1625
 20
-7.8875
 30
0.0
 11
-73.9625
 21
-7.8875
 31
0.0
  0
LINE
  8
0
 62
0
 10
-73.1625
 20
-20.6875
 30
0.0
 11
-73.1625
 21
-7.8875
 31
0.0
  0
LINE
  8
0
 62
0
 10
-73.9625
 20
-7.8875
 30
0.0
 11
-73.9625
 21
-7.2875
 31
0.0
  0
LINE
  8
0
 62
0
 10
-73.9625
 20
-20.6875
 30
0.0
 11
-73.1625
 21
-20.6875
 31
0.0
  0
LINE
  8
0
 62
0
 10
-73.9625
 20
-7.2875
 30
0.0
 11
-87.9625
 21
-7.2875
 31
0.0
  0
LINE
  8
0
 62
0
 10
-73.9625
 20
-21.2875
 30
0.0
 11
-73.9625
 21
-20.6875
 31
0.0
  0
LINE
  8
0
 62
0
 10
-87.9625
 20
-7.2875
 30
0.0
 11
-87.9625
 21
-7.8875
 31
0.0
  0
LINE
  8
0
 62
0
 10
-87.9625
 20
-21.2875
 30
0.0
 11
-73.9625
 21
-21.2875
 31
0.0
  0
LINE
  8
0
 62
0
 10
-87.9625
 20
-7.8875
 30
0.0
 11
-88.7625
 21
-7.8875
 31
0.0
  0
LINE
  8
0
 62
0
 10
-87.9625
 20
-20.6875
 30
0.0
 11
-87.9625
 21
-21.2875
 31
0.0
  0
LINE
  8
0
 62
0
 10
-88.7625
 20
-7.8875
 30
0.0
 11
-88.7625
 21
-20.6875
 31
0.0
  0
LINE
  8
0
 62
0
 10
-88.7625
 20
-20.6875
 30
0.0
 11
-87.9625
 21
-20.6875
 31
0.0
  0
LINE
  8
0
 62
0
 10
135.5875
 20
-1.6375
 30
0.0
 11
136.3875
 21
-1.6375
 31
0.0
  0
LINE
  8
0
 62
0
 10
135.5875
 20
-2.2375
 30
0.0
 11
135.5875
 21
-1.6375
 31
0.0
  0
LINE
  8
0
 62
0
 10
136.3875
 20
-1.6375
 30
0.0
 11
136.3875
 21
11.1625
 31
0.0
  0
LINE
  8
0
 62
0
 10
121.5875
 20
-2.2375
 30
0.0
 11
135.5875
 21
-2.2375
 31
0.0
  0
LINE
  8
0
 62
0
 10
136.3875
 20
11.1625
 30
0.0
 11
135.5875
 21
11.1625
 31
0.0
  0
LINE
  8
0
 62
0
 10
121.5875
 20
-1.6375
 30
0.0
 11
121.5875
 21
-2.2375
 31
0.0
  0
LINE
  8
0
 62
0
 10
135.5875
 20
11.1625
 30
0.0
 11
135.5875
 21
11.7625
 31
0.0
  0
LINE
  8
0
 62
0
 10
120.7875
 20
-1.6375
 30
0.0
 11
121.5875
 21
-1.6375
 31
0.0
  0
LINE
  8
0
 62
0
 10
135.5875
 20
11.7625
 30
0.0
 11
121.5875
 21
11.7625
 31
0.0
  0
LINE
  8
0
 62
0
 10
120.7875
 20
11.1625
 30
0.0
 11
120.7875
 21
-1.6375
 31
0.0
  0
LINE
  8
0
 62
0
 10
121.5875
 20
11.7625
 30
0.0
 11
121.5875
 21
11.1625
 31
0.0
  0
LINE
  8
0
 62
0
 10
121.5875
 20
11.1625
 30
0.0
 11
120.7875
 21
11.1625
 31
0.0
  0
LINE
  8
0
 62
0
 10
76.34375
 20
-59.3875
 30
0.0
 11
90.34375
 21
-59.3875
 31
0.0
  0
LINE
  8
0
 62
0
 10
76.34375
 20
-58.7875
 30
0.0
 11
76.34375
 21
-59.3875
 31
0.0
  0
LINE
  8
0
 62
0
 10
90.34375
 20
-59.3875
 30
0.0
 11
90.34375
 21
-58.7875
 31
0.0
  0
LINE
  8
0
 62
0
 10
75.54375
 20
-58.7875
 30
0.0
 11
76.34375
 21
-58.7875
 31
0.0
  0
LINE
  8
0
 62
0
 10
90.34375
 20
-58.7875
 30
0.0
 11
91.14375
 21
-58.7875
 31
0.0
  0
LINE
  8
0
 62
0
 10
75.54375
 20
-45.9875
 30
0.0
 11
75.54375
 21
-58.7875
 31
0.0
  0
LINE
  8
0
 62
0
 10
91.14375
 20
-58.7875
 30
0.0
 11
91.14375
 21
-45.9875
 31
0.0
  0
LINE
  8
0
 62
0
 10
76.34375
 20
-45.9875
 30
0.0
 11
75.54375
 21
-45.9875
 31
0.0
  0
LINE
  8
0
 62
0
 10
91.14375
 20
-45.9875
 30
0.0
 11
90.34375
 21
-45.9875
 31
0.0
  0
LINE
  8
0
 62
0
 10
76.34375
 20
-45.3875
 30
0.0
 11
76.34375
 21
-45.9875
 31
0.0
  0
LINE
  8
0
 62
0
 10
90.34375
 20
-45.9875
 30
0.0
 11
90.34375
 21
-45.3875
 31
0.0
  0
LINE
  8
0
 62
0
 10
90.34375
 20
-45.3875
 30
0.0
 11
76.34375
 21
-45.3875
 31
0.0
  0
ENDBLK
  0
ENDSEC
  0
SECTION
  2
ENTITIES
  0
INSERT
  2
SHAPE
  8
0
 10
0.0
 20
0.0
 30
0.0
  0
ENDSEC
  0
EOF
